# This file is brought to you by Roblox Corporation
# Generated by Roblox Studio

mtllib Bubble Handgun Body.mtl

g Meshpart1

v -390.157 4.71714 29.5407 
v -390.157 4.91847 29.5218 
v -389.828 4.71714 29.5407 
v -389.828 4.91847 29.5218 
v -390.157 5.03151 29.482 
v -389.828 5.03151 29.482 
v -390.157 5.13927 29.4101 
v -389.828 5.13927 29.4101 
v -390.157 5.24931 29.353 
v -389.828 5.24931 29.353 
v -390.157 5.30898 29.3349 
v -389.828 5.30898 29.3349 
v -390.157 5.35723 29.3369 
v -389.828 5.35723 29.3369 
v -390.157 5.35723 29.3369 
v -389.828 5.35723 29.3369 
v -390.157 5.4211 29.4248 
v -389.828 5.4211 29.4248 
v -389.828 5.4211 29.7565 
v -390.157 5.4211 29.7565 
v -390.157 5.35302 29.8292 
v -389.828 5.35302 29.8292 
v -389.828 4.76858 30.0118 
v -389.828 4.71714 29.5407 
v -389.828 4.95479 29.9905 
v -389.828 4.76858 30.0118 
v -389.828 4.91847 29.5218 
v -389.828 5.05721 29.9524 
v -389.828 5.03151 29.482 
v -389.828 5.15645 29.8847 
v -389.828 5.13927 29.4101 
v -389.828 5.25839 29.8294 
v -389.828 5.24931 29.353 
v -389.828 5.31351 29.8291 
v -389.828 5.30898 29.3349 
v -389.828 5.4211 29.4248 
v -389.828 5.35723 29.3369 
v -389.828 5.4211 29.7565 
v -389.828 5.35302 29.8292 
v -390.157 5.4211 29.7565 
v -390.157 5.35302 29.8292 
v -389.828 5.35302 29.8292 
v -390.157 5.31351 29.8291 
v -389.828 5.31351 29.8291 
v -390.157 5.25839 29.8294 
v -389.828 5.25839 29.8294 
v -390.157 5.15645 29.8847 
v -389.828 5.15645 29.8847 
v -390.157 5.05721 29.9524 
v -389.828 5.05721 29.9524 
v -390.157 4.95479 29.9905 
v -389.828 4.95479 29.9905 
v -390.157 4.76858 30.0118 
v -389.828 4.76858 30.0118 
v -390.157 4.71714 29.5407 
v -389.828 4.76858 30.0118 
v -390.157 4.76858 30.0118 
v -389.828 4.71714 29.5407 
v -389.828 4.76858 30.0118 
v -389.828 5.35302 29.8292 
v -390.157 4.71714 29.5407 
v -390.157 4.95479 29.9905 
v -390.157 4.91847 29.5218 
v -390.157 4.76858 30.0118 
v -390.157 5.05721 29.9524 
v -390.157 5.03151 29.482 
v -390.157 5.15645 29.8847 
v -390.157 5.13927 29.4101 
v -390.157 5.25839 29.8294 
v -390.157 5.24931 29.353 
v -390.157 5.31351 29.8291 
v -390.157 5.30898 29.3349 
v -390.157 5.4211 29.4248 
v -390.157 5.35723 29.3369 
v -390.157 5.4211 29.7565 
v -390.157 5.35302 29.8292 

vn 0 -0.0944882 -0.992126 
vn 0 -0.220472 -0.976378 
vn 0 -0.0944882 -0.992126 
vn 0 -0.220472 -0.976378 
vn 0 -0.456693 -0.889764 
vn 0 -0.456693 -0.889764 
vn 0 -0.511811 -0.858268 
vn 0 -0.511811 -0.858268 
vn 0 -0.377953 -0.92126 
vn 0 -0.377953 -0.92126 
vn 0 -0.125984 -0.992126 
vn 0 -0.125984 -0.992126 
vn 0 0.574803 -0.818898 
vn 0 0.574803 -0.818898 
vn 0 0.574803 -0.818898 
vn 0 0.574803 -0.818898 
vn 0 0.992126 -0.133858 
vn 0 0.992126 -0.133858 
vn 0 0.992126 0.141732 
vn 0 0.992126 0.141732 
vn 0 0.464567 0.88189 
vn 0 0.464567 0.88189 
vn 0 -0.992126 0.110236 
vn 1 0 0 
vn 1 0 0 
vn 1 0 0 
vn 1 0 0 
vn 1 0 0 
vn 1 0 0 
vn 1 0 0 
vn 1 0 0 
vn 1 0 0 
vn 1 0 0 
vn 1 0 0 
vn 1 0 0 
vn 1 0 0 
vn 1 0 0 
vn 1 0 0 
vn 1 0 0 
vn 0 0.992126 0.141732 
vn 0 0.464567 0.88189 
vn 0 0.464567 0.88189 
vn 0 0 1 
vn 0 0 1 
vn 0 0.267717 0.96063 
vn 0 0.267717 0.96063 
vn 0 0.519685 0.850394 
vn 0 0.519685 0.850394 
vn 0 0.464567 0.88189 
vn 0 0.464567 0.88189 
vn 0 0.23622 0.968504 
vn 0 0.23622 0.968504 
vn 0 0.110236 0.992126 
vn 0 0.110236 0.992126 
vn 0 -0.992126 0.110236 
vn 0 -0.992126 0.110236 
vn 0 -0.992126 0.110236 
vn 0 -0.992126 0.110236 
vn 0 -0.992126 0.110236 
vn 1 0 0 
vn -1 0 0 
vn -1 0 0 
vn -1 0 0 
vn -1 0 0 
vn -1 0 0 
vn -1 0 0 
vn -1 0 0 
vn -1 0 0 
vn -1 0 0 
vn -1 0 0 
vn -1 0 0 
vn -1 0 0 
vn -1 0 0 
vn -1 0 0 
vn -1 0 0 
vn -1 0 0 

vt 50.0206 -37.044 
vt 50.0206 -37.0188 
vt 49.9794 -37.044 
vt 49.9794 -37.0188 
vt 50.0206 -37.0047 
vt 49.9794 -37.0047 
vt 50.0206 -36.9912 
vt 49.9794 -36.9912 
vt 50.0206 -36.9775 
vt 49.9794 -36.9775 
vt 50.0206 -36.97 
vt 49.9794 -36.97 
vt 50.0206 -36.964 
vt 49.9794 -36.964 
vt 49.958 -37.0206 
vt 49.958 -36.9794 
vt 49.9689 -37.0206 
vt 49.9689 -36.9794 
vt 50.0104 -36.9794 
vt 50.0104 -37.0206 
vt 50.0195 -37.0206 
vt 50.0195 -36.9794 
vt 49.9577 -37.0376 
vt 50.0166 -37.044 
vt 49.9604 -37.0143 
vt 49.9577 -37.0376 
vt 50.0189 -37.0188 
vt 49.9651 -37.0015 
vt 50.0239 -37.0047 
vt 49.9736 -36.9891 
vt 50.0329 -36.9912 
vt 49.9805 -36.9763 
vt 50.04 -36.9775 
vt 49.9805 -36.9695 
vt 50.0423 -36.97 
vt 50.0311 -36.956 
vt 50.042 -36.964 
vt 49.9896 -36.956 
vt 49.9805 -36.9645 
vt 49.9794 -36.956 
vt 49.9794 -36.9645 
vt 50.0206 -36.9645 
vt 49.9794 -36.9695 
vt 50.0206 -36.9695 
vt 49.9794 -36.9763 
vt 50.0206 -36.9763 
vt 49.9794 -36.9891 
vt 50.0206 -36.9891 
vt 49.9794 -37.0015 
vt 50.0206 -37.0015 
vt 49.9794 -37.0143 
vt 50.0206 -37.0143 
vt 49.9794 -37.0376 
vt 50.0206 -37.0376 
vt 50.0166 -37.0206 
vt 49.9577 -36.9794 
vt 49.9577 -37.0206 
vt 50.0166 -36.9794 
vt 50.0423 -37.0376 
vt 50.0195 -36.9645 
vt 49.9834 -37.044 
vt 50.0396 -37.0143 
vt 49.9811 -37.0188 
vt 50.0423 -37.0376 
vt 50.0349 -37.0015 
vt 49.9761 -37.0047 
vt 50.0264 -36.9891 
vt 49.9671 -36.9912 
vt 50.0195 -36.9763 
vt 49.96 -36.9775 
vt 50.0195 -36.9695 
vt 49.9577 -36.97 
vt 49.9689 -36.956 
vt 49.958 -36.964 
vt 50.0104 -36.956 
vt 50.0195 -36.9645 

usemtl Meshpart1Mtl

f 1/1/1 2/2/2 3/3/3 
f 2/2/2 4/4/4 3/3/3 
f 4/4/4 2/2/2 5/5/5 
f 5/5/5 6/6/6 4/4/4 
f 6/6/6 5/5/5 7/7/7 
f 7/7/7 8/8/8 6/6/6 
f 8/8/8 7/7/7 9/9/9 
f 9/9/9 10/10/10 8/8/8 
f 10/10/10 9/9/9 11/11/11 
f 11/11/11 12/12/12 10/10/10 
f 12/12/12 11/11/11 13/13/13 
f 13/13/13 14/14/14 12/12/12 
f 16/16/16 15/15/15 17/17/17 
f 17/17/17 18/18/18 16/16/16 
f 17/17/17 19/19/19 18/18/18 
f 17/17/17 20/20/20 19/19/19 
f 19/19/19 20/20/20 21/21/21 
f 21/21/21 22/22/22 19/19/19 
f 24/24/24 25/25/25 26/26/26 
f 25/25/25 24/24/24 27/27/27 
f 27/27/27 28/28/28 25/25/25 
f 28/28/28 27/27/27 29/29/29 
f 29/29/29 30/30/30 28/28/28 
f 30/30/30 29/29/29 31/31/31 
f 31/31/31 32/32/32 30/30/30 
f 32/32/32 31/31/31 33/33/33 
f 33/33/33 34/34/34 32/32/32 
f 34/34/34 33/33/33 35/35/35 
f 36/36/36 34/34/34 35/35/35 
f 36/36/36 35/35/35 37/37/37 
f 34/34/34 36/36/36 38/38/38 
f 34/34/34 38/38/38 39/39/39 
f 43/43/43 42/42/42 41/41/41 
f 42/42/42 43/43/43 44/44/44 
f 45/45/45 44/44/44 43/43/43 
f 44/44/44 45/45/45 46/46/46 
f 47/47/47 46/46/46 45/45/45 
f 46/46/46 47/47/47 48/48/48 
f 49/49/49 48/48/48 47/47/47 
f 48/48/48 49/49/49 50/50/50 
f 51/51/51 50/50/50 49/49/49 
f 50/50/50 51/51/51 52/52/52 
f 53/53/53 52/52/52 51/51/51 
f 52/52/52 53/53/53 54/54/54 
f 55/55/55 56/56/56 57/57/57 
f 56/56/56 55/55/55 58/58/58 
f 61/61/61 62/62/62 63/63/63 
f 62/62/62 61/61/61 64/64/64 
f 65/65/65 63/63/63 62/62/62 
f 63/63/63 65/65/65 66/66/66 
f 67/67/67 66/66/66 65/65/65 
f 66/66/66 67/67/67 68/68/68 
f 69/69/69 68/68/68 67/67/67 
f 69/69/69 70/70/70 68/68/68 
f 71/71/71 70/70/70 69/69/69 
f 70/70/70 71/71/71 72/72/72 
f 73/73/73 72/72/72 71/71/71 
f 72/72/72 73/73/73 74/74/74 
f 73/73/73 71/71/71 75/75/75 
f 75/75/75 71/71/71 76/76/76 

g Meshpart2

v -389.841 5.65609 28.6531 
v -390.144 5.58276 28.6531 
v -390.144 5.65609 28.6531 
v -389.841 5.58276 28.6531 
v -390.144 5.50943 28.6531 
v -389.841 5.50943 28.6531 
v -390.144 5.43211 28.6531 
v -389.841 5.43211 28.6531 
v -390.144 4.65507 29.4479 
v -390.144 4.89535 29.423 
v -389.841 4.65507 29.4479 
v -389.841 4.89535 29.423 
v -390.144 5.03027 29.3704 
v -389.841 5.03027 29.3704 
v -390.144 5.15888 29.3081 
v -389.841 5.15888 29.3081 
v -390.144 5.29021 29.2553 
v -389.841 5.29021 29.2553 
v -390.144 5.36142 29.244 
v -389.841 5.36142 29.244 
v -390.144 5.43264 29.2471 
v -389.841 5.43264 29.2471 
v -389.841 5.65609 30.0096 
v -390.144 5.65609 29.2535 
v -390.144 5.65609 30.0096 
v -389.841 5.65609 29.2535 
v -389.841 5.65609 28.6531 
v -390.144 5.65609 28.6531 
v -390.144 4.71646 30.0969 
v -389.841 4.65507 29.4479 
v -389.841 5.43263 29.8974 
v -389.841 5.65609 29.2535 
v -389.841 5.58276 29.9995 
v -389.841 5.58276 29.2374 
v -389.841 5.65609 30.0096 
v -389.841 5.65609 28.6531 
v -389.841 5.50943 29.9845 
v -389.841 5.58276 28.6531 
v -389.841 5.50943 29.223 
v -389.841 5.50943 28.6531 
v -389.841 5.43211 28.6531 
v -389.841 5.43263 29.8974 
v -389.841 5.43264 29.2471 
v -389.841 5.36684 29.8971 
v -389.841 5.36142 29.244 
v -389.841 5.29021 29.2553 
v -389.841 5.30105 29.9114 
v -389.841 5.15888 29.3081 
v -389.841 5.17939 29.9618 
v -389.841 5.03027 29.3704 
v -389.841 5.06094 30.0184 
v -389.841 4.89535 29.423 
v -389.841 4.93871 30.0687 
v -389.841 4.65507 29.4479 
v -389.841 4.71646 30.0969 
v -390.144 5.58276 29.9995 
v -389.841 5.58276 29.9995 
v -390.144 5.65609 30.0096 
v -389.841 5.65609 30.0096 
v -389.841 5.50943 29.9845 
v -390.144 5.50943 29.9845 
v -389.841 5.43263 29.8974 
v -390.144 5.43263 29.8974 
v -390.144 5.36684 29.8971 
v -389.841 5.36684 29.8971 
v -390.144 5.30105 29.9114 
v -389.841 5.30105 29.9114 
v -390.144 5.17939 29.9618 
v -389.841 5.17939 29.9618 
v -390.144 5.06094 30.0184 
v -389.841 5.06094 30.0184 
v -390.144 4.93871 30.0687 
v -389.841 4.93871 30.0687 
v -390.144 4.71646 30.0969 
v -389.841 4.71646 30.0969 
v -390.144 4.65507 29.4479 
v -389.841 4.71646 30.0969 
v -390.144 4.71646 30.0969 
v -389.841 4.65507 29.4479 
v -389.841 5.50943 29.9845 
v -390.144 5.50943 29.9845 
v -389.841 5.43263 29.8974 
v -390.144 5.43263 29.8974 
v -390.144 5.43264 29.2471 
v -390.144 5.43211 28.6531 
v -389.841 5.43211 28.6531 
v -389.841 5.43264 29.2471 
v -390.144 4.71646 30.0969 
v -389.841 4.65507 29.4479 
v -389.841 5.43263 29.8974 
v -390.144 5.65609 28.6531 
v -390.144 5.58276 29.2448 
v -390.144 5.65609 29.2535 
v -390.144 5.58276 28.6531 
v -390.144 5.58276 29.9995 
v -390.144 5.65609 30.0096 
v -390.144 5.50943 29.9845 
v -390.144 5.50943 29.223 
v -390.144 5.50943 28.6531 
v -390.144 5.43211 28.6531 
v -390.144 5.43263 29.8974 
v -390.144 5.43264 29.2471 
v -390.144 5.36684 29.8971 
v -390.144 5.36142 29.244 
v -390.144 5.29021 29.2553 
v -390.144 5.30105 29.9114 
v -390.144 5.15888 29.3081 
v -390.144 5.17939 29.9618 
v -390.144 5.03027 29.3704 
v -390.144 5.06094 30.0184 
v -390.144 4.89535 29.423 
v -390.144 4.93871 30.0687 
v -390.144 4.65507 29.4479 
v -390.144 4.71646 30.0969 

vn 0 0 -1 
vn 0 0 -1 
vn 0 0 -1 
vn 0 0 -1 
vn 0 0 -1 
vn 0 0 -1 
vn 0 0 -1 
vn 0 0 -1 
vn 0 -0.102362 -0.992126 
vn 0 -0.23622 -0.968504 
vn 0 -0.102362 -0.992126 
vn 0 -0.23622 -0.968504 
vn 0 -0.401575 -0.913386 
vn 0 -0.401575 -0.913386 
vn 0 -0.401575 -0.913386 
vn 0 -0.401575 -0.913386 
vn 0 -0.267717 -0.96063 
vn 0 -0.267717 -0.96063 
vn 0 -0.0551181 -1 
vn 0 -0.0551181 -1 
vn 0 0.0472441 -1 
vn 0 0.0472441 -1 
vn 0 1 0 
vn 0 1 0 
vn 0 1 0 
vn 0 1 0 
vn 0 1 0 
vn 0 1 0 
vn 0 -0.992126 0.0944882 
vn 0 -0.992126 0.0944882 
vn 0 -0.488189 0.874016 
vn 1 0 0 
vn 1 0 0 
vn 1 0 0 
vn 1 0 0 
vn 1 0 0 
vn 1 0 0 
vn 1 0 0 
vn 1 0 0 
vn 1 0 0 
vn 1 0 0 
vn 1 0 0 
vn 1 0 0 
vn 1 0 0 
vn 1 0 0 
vn 1 0 0 
vn 1 0 0 
vn 1 0 0 
vn 1 0 0 
vn 1 0 0 
vn 1 0 0 
vn 1 0 0 
vn 1 0 0 
vn 1 0 0 
vn 1 0 0 
vn 0 -0.165354 0.984252 
vn 0 -0.165354 0.984252 
vn 0 -0.133858 0.992126 
vn 0 -0.133858 0.992126 
vn 0 -0.551181 0.834646 
vn 0 -0.551181 0.834646 
vn 0 -0.488189 0.874016 
vn 0 -0.488189 0.874016 
vn 0 0.102362 0.992126 
vn 0 0.102362 0.992126 
vn 0 0.299213 0.952756 
vn 0 0.299213 0.952756 
vn 0 0.409449 0.913386 
vn 0 0.409449 0.913386 
vn 0 0.409449 0.913386 
vn 0 0.409449 0.913386 
vn 0 0.259843 0.968504 
vn 0 0.259843 0.968504 
vn 0 0.125984 0.992126 
vn 0 0.125984 0.992126 
vn 0 -0.992126 0.0944882 
vn 0 -0.992126 0.0944882 
vn 0 -0.992126 0.0944882 
vn 0 -0.992126 0.0944882 
vn 0 -0.551181 0.834646 
vn 0 -0.551181 0.834646 
vn 0 -0.488189 0.874016 
vn 0 -0.488189 0.874016 
vn 0 -1 0 
vn 0 -1 0 
vn 0 -1 0 
vn 0 -1 0 
vn 0 -0.992126 0.0944882 
vn 0 -0.992126 0.0944882 
vn 0 -0.488189 0.874016 
vn -1 0 0 
vn -1 0 0 
vn -1 0 0 
vn -1 0 0 
vn -1 0 0 
vn -1 0 0 
vn -1 0 0 
vn -1 0 0 
vn -1 0 0 
vn -1 0 0 
vn -1 0 0 
vn -1 0 0 
vn -1 0 0 
vn -1 0 0 
vn -1 0 0 
vn -1 0 0 
vn -1 0 0 
vn -1 0 0 
vn -1 0 0 
vn -1 0 0 
vn -1 0 0 
vn -1 0 0 
vn -1 0 0 
vn -1 0 0 

vt 1.98108 -0.937436 
vt 2.01892 -0.946602 
vt 2.01892 -0.937436 
vt 1.98108 -0.946602 
vt 2.01892 -0.955768 
vt 1.98108 -0.955768 
vt 2.01892 -0.965434 
vt 1.98108 -0.965434 
vt 2.01892 -1.06256 
vt 2.01892 -1.03253 
vt 1.98108 -1.06256 
vt 1.98108 -1.03253 
vt 2.01892 -1.01566 
vt 1.98108 -1.01566 
vt 2.01892 -0.999587 
vt 1.98108 -0.999587 
vt 2.01892 -0.983171 
vt 1.98108 -0.983171 
vt 2.01892 -0.974269 
vt 1.98108 -0.974269 
vt 2.01892 -0.965368 
vt 1.98108 -0.965368 
vt 2.07933 -0.981081 
vt 1.98481 -1.01892 
vt 2.07933 -1.01892 
vt 1.98481 -0.981081 
vt 1.90976 -0.981081 
vt 1.90976 -1.01892 
vt 1.90976 -1.05489 
vt 1.99089 -1.06256 
vt 1.9347 -0.965369 
vt 2.01519 -0.937436 
vt 1.92193 -0.946602 
vt 2.0172 -0.946602 
vt 1.92067 -0.937436 
vt 2.09024 -0.937436 
vt 1.92382 -0.955768 
vt 2.09024 -0.946602 
vt 2.019 -0.955768 
vt 2.09024 -0.955768 
vt 2.09024 -0.965434 
vt 1.9347 -0.965369 
vt 2.01598 -0.965368 
vt 1.93473 -0.973593 
vt 2.01638 -0.974269 
vt 2.01496 -0.983171 
vt 1.93295 -0.981816 
vt 2.00836 -0.999587 
vt 1.92665 -0.997024 
vt 2.00058 -1.01566 
vt 1.91957 -1.01183 
vt 1.994 -1.03253 
vt 1.91328 -1.02711 
vt 1.99089 -1.06256 
vt 1.90976 -1.05489 
vt 1.98108 -0.946602 
vt 2.01892 -0.946602 
vt 1.98108 -0.937436 
vt 2.01892 -0.937436 
vt 2.01892 -0.955768 
vt 1.98108 -0.955768 
vt 2.01892 -0.965369 
vt 1.98108 -0.965369 
vt 1.98108 -0.973593 
vt 2.01892 -0.973593 
vt 1.98108 -0.981816 
vt 2.01892 -0.981816 
vt 1.98108 -0.997024 
vt 2.01892 -0.997024 
vt 1.98108 -1.01183 
vt 2.01892 -1.01183 
vt 1.98108 -1.02711 
vt 2.01892 -1.02711 
vt 1.98108 -1.05489 
vt 2.01892 -1.05489 
vt 1.99089 -1.01892 
vt 1.90976 -0.981081 
vt 1.90976 -1.01892 
vt 1.99089 -0.981081 
vt 1.92382 -0.981081 
vt 1.92382 -1.01892 
vt 1.9347 -0.981081 
vt 1.9347 -1.01892 
vt 2.01598 -1.01892 
vt 2.09024 -1.01892 
vt 2.09024 -0.981081 
vt 2.01598 -0.981081 
vt 2.09024 -1.05489 
vt 2.00911 -1.06256 
vt 2.0653 -0.965369 
vt 1.90976 -0.937436 
vt 1.98372 -0.946602 
vt 1.98481 -0.937436 
vt 1.90976 -0.946602 
vt 2.07807 -0.946602 
vt 2.07933 -0.937436 
vt 2.07618 -0.955768 
vt 1.981 -0.955768 
vt 1.90976 -0.955768 
vt 1.90976 -0.965434 
vt 2.0653 -0.965369 
vt 1.98402 -0.965368 
vt 2.06527 -0.973593 
vt 1.98362 -0.974269 
vt 1.98504 -0.983171 
vt 2.06705 -0.981816 
vt 1.99164 -0.999587 
vt 2.07335 -0.997024 
vt 1.99942 -1.01566 
vt 2.08043 -1.01183 
vt 2.006 -1.03253 
vt 2.08672 -1.02711 
vt 2.00911 -1.06256 
vt 2.09024 -1.05489 

usemtl Meshpart2Mtl

f 77/77/77 78/78/78 79/79/79 
f 78/78/78 77/77/77 80/80/80 
f 78/78/78 80/80/80 81/81/81 
f 81/81/81 80/80/80 82/82/82 
f 81/81/81 82/82/82 83/83/83 
f 83/83/83 82/82/82 84/84/84 
f 85/85/85 86/86/86 87/87/87 
f 86/86/86 88/88/88 87/87/87 
f 88/88/88 86/86/86 89/89/89 
f 89/89/89 90/90/90 88/88/88 
f 90/90/90 89/89/89 91/91/91 
f 91/91/91 92/92/92 90/90/90 
f 92/92/92 91/91/91 93/93/93 
f 93/93/93 94/94/94 92/92/92 
f 94/94/94 93/93/93 95/95/95 
f 95/95/95 96/96/96 94/94/94 
f 96/96/96 95/95/95 97/97/97 
f 97/97/97 98/98/98 96/96/96 
f 99/99/99 100/100/100 101/101/101 
f 100/100/100 99/99/99 102/102/102 
f 103/103/103 100/100/100 102/102/102 
f 100/100/100 103/103/103 104/104/104 
f 108/108/108 109/109/109 110/110/110 
f 109/109/109 108/108/108 111/111/111 
f 110/110/110 112/112/112 108/108/108 
f 113/113/113 110/110/110 109/109/109 
f 112/112/112 110/110/110 114/114/114 
f 110/110/110 113/113/113 115/115/115 
f 115/115/115 114/114/114 110/110/110 
f 114/114/114 115/115/115 116/116/116 
f 116/116/116 115/115/115 117/117/117 
f 118/118/118 115/115/115 113/113/113 
f 119/119/119 117/117/117 115/115/115 
f 115/115/115 118/118/118 119/119/119 
f 120/120/120 119/119/119 118/118/118 
f 120/120/120 121/121/121 119/119/119 
f 120/120/120 122/122/122 121/121/121 
f 122/122/122 120/120/120 123/123/123 
f 123/123/123 124/124/124 122/122/122 
f 124/124/124 123/123/123 125/125/125 
f 125/125/125 126/126/126 124/124/124 
f 126/126/126 125/125/125 127/127/127 
f 127/127/127 128/128/128 126/126/126 
f 128/128/128 127/127/127 129/129/129 
f 129/129/129 130/130/130 128/128/128 
f 130/130/130 129/129/129 131/131/131 
f 132/132/132 133/133/133 134/134/134 
f 134/134/134 133/133/133 135/135/135 
f 132/132/132 136/136/136 133/133/133 
f 137/137/137 136/136/136 132/132/132 
f 140/140/140 138/138/138 139/139/139 
f 138/138/138 140/140/140 141/141/141 
f 142/142/142 141/141/141 140/140/140 
f 141/141/141 142/142/142 143/143/143 
f 144/144/144 143/143/143 142/142/142 
f 143/143/143 144/144/144 145/145/145 
f 146/146/146 145/145/145 144/144/144 
f 145/145/145 146/146/146 147/147/147 
f 148/148/148 147/147/147 146/146/146 
f 147/147/147 148/148/148 149/149/149 
f 150/150/150 149/149/149 148/148/148 
f 149/149/149 150/150/150 151/151/151 
f 152/152/152 153/153/153 154/154/154 
f 153/153/153 152/152/152 155/155/155 
f 157/157/157 158/158/158 156/156/156 
f 159/159/159 158/158/158 157/157/157 
f 160/160/160 161/161/161 162/162/162 
f 160/160/160 162/162/162 163/163/163 
f 167/167/167 168/168/168 169/169/169 
f 168/168/168 167/167/167 170/170/170 
f 171/171/171 169/169/169 168/168/168 
f 169/169/169 171/171/171 172/172/172 
f 168/168/168 173/173/173 171/171/171 
f 170/170/170 174/174/174 168/168/168 
f 173/173/173 168/168/168 174/174/174 
f 174/174/174 170/170/170 175/175/175 
f 176/176/176 174/174/174 175/175/175 
f 173/173/173 174/174/174 177/177/177 
f 174/174/174 176/176/176 178/178/178 
f 177/177/177 174/174/174 178/178/178 
f 178/178/178 179/179/179 177/177/177 
f 179/179/179 178/178/178 180/180/180 
f 181/181/181 179/179/179 180/180/180 
f 179/179/179 181/181/181 182/182/182 
f 182/182/182 181/181/181 183/183/183 
f 182/182/182 183/183/183 184/184/184 
f 185/185/185 184/184/184 183/183/183 
f 184/184/184 185/185/185 186/186/186 
f 187/187/187 186/186/186 185/185/185 
f 186/186/186 187/187/187 188/188/188 
f 189/189/189 188/188/188 187/187/187 
f 188/188/188 189/189/189 190/190/190 

g Meshpart3

v -389.993 5.85801 27.8354 
v -390.044 5.83687 27.8354 
v -389.942 5.83687 27.8354 
v -389.92 5.78583 27.8354 
v -389.942 5.73478 27.8354 
v -390.065 5.78583 27.8354 
v -389.993 5.71364 27.8354 
v -390.044 5.73478 27.8354 
v -389.942 5.73478 27.7652 
v -389.942 5.73478 27.8354 
v -389.993 5.71364 27.7652 
v -389.993 5.71364 27.8354 
v -390.044 5.73478 27.7652 
v -390.044 5.73478 27.8354 
v -390.044 5.83687 27.8354 
v -390.044 5.83687 27.7652 
v -390.065 5.78583 27.8354 
v -390.065 5.78583 27.7652 
v -390.044 5.73478 27.7652 
v -390.044 5.73478 27.8354 
v -389.993 5.85801 27.8354 
v -389.993 5.85801 27.7652 
v -389.942 5.83687 27.7652 
v -390.044 5.83687 27.8354 
v -389.942 5.83687 27.8354 
v -390.044 5.83687 27.7652 
v -389.942 5.83687 27.7652 
v -389.942 5.83687 27.8354 
v -389.92 5.78583 27.7652 
v -389.92 5.78583 27.8354 
v -389.942 5.73478 27.7652 
v -389.942 5.73478 27.8354 

vn 0 -0.779528 -0.629921 
vn 0.551181 -0.551181 -0.629921 
vn -0.551181 -0.551181 -0.629921 
vn -0.779528 0 -0.629921 
vn -0.551181 0.551181 -0.629921 
vn 0.779528 0 -0.629921 
vn 0 0.779528 -0.629921 
vn 0.551181 0.551181 -0.629921 
vn -0.708661 0.708661 0 
vn -0.551181 0.551181 -0.629921 
vn 0 1 0 
vn 0 0.779528 -0.629921 
vn 0.708661 0.708661 0 
vn 0.551181 0.551181 -0.629921 
vn 0.551181 -0.551181 -0.629921 
vn 0.708661 -0.708661 0 
vn 0.779528 0 -0.629921 
vn 1 0 0 
vn 0.708661 0.708661 0 
vn 0.551181 0.551181 -0.629921 
vn 0 -0.779528 -0.629921 
vn 0 -1 0 
vn -0.708661 -0.708661 0 
vn 0.551181 -0.551181 -0.629921 
vn -0.551181 -0.551181 -0.629921 
vn 0.708661 -0.708661 0 
vn -0.708661 -0.708661 0 
vn -0.551181 -0.551181 -0.629921 
vn -1 0 0 
vn -0.779528 0 -0.629921 
vn -0.708661 0.708661 0 
vn -0.551181 0.551181 -0.629921 

vt 6 -10.991 
vt 6.00638 -10.9936 
vt 5.99362 -10.9936 
vt 5.99098 -11 
vt 5.99362 -11.0064 
vt 6.00902 -11 
vt 6 -11.009 
vt 6.00638 -11.0064 
vt 5.99562 -10.9936 
vt 6.00438 -10.9936 
vt 5.99562 -11 
vt 6.00438 -11 
vt 5.99562 -11.0064 
vt 6.00438 -11.0064 
vt 5.99562 -10.9936 
vt 6.00438 -10.9936 
vt 5.99562 -11 
vt 6.00438 -11 
vt 6.00438 -11.0064 
vt 5.99562 -11.0064 
vt 5.99562 -11 
vt 6.00438 -11 
vt 6.00438 -10.9936 
vt 5.99562 -11.0064 
vt 5.99562 -10.9936 
vt 6.00438 -11.0064 
vt 5.99562 -10.9936 
vt 6.00438 -10.9936 
vt 5.99562 -11 
vt 6.00438 -11 
vt 5.99562 -11.0064 
vt 6.00438 -11.0064 

usemtl Meshpart3Mtl

f 193/193/193 192/192/192 191/191/191 
f 195/195/195 193/193/193 194/194/194 
f 195/195/195 192/192/192 193/193/193 
f 195/195/195 198/198/198 192/192/192 
f 192/192/192 198/198/198 196/196/196 
f 198/198/198 195/195/195 197/197/197 
f 201/201/201 200/200/200 199/199/199 
f 202/202/202 200/200/200 201/201/201 
f 203/203/203 202/202/202 201/201/201 
f 204/204/204 202/202/202 203/203/203 
f 207/207/207 206/206/206 205/205/205 
f 207/207/207 208/208/208 206/206/206 
f 210/210/210 208/208/208 207/207/207 
f 210/210/210 209/209/209 208/208/208 
f 211/211/211 212/212/212 213/213/213 
f 214/214/214 212/212/212 211/211/211 
f 211/211/211 213/213/213 215/215/215 
f 214/214/214 216/216/216 212/212/212 
f 218/218/218 217/217/217 219/219/219 
f 218/218/218 219/219/219 220/220/220 
f 220/220/220 219/219/219 221/221/221 
f 220/220/220 221/221/221 222/222/222 

g Meshpart4

v -389.942 5.73478 27.7652 
v -389.993 5.67544 27.7652 
v -389.993 5.71364 27.7652 
v -390.044 5.73478 27.7652 
v -389.915 5.70777 27.7652 
v -390.071 5.70777 27.7652 
v -389.92 5.78583 27.7652 
v -390.065 5.78583 27.7652 
v -389.882 5.78583 27.7652 
v -390.103 5.78583 27.7652 
v -389.915 5.86389 27.7652 
v -390.071 5.86389 27.7652 
v -389.942 5.83687 27.7652 
v -390.044 5.83687 27.7652 
v -389.993 5.89622 27.7652 
v -389.993 5.85801 27.7652 
v -389.915 5.86389 27.7652 
v -389.861 5.78583 27.7935 
v -389.882 5.78583 27.7652 
v -389.9 5.87877 27.7935 
v -389.993 5.91727 27.7935 
v -389.993 5.89622 27.7652 
v -390.071 5.86389 27.7652 
v -390.086 5.87877 27.7935 
v -390.124 5.78583 27.7935 
v -390.103 5.78583 27.7652 
v -390.086 5.87877 27.7935 
v -390.086 5.87877 28.6167 
v -390.124 5.78583 27.7935 
v -389.993 5.91727 27.7935 
v -389.993 5.91727 28.6167 
v -389.9 5.87877 27.7935 
v -389.9 5.87877 28.6167 
v -389.915 5.86389 27.7652 
v -389.861 5.78583 27.7935 
v -389.882 5.78583 27.7652 
v -389.915 5.70777 27.7652 
v -389.9 5.87877 27.7935 
v -389.9 5.69288 27.7935 
v -389.9 5.87877 27.7935 
v -389.9 5.87877 28.6167 
v -389.861 5.78583 27.7935 
v -389.9 5.69288 28.6167 
v -389.861 5.78583 28.6167 
v -389.9 5.69288 27.7935 
v -389.993 5.91727 28.6167 
v -389.861 5.78583 28.6167 
v -389.9 5.87877 28.6167 
v -389.993 5.65439 28.6167 
v -389.9 5.69288 28.6167 
v -390.124 5.78583 28.6167 
v -390.086 5.69288 28.6167 
v -390.086 5.87877 28.6167 
v -389.861 5.78583 27.7935 
v -389.882 5.78583 27.7652 
v -389.915 5.70777 27.7652 
v -389.9 5.69288 27.7935 
v -389.993 5.65439 27.7935 
v -389.993 5.67544 27.7652 
v -390.071 5.70777 27.7652 
v -390.086 5.69288 27.7935 
v -390.124 5.78583 27.7935 
v -390.103 5.78583 27.7652 
v -390.124 5.78583 27.7935 
v -390.086 5.69288 28.6167 
v -390.086 5.69288 27.7935 
v -389.993 5.65439 28.6167 
v -389.993 5.65439 27.7935 
v -389.861 5.78583 27.7935 
v -389.9 5.69288 28.6167 
v -389.9 5.69288 27.7935 
v -389.993 5.91727 27.7935 
v -389.993 5.89622 27.7652 
v -390.071 5.86389 27.7652 
v -390.071 5.70777 27.7652 
v -390.086 5.87877 27.7935 
v -390.086 5.69288 27.7935 
v -390.124 5.78583 27.7935 
v -390.103 5.78583 27.7652 
v -390.086 5.87877 27.7935 
v -390.124 5.78583 28.6167 
v -390.086 5.87877 28.6167 
v -390.124 5.78583 27.7935 
v -390.086 5.69288 28.6167 
v -390.086 5.69288 27.7935 

vn 0 0 -1 
vn 0 0 -1 
vn 0 0 -1 
vn 0 0 -1 
vn 0 0 -1 
vn 0 0 -1 
vn 0 0 -1 
vn 0 0 -1 
vn 0 0 -1 
vn 0 0 -1 
vn 0 0 -1 
vn 0 0 -1 
vn 0 0 -1 
vn 0 0 -1 
vn 0 0 -1 
vn 0 0 -1 
vn 0.590551 0.543307 -0.598425 
vn 0.80315 0 -0.598425 
vn 0.80315 0 -0.598425 
vn 0.527559 0.606299 -0.598425 
vn 0 0.80315 -0.598425 
vn 0 0.80315 -0.598425 
vn -0.590551 0.543307 -0.598425 
vn -0.527559 0.606299 -0.598425 
vn -0.80315 0 -0.598425 
vn -0.80315 0 -0.598425 
vn -0.685039 0.732283 0 
vn -0.685039 0.732283 0 
vn -1 0 0 
vn 0 1 0 
vn 0 1 0 
vn 0.685039 0.732283 0 
vn 0.685039 0.732283 0 
vn 0.590551 0.543307 -0.598425 
vn 0.80315 0 -0.598425 
vn 0.80315 0 -0.598425 
vn 0.590551 -0.543307 -0.598425 
vn 0.527559 0.606299 -0.598425 
vn 0.527559 -0.606299 -0.598425 
vn 0.685039 0.732283 0 
vn 0.685039 0.732283 0 
vn 1 0 0 
vn 0.685039 -0.732283 0 
vn 1 0 0 
vn 0.685039 -0.732283 0 
vn 0 0 1 
vn 0 0 1 
vn 0 0 1 
vn 0 0 1 
vn 0 0 1 
vn 0 0 1 
vn 0 0 1 
vn 0 0 1 
vn 0.80315 0 -0.598425 
vn 0.80315 0 -0.598425 
vn 0.590551 -0.543307 -0.598425 
vn 0.527559 -0.606299 -0.598425 
vn 0 -0.80315 -0.598425 
vn 0 -0.80315 -0.598425 
vn -0.590551 -0.543307 -0.598425 
vn -0.527559 -0.606299 -0.598425 
vn -0.80315 0 -0.598425 
vn -0.80315 0 -0.598425 
vn -1 0 0 
vn -0.685039 -0.732283 0 
vn -0.685039 -0.732283 0 
vn 0 -1 0 
vn 0 -1 0 
vn 1 0 0 
vn 0.685039 -0.732283 0 
vn 0.685039 -0.732283 0 
vn 0 0.80315 -0.598425 
vn 0 0.80315 -0.598425 
vn -0.590551 0.543307 -0.598425 
vn -0.590551 -0.543307 -0.598425 
vn -0.527559 0.606299 -0.598425 
vn -0.527559 -0.606299 -0.598425 
vn -0.80315 0 -0.598425 
vn -0.80315 0 -0.598425 
vn -0.685039 0.732283 0 
vn -1 0 0 
vn -0.685039 0.732283 0 
vn -1 0 0 
vn -0.685039 -0.732283 0 
vn -0.685039 -0.732283 0 

vt 11.9936 -37.0064 
vt 12 -37.0138 
vt 12 -37.009 
vt 12.0064 -37.0064 
vt 11.9902 -37.0098 
vt 12.0098 -37.0098 
vt 11.991 -37 
vt 12.009 -37 
vt 11.9862 -37 
vt 12.0138 -37 
vt 11.9902 -36.9902 
vt 12.0098 -36.9902 
vt 11.9936 -36.9936 
vt 12.0064 -36.9936 
vt 12 -36.9862 
vt 12 -36.991 
vt 11.9468 -36.9902 
vt 11.9503 -36.9836 
vt 11.9468 -36.9862 
vt 11.9503 -36.9884 
vt 11.9503 -37 
vt 11.9468 -37 
vt 11.9468 -37.0098 
vt 11.9503 -37.0116 
vt 11.9503 -37.0164 
vt 11.9468 -37.0138 
vt 11.9503 -37.0116 
vt 12.0532 -37.0116 
vt 11.9503 -37.0164 
vt 11.9503 -37 
vt 12.0532 -37 
vt 11.9503 -36.9884 
vt 12.0532 -36.9884 
vt 12.0532 -36.9902 
vt 12.0497 -37 
vt 12.0532 -37 
vt 12.0532 -37.0098 
vt 12.0497 -36.9884 
vt 12.0497 -37.0116 
vt 12.0497 -36.9884 
vt 11.9468 -36.9884 
vt 12.0497 -37 
vt 11.9468 -37.0116 
vt 11.9468 -37 
vt 12.0497 -37.0116 
vt 12 -36.9836 
vt 12.0164 -37 
vt 12.0116 -36.9884 
vt 12 -37.0164 
vt 12.0116 -37.0116 
vt 11.9836 -37 
vt 11.9884 -37.0116 
vt 11.9884 -36.9884 
vt 12.0497 -36.9836 
vt 12.0532 -36.9862 
vt 12.0532 -36.9902 
vt 12.0497 -36.9884 
vt 12.0497 -37 
vt 12.0532 -37 
vt 12.0532 -37.0098 
vt 12.0497 -37.0116 
vt 12.0497 -37.0164 
vt 12.0532 -37.0138 
vt 12.0497 -37.0164 
vt 11.9468 -37.0116 
vt 12.0497 -37.0116 
vt 11.9468 -37 
vt 12.0497 -37 
vt 12.0497 -36.9836 
vt 11.9468 -36.9884 
vt 12.0497 -36.9884 
vt 11.9503 -36.9836 
vt 11.9468 -36.9862 
vt 11.9468 -36.9902 
vt 11.9468 -37.0098 
vt 11.9503 -36.9884 
vt 11.9503 -37.0116 
vt 11.9503 -37 
vt 11.9468 -37 
vt 11.9503 -36.9884 
vt 12.0532 -37 
vt 12.0532 -36.9884 
vt 11.9503 -37 
vt 12.0532 -37.0116 
vt 11.9503 -37.0116 

usemtl Meshpart1Mtl

f 223/223/223 224/224/224 225/225/225 
f 224/224/224 226/226/226 225/225/225 
f 227/227/227 224/224/224 223/223/223 
f 226/226/226 224/224/224 228/228/228 
f 229/229/229 227/227/227 223/223/223 
f 228/228/228 230/230/230 226/226/226 
f 227/227/227 229/229/229 231/231/231 
f 230/230/230 228/228/228 232/232/232 
f 229/229/229 233/233/233 231/231/231 
f 232/232/232 234/234/234 230/230/230 
f 233/233/233 229/229/229 235/235/235 
f 230/230/230 234/234/234 236/236/236 
f 235/235/235 237/237/237 233/233/233 
f 237/237/237 236/236/236 234/234/234 
f 237/237/237 235/235/235 238/238/238 
f 236/236/236 237/237/237 238/238/238 
f 239/239/239 243/243/243 242/242/242 
f 243/243/243 239/239/239 244/244/244 
f 245/245/245 243/243/243 244/244/244 
f 246/246/246 243/243/243 245/245/245 
f 249/249/249 250/250/250 252/252/252 
f 253/253/253 252/252/252 250/250/250 
f 252/252/252 253/253/253 254/254/254 
f 255/255/255 254/254/254 253/253/253 
f 256/256/256 257/257/257 258/258/258 
f 257/257/257 259/259/259 258/258/258 
f 260/260/260 257/257/257 256/256/256 
f 259/259/259 257/257/257 261/261/261 
f 263/263/263 264/264/264 262/262/262 
f 264/264/264 263/263/263 266/266/266 
f 266/266/266 267/267/267 264/264/264 
f 267/267/267 266/266/266 265/265/265 
f 268/268/268 269/269/269 270/270/270 
f 271/271/271 269/269/269 268/268/268 
f 269/269/269 271/271/271 272/272/272 
f 268/268/268 273/273/273 271/271/271 
f 271/271/271 273/273/273 274/274/274 
f 273/273/273 268/268/268 275/275/275 
f 279/279/279 280/280/280 278/278/278 
f 281/281/281 278/278/278 280/280/280 
f 280/280/280 282/282/282 281/281/281 
f 282/282/282 280/280/280 283/283/283 
f 288/288/288 289/289/289 287/287/287 
f 289/289/289 288/288/288 290/290/290 
f 290/290/290 292/292/292 289/289/289 
f 292/292/292 290/290/290 293/293/293 
f 296/296/296 300/300/300 298/298/298 
f 299/299/299 300/300/300 297/297/297 
f 300/300/300 296/296/296 301/301/301 
f 301/301/301 297/297/297 300/300/300 
f 302/302/302 303/303/303 304/304/304 
f 303/303/303 302/302/302 305/305/305 
f 305/305/305 306/306/306 303/303/303 
f 306/306/306 305/305/305 307/307/307 

g Meshpart5

v -390.297 5.57066 28.3962 
v -390.262 5.58268 28.4021 
v -390.295 5.56892 28.3904 
v -390.262 5.58268 28.3903 
v -390.312 5.53586 28.3962 
v -390.262 5.57676 28.3881 
v -390.291 5.56478 28.3881 
v -390.263 5.57106 28.3906 
v -390.309 5.53586 28.3904 
v -390.287 5.56079 28.3906 
v -390.286 5.55919 28.3962 
v -390.263 5.56869 28.3962 
v -390.303 5.53586 28.3881 
v -390.298 5.53586 28.3906 
v -390.295 5.53586 28.3962 
v -390.286 5.51253 28.3962 
v -390.287 5.51093 28.3906 
v -390.291 5.50694 28.3881 
v -390.263 5.50065 28.3906 
v -390.263 5.50303 28.3962 
v -390.262 5.49496 28.3881 
v -390.295 5.5028 28.3904 
v -390.262 5.48904 28.3903 
v -390.295 5.56892 28.4021 
v -390.262 5.58524 28.3962 
v -390.297 5.57066 28.3962 
v -390.262 5.58268 28.4021 
v -390.295 5.56892 28.3904 
v -390.262 5.58268 28.3903 
v -390.263 5.57106 28.3906 
v -390.286 5.51253 28.3962 
v -390.287 5.51093 28.3906 
v -390.291 5.50694 28.3881 
v -390.263 5.50065 28.3906 
v -390.263 5.50303 28.3962 
v -390.263 5.50065 28.4019 
v -390.262 5.48904 28.3903 
v -390.291 5.50694 28.4044 
v -390.287 5.51093 28.4019 
v -390.291 5.56478 28.4044 
v -390.287 5.56079 28.4019 
v -390.291 5.56478 28.3881 
v -390.287 5.56079 28.3906 
v -390.286 5.55919 28.3962 
v -390.303 5.53586 28.3881 
v -390.298 5.53586 28.3906 
v -390.295 5.53586 28.3962 
v -390.298 5.53586 28.4019 
v -390.286 5.51253 28.3962 
v -390.287 5.51093 28.3906 
v -390.291 5.50694 28.3881 
v -390.291 5.50694 28.4044 
v -390.303 5.53586 28.4044 
v -390.287 5.51093 28.4019 
v -390.295 5.56892 28.4021 
v -390.297 5.57066 28.3962 
v -390.262 5.58268 28.4021 
v -390.262 5.57676 28.4044 
v -390.312 5.53586 28.3962 
v -390.291 5.56478 28.4044 
v -390.263 5.57106 28.4019 
v -390.309 5.53586 28.4021 
v -390.287 5.56079 28.4019 
v -390.286 5.55919 28.3962 
v -390.263 5.56869 28.3962 
v -390.295 5.53586 28.3962 
v -390.298 5.53586 28.4019 
v -390.286 5.51253 28.3962 
v -390.263 5.50303 28.3962 
v -390.263 5.50065 28.4019 
v -390.262 5.48904 28.3903 
v -390.297 5.50106 28.3962 
v -390.295 5.5028 28.4021 
v -390.262 5.48904 28.4021 
v -390.262 5.49496 28.4044 
v -390.291 5.50694 28.4044 
v -390.303 5.53586 28.4044 
v -390.287 5.51093 28.4019 
v -390.262 5.58268 28.4021 
v -390.291 5.56478 28.4044 
v -390.263 5.57106 28.4019 
v -390.287 5.56079 28.4019 
v -390.291 5.56478 28.3881 
v -390.263 5.57106 28.3906 
v -390.287 5.56079 28.3906 
v -390.286 5.55919 28.3962 
v -390.263 5.56869 28.3962 
v -390.263 5.50065 28.4019 
v -390.295 5.5028 28.3904 
v -390.262 5.48904 28.3903 
v -390.262 5.48648 28.3962 
v -390.297 5.50106 28.3962 
v -390.295 5.5028 28.4021 
v -390.262 5.48904 28.4021 
v -390.295 5.56892 28.4021 
v -390.297 5.57066 28.3962 
v -390.295 5.56892 28.3904 
v -390.312 5.53586 28.3962 
v -390.309 5.53586 28.4021 
v -390.309 5.53586 28.3904 
v -390.295 5.5028 28.3904 
v -390.297 5.50106 28.3962 
v -390.295 5.5028 28.4021 

vn -0.708661 0.708661 0 
vn -0.299213 0.716535 0.629921 
vn -0.519685 0.527559 -0.669291 
vn -0.299213 0.716535 -0.629921 
vn -1 0 0 
vn -0.0393701 0.102362 -0.992126 
vn -0.0551181 0.0551181 -1 
vn 0.267717 -0.629921 -0.724409 
vn -0.740157 0 -0.669291 
vn 0.472441 -0.472441 -0.740157 
vn 0.708661 -0.700787 0 
vn 0.385827 -0.92126 0 
vn -0.0708661 0 -1 
vn 0.669291 0 -0.748031 
vn 1 0 0 
vn 0.708661 0.708661 0 
vn 0.472441 0.472441 -0.740157 
vn -0.0551181 -0.0551181 -1 
vn 0.267717 0.629921 -0.732283 
vn 0.385827 0.92126 0 
vn -0.0393701 -0.102362 -0.992126 
vn -0.519685 -0.527559 -0.669291 
vn -0.299213 -0.716535 -0.629921 
vn -0.519685 0.527559 0.669291 
vn -0.377953 0.929134 0 
vn -0.708661 0.708661 0 
vn -0.299213 0.716535 0.629921 
vn -0.519685 0.527559 -0.669291 
vn -0.299213 0.716535 -0.629921 
vn 0.267717 -0.629921 -0.724409 
vn 0.708661 0.708661 0 
vn 0.472441 0.472441 -0.740157 
vn -0.0551181 -0.0551181 -1 
vn 0.267717 0.629921 -0.732283 
vn 0.385827 0.92126 0 
vn 0.267717 0.629921 0.732283 
vn -0.299213 -0.716535 -0.629921 
vn -0.0551181 -0.0551181 1 
vn 0.472441 0.472441 0.740157 
vn -0.0551181 0.0551181 1 
vn 0.472441 -0.472441 0.740157 
vn -0.0551181 0.0551181 -1 
vn 0.472441 -0.472441 -0.740157 
vn 0.708661 -0.700787 0 
vn -0.0708661 0 -1 
vn 0.669291 0 -0.748031 
vn 1 0 0 
vn 0.669291 0 0.748031 
vn 0.708661 0.708661 0 
vn 0.472441 0.472441 -0.740157 
vn -0.0551181 -0.0551181 -1 
vn -0.0551181 -0.0551181 1 
vn -0.0708661 0 1 
vn 0.472441 0.472441 0.740157 
vn -0.519685 0.527559 0.669291 
vn -0.708661 0.708661 0 
vn -0.299213 0.716535 0.629921 
vn -0.0393701 0.102362 0.992126 
vn -1 0 0 
vn -0.0551181 0.0551181 1 
vn 0.267717 -0.629921 0.732283 
vn -0.740157 0 0.669291 
vn 0.472441 -0.472441 0.740157 
vn 0.708661 -0.700787 0 
vn 0.385827 -0.92126 0 
vn 1 0 0 
vn 0.669291 0 0.748031 
vn 0.708661 0.708661 0 
vn 0.385827 0.92126 0 
vn 0.267717 0.629921 0.732283 
vn -0.299213 -0.716535 -0.629921 
vn -0.708661 -0.708661 0 
vn -0.519685 -0.527559 0.669291 
vn -0.299213 -0.716535 0.629921 
vn -0.0393701 -0.102362 0.992126 
vn -0.0551181 -0.0551181 1 
vn -0.0708661 0 1 
vn 0.472441 0.472441 0.740157 
vn -0.299213 0.716535 0.629921 
vn -0.0551181 0.0551181 1 
vn 0.267717 -0.629921 0.732283 
vn 0.472441 -0.472441 0.740157 
vn -0.0551181 0.0551181 -1 
vn 0.267717 -0.629921 -0.724409 
vn 0.472441 -0.472441 -0.740157 
vn 0.708661 -0.700787 0 
vn 0.385827 -0.92126 0 
vn 0.267717 0.629921 0.732283 
vn -0.519685 -0.527559 -0.669291 
vn -0.299213 -0.716535 -0.629921 
vn -0.377953 -0.929134 0 
vn -0.708661 -0.708661 0 
vn -0.519685 -0.527559 0.669291 
vn -0.299213 -0.716535 0.629921 
vn -0.519685 0.527559 0.669291 
vn -0.708661 0.708661 0 
vn -0.519685 0.527559 -0.669291 
vn -1 0 0 
vn -0.740157 0 0.669291 
vn -0.740157 0 -0.669291 
vn -0.519685 -0.527559 -0.669291 
vn -0.708661 -0.708661 0 
vn -0.519685 -0.527559 0.669291 

vt 44.0013 -48.9957 
vt 43.9969 -48.9941 
vt 44.0011 -48.9959 
vt 43.9969 -48.9941 
vt 44.0031 -49 
vt 43.997 -48.9949 
vt 44.0006 -48.9964 
vt 43.997 -48.9956 
vt 44.0028 -49 
vt 44.0001 -48.9969 
vt 43.9999 -48.9971 
vt 43.9971 -48.9959 
vt 44.0021 -49 
vt 44.0014 -49 
vt 44.0011 -49 
vt 43.9999 -49.0029 
vt 44.0001 -49.0031 
vt 44.0006 -49.0036 
vt 43.997 -49.0044 
vt 43.9971 -49.0041 
vt 43.997 -49.0051 
vt 44.0011 -49.0041 
vt 43.9969 -49.0059 
vt 44.0007 -49.0011 
vt 44 -48.9969 
vt 44 -49.0013 
vt 44.0007 -48.9969 
vt 43.9993 -49.0011 
vt 43.9993 -48.9969 
vt 43.9993 -48.997 
vt 44 -48.9999 
vt 43.9993 -49.0001 
vt 43.999 -49.0006 
vt 43.9993 -48.997 
vt 44 -48.9971 
vt 44.0007 -48.997 
vt 43.9993 -48.9969 
vt 44.001 -49.0006 
vt 44.0007 -49.0001 
vt 43.999 -48.9964 
vt 43.9993 -48.9969 
vt 44.001 -48.9964 
vt 44.0007 -48.9969 
vt 44 -48.9971 
vt 44.001 -49 
vt 44.0007 -49 
vt 44 -49 
vt 43.9993 -49 
vt 44 -49.0029 
vt 44.0007 -49.0031 
vt 44.001 -49.0036 
vt 43.999 -49.0036 
vt 43.999 -49 
vt 43.9993 -49.0031 
vt 43.9989 -48.9959 
vt 43.9987 -48.9957 
vt 44.0031 -48.9941 
vt 44.003 -48.9949 
vt 43.9969 -49 
vt 43.9994 -48.9964 
vt 44.003 -48.9956 
vt 43.9972 -49 
vt 43.9999 -48.9969 
vt 44.0001 -48.9971 
vt 44.0029 -48.9959 
vt 43.9989 -49 
vt 43.9986 -49 
vt 44.0001 -49.0029 
vt 44.0029 -49.0041 
vt 44.003 -49.0044 
vt 44.0031 -49.0059 
vt 43.9987 -49.0043 
vt 43.9989 -49.0041 
vt 44.0031 -49.0059 
vt 44.003 -49.0051 
vt 43.9994 -49.0036 
vt 43.9979 -49 
vt 43.9999 -49.0031 
vt 43.9993 -48.9969 
vt 43.999 -49.0006 
vt 43.9993 -48.997 
vt 43.9993 -49.0001 
vt 44.001 -49.0006 
vt 44.0007 -48.997 
vt 44.0007 -49.0001 
vt 44 -48.9999 
vt 44 -48.9971 
vt 43.9993 -48.997 
vt 44.0007 -49.0011 
vt 44.0007 -48.9969 
vt 44 -48.9969 
vt 44 -49.0013 
vt 43.9993 -49.0011 
vt 43.9993 -48.9969 
vt 44.0007 -48.9959 
vt 44 -48.9957 
vt 43.9993 -48.9959 
vt 44 -49 
vt 44.0007 -49 
vt 43.9993 -49 
vt 43.9993 -49.0041 
vt 44 -49.0043 
vt 44.0007 -49.0041 

usemtl Meshpart1Mtl

f 313/313/313 310/310/310 311/311/311 
f 310/310/310 313/313/313 314/314/314 
f 315/315/315 314/314/314 313/313/313 
f 316/316/316 310/310/310 314/314/314 
f 314/314/314 315/315/315 317/317/317 
f 320/320/320 314/314/314 317/317/317 
f 316/316/316 314/314/314 320/320/320 
f 320/320/320 317/317/317 321/321/321 
f 324/324/324 320/320/320 321/321/321 
f 325/325/325 316/316/316 320/320/320 
f 320/320/320 324/324/324 325/325/325 
f 326/326/326 325/325/325 324/324/324 
f 325/325/325 326/326/326 328/328/328 
f 316/316/316 325/325/325 329/329/329 
f 328/328/328 329/329/329 325/325/325 
f 329/329/329 328/328/328 330/330/330 
f 331/331/331 332/332/332 333/333/333 
f 332/332/332 331/331/331 334/334/334 
f 332/332/332 335/335/335 333/333/333 
f 335/335/335 332/332/332 336/336/336 
f 341/341/341 339/339/339 338/338/338 
f 338/338/338 342/342/342 341/341/341 
f 338/338/338 343/343/343 342/342/342 
f 343/343/343 338/338/338 346/346/346 
f 351/351/351 353/353/353 350/350/350 
f 353/353/353 351/351/351 354/354/354 
f 355/355/355 351/351/351 348/348/348 
f 351/351/351 355/355/355 354/354/354 
f 356/356/356 353/353/353 354/354/354 
f 355/355/355 356/356/356 354/354/354 
f 353/353/353 356/356/356 357/357/357 
f 356/356/356 355/355/355 361/361/361 
f 362/362/362 365/365/365 364/364/364 
f 365/365/365 362/362/362 367/367/367 
f 367/367/367 368/368/368 365/365/365 
f 369/369/369 367/367/367 362/362/362 
f 368/368/368 367/367/367 370/370/370 
f 380/380/380 381/381/381 382/382/382 
f 380/380/380 382/382/382 383/383/383 
f 383/383/383 369/369/369 380/380/380 
f 383/383/383 382/382/382 377/377/377 
f 369/369/369 383/383/383 384/384/384 
f 367/367/367 369/369/369 384/384/384 
f 384/384/384 370/370/370 367/367/367 
f 370/370/370 384/384/384 374/374/374 
f 385/385/385 384/384/384 383/383/383 
f 383/383/383 377/377/377 385/385/385 
f 384/384/384 385/385/385 374/374/374 
f 393/393/393 388/388/388 389/389/389 
f 391/391/391 393/393/393 392/392/392 
f 388/388/388 393/393/393 394/394/394 
f 393/393/393 391/391/391 394/394/394 
f 396/396/396 397/397/397 398/398/398 
f 398/398/398 399/399/399 396/396/396 
f 398/398/398 400/400/400 399/399/399 
f 400/400/400 398/398/398 401/401/401 
f 405/405/405 402/402/402 403/403/403 
f 405/405/405 403/403/403 404/404/404 
f 402/402/402 405/405/405 406/406/406 
f 404/404/404 407/407/407 405/405/405 
f 408/408/408 405/405/405 407/407/407 
f 405/405/405 408/408/408 409/409/409 
f 405/405/405 409/409/409 410/410/410 
f 410/410/410 406/406/406 405/405/405 

g Meshpart6

v -390.235 5.58346 28.3486 
v -390.235 5.48826 28.3486 
v -390.215 5.58628 28.3458 
v -390.215 5.48544 28.3458 
v -390.215 5.53586 28.3249 
v -390.235 5.53586 28.3289 
v -390.235 5.58346 28.4438 
v -390.215 5.58628 28.4467 
v -390.215 5.60717 28.3962 
v -390.235 5.60318 28.3962 
v -390.235 5.58346 28.3486 
v -390.215 5.58628 28.3458 
v -390.235 5.58346 28.4438 
v -390.235 5.53586 28.4636 
v -390.215 5.53586 28.4675 
v -390.235 5.48826 28.4438 
v -390.215 5.58628 28.4467 
v -390.215 5.48544 28.4467 
v -390.235 5.48826 28.4438 
v -390.215 5.48544 28.4467 
v -390.215 5.46455 28.3962 
v -390.235 5.46854 28.3962 
v -390.235 5.48826 28.3486 
v -390.215 5.48544 28.3458 

vn -0.19685 0.692913 -0.692913 
vn -0.19685 -0.692913 -0.692913 
vn -0.19685 0.692913 -0.692913 
vn -0.19685 -0.692913 -0.692913 
vn -0.19685 0 -0.976378 
vn -0.19685 0 -0.976378 
vn -0.19685 0.692913 0.692913 
vn -0.19685 0.692913 0.692913 
vn -0.19685 0.976378 0 
vn -0.19685 0.976378 0 
vn -0.19685 0.692913 -0.692913 
vn -0.19685 0.692913 -0.692913 
vn -0.19685 0.692913 0.692913 
vn -0.19685 0 0.976378 
vn -0.19685 0 0.976378 
vn -0.19685 -0.692913 0.692913 
vn -0.19685 0.692913 0.692913 
vn -0.19685 -0.692913 0.692913 
vn -0.19685 -0.692913 0.692913 
vn -0.19685 -0.692913 0.692913 
vn -0.19685 -0.976378 0 
vn -0.19685 -0.976378 0 
vn -0.19685 -0.692913 -0.692913 
vn -0.19685 -0.692913 -0.692913 

vt 4.00122 -16.994 
vt 4.00122 -17.006 
vt 3.99878 -16.9937 
vt 3.99878 -17.0063 
vt 3.99878 -17 
vt 4.00122 -17 
vt 4.00595 -17.0012 
vt 4.0063 -16.9988 
vt 4 -16.9988 
vt 4 -17.0012 
vt 3.99405 -17.0012 
vt 3.9937 -16.9988 
vt 3.99878 -16.994 
vt 3.99878 -17 
vt 4.00122 -17 
vt 3.99878 -17.006 
vt 4.00122 -16.9937 
vt 4.00122 -17.0063 
vt 3.99405 -17.0012 
vt 3.9937 -16.9988 
vt 4 -16.9988 
vt 4 -17.0012 
vt 4.00595 -17.0012 
vt 4.0063 -16.9988 

usemtl Meshpart1Mtl

f 415/415/415 411/411/411 413/413/413 
f 412/412/412 415/415/415 414/414/414 
f 411/411/411 415/415/415 416/416/416 
f 412/412/412 416/416/416 415/415/415 
f 419/419/419 417/417/417 418/418/418 
f 417/417/417 419/419/419 420/420/420 
f 421/421/421 420/420/420 419/419/419 
f 421/421/421 419/419/419 422/422/422 
f 423/423/423 424/424/424 425/425/425 
f 426/426/426 425/425/425 424/424/424 
f 423/423/423 425/425/425 427/427/427 
f 425/425/425 426/426/426 428/428/428 
f 429/429/429 431/431/431 430/430/430 
f 429/429/429 432/432/432 431/431/431 
f 433/433/433 431/431/431 432/432/432 
f 431/431/431 433/433/433 434/434/434 

g Meshpart7

v -390.264 5.49876 28.3591 
v -390.264 5.53586 28.3438 
v -390.234 5.53586 28.3289 
v -390.264 5.57296 28.3591 
v -390.234 5.48826 28.3486 
v -390.234 5.58346 28.3486 
v -390.214 5.58628 28.3458 
v -390.159 5.59188 28.3402 
v -390.159 5.53586 28.317 
v -390.214 5.53586 28.3249 
v -390.214 5.48544 28.3458 
v -390.159 5.47983 28.3402 
v -390.264 5.57296 28.3591 
v -390.234 5.58346 28.3486 
v -390.234 5.60318 28.3962 
v -390.264 5.58833 28.3962 
v -390.264 5.57296 28.4333 
v -390.234 5.58346 28.4438 
v -390.214 5.58628 28.4467 
v -390.159 5.61509 28.3962 
v -390.214 5.60717 28.3962 
v -390.214 5.58628 28.3458 
v -390.159 5.59188 28.4523 
v -390.159 5.59188 28.3402 
v -390.264 5.49876 28.4333 
v -390.264 5.57296 28.4333 
v -390.234 5.48826 28.4438 
v -390.234 5.58346 28.4438 
v -390.234 5.53586 28.4636 
v -390.264 5.53586 28.4487 
v -390.214 5.58628 28.4467 
v -390.159 5.59188 28.4523 
v -390.159 5.53586 28.4755 
v -390.214 5.53586 28.4675 
v -390.214 5.48544 28.4467 
v -390.159 5.47983 28.4523 
v -390.264 5.49876 28.3591 
v -390.234 5.48826 28.3486 
v -390.234 5.46854 28.3962 
v -390.264 5.48339 28.3962 
v -390.264 5.49876 28.4333 
v -390.234 5.48826 28.4438 
v -390.214 5.48544 28.4467 
v -390.214 5.48544 28.3458 
v -390.159 5.47983 28.4523 
v -390.159 5.47983 28.3402 
v -390.159 5.45663 28.3962 
v -390.214 5.46455 28.3962 
v -390.264 5.49876 28.3591 
v -390.264 5.57296 28.4333 
v -390.264 5.57296 28.3591 
v -390.264 5.58833 28.3962 
v -390.264 5.53586 28.3438 
v -390.264 5.49876 28.4333 
v -390.264 5.53586 28.4487 
v -390.264 5.48339 28.3962 

vn -0.440945 -0.629921 -0.629921 
vn -0.440945 0 -0.897638 
vn -0.440945 0 -0.897638 
vn -0.440945 0.629921 -0.629921 
vn -0.440945 -0.629921 -0.629921 
vn -0.440945 0.629921 -0.629921 
vn -0.141732 0.700787 -0.700787 
vn -0.141732 0.700787 -0.700787 
vn -0.141732 0 -0.992126 
vn -0.141732 0 -0.992126 
vn -0.141732 -0.700787 -0.700787 
vn -0.141732 -0.700787 -0.700787 
vn -0.440945 0.629921 -0.629921 
vn -0.440945 0.629921 -0.629921 
vn -0.440945 0.897638 0 
vn -0.440945 0.897638 0 
vn -0.440945 0.629921 0.629921 
vn -0.440945 0.629921 0.629921 
vn -0.141732 0.700787 0.700787 
vn -0.141732 0.992126 0 
vn -0.141732 0.992126 0 
vn -0.141732 0.700787 -0.700787 
vn -0.141732 0.700787 0.700787 
vn -0.141732 0.700787 -0.700787 
vn -0.440945 -0.629921 0.629921 
vn -0.440945 0.629921 0.629921 
vn -0.440945 -0.629921 0.629921 
vn -0.440945 0.629921 0.629921 
vn -0.440945 0 0.897638 
vn -0.440945 0 0.897638 
vn -0.141732 0.700787 0.700787 
vn -0.141732 0.700787 0.700787 
vn -0.141732 0 0.992126 
vn -0.141732 0 0.992126 
vn -0.141732 -0.700787 0.700787 
vn -0.141732 -0.700787 0.700787 
vn -0.440945 -0.629921 -0.629921 
vn -0.440945 -0.629921 -0.629921 
vn -0.440945 -0.897638 0 
vn -0.440945 -0.897638 0 
vn -0.440945 -0.629921 0.629921 
vn -0.440945 -0.629921 0.629921 
vn -0.141732 -0.700787 0.700787 
vn -0.141732 -0.700787 -0.700787 
vn -0.141732 -0.700787 0.700787 
vn -0.141732 -0.700787 -0.700787 
vn -0.141732 -0.992126 0 
vn -0.141732 -0.992126 0 
vn -1 0 0 
vn -1 0 0 
vn -1 0 0 
vn -1 0 0 
vn -1 0 0 
vn -1 0 0 
vn -1 0 0 
vn -1 0 0 

vt 42.0066 0.995362 
vt 42.0066 1 
vt 42.0028 1 
vt 42.0066 1.00464 
vt 42.0028 0.99405 
vt 42.0028 1.00595 
vt 42.0004 1.0063 
vt 41.9934 1.007 
vt 41.9934 1 
vt 42.0004 1 
vt 42.0004 0.993697 
vt 41.9934 0.992997 
vt 41.9954 0.993445 
vt 41.994 0.997189 
vt 42 0.997189 
vt 42 0.993445 
vt 42.0046 0.993445 
vt 42.006 0.997189 
vt 42.0063 0.999622 
vt 42 1.00655 
vt 42 0.999622 
vt 41.9937 0.999622 
vt 42.007 1.00655 
vt 41.993 1.00655 
vt 41.9934 0.995362 
vt 41.9934 1.00464 
vt 41.9972 0.99405 
vt 41.9972 1.00595 
vt 41.9972 1 
vt 41.9934 1 
vt 41.9996 1.0063 
vt 42.0066 1.007 
vt 42.0066 1 
vt 41.9996 1 
vt 41.9996 0.993697 
vt 42.0066 0.992997 
vt 42.0046 0.993445 
vt 42.006 0.997189 
vt 42 0.997189 
vt 42 0.993445 
vt 41.9954 0.993445 
vt 41.994 0.997189 
vt 41.9937 0.999622 
vt 42.0063 0.999622 
vt 41.993 1.00655 
vt 42.007 1.00655 
vt 42 1.00655 
vt 42 0.999622 
vt 41.9954 0.995362 
vt 42.0046 1.00464 
vt 41.9954 1.00464 
vt 42 1.00656 
vt 41.9934 1 
vt 42.0046 0.995362 
vt 42.0066 1 
vt 42 0.993441 

usemtl Meshpart7Mtl

f 435/435/435 436/436/436 437/437/437 
f 438/438/438 437/437/437 436/436/436 
f 437/437/437 439/439/439 435/435/435 
f 437/437/437 438/438/438 440/440/440 
f 443/443/443 441/441/441 442/442/442 
f 441/441/441 443/443/443 444/444/444 
f 443/443/443 445/445/445 444/444/444 
f 445/445/445 443/443/443 446/446/446 
f 449/449/449 448/448/448 447/447/447 
f 447/447/447 450/450/450 449/449/449 
f 451/451/451 449/449/449 450/450/450 
f 449/449/449 451/451/451 452/452/452 
f 453/453/453 454/454/454 455/455/455 
f 454/454/454 456/456/456 455/455/455 
f 454/454/454 453/453/453 457/457/457 
f 456/456/456 454/454/454 458/458/458 
f 463/463/463 459/459/459 461/461/461 
f 463/463/463 462/462/462 460/460/460 
f 459/459/459 463/463/463 464/464/464 
f 460/460/460 464/464/464 463/463/463 
f 465/465/465 467/467/467 466/466/466 
f 467/467/467 465/465/465 468/468/468 
f 469/469/469 467/467/467 468/468/468 
f 467/467/467 469/469/469 470/470/470 
f 473/473/473 471/471/471 472/472/472 
f 471/471/471 473/473/473 474/474/474 
f 475/475/475 474/474/474 473/473/473 
f 473/473/473 476/476/476 475/475/475 
f 477/477/477 481/481/481 479/479/479 
f 481/481/481 478/478/478 480/480/480 
f 481/481/481 477/477/477 482/482/482 
f 478/478/478 481/481/481 482/482/482 
f 483/483/483 484/484/484 485/485/485 
f 485/485/485 484/484/484 486/486/486 
f 483/483/483 485/485/485 487/487/487 
f 483/483/483 488/488/488 484/484/484 
f 484/484/484 488/488/488 489/489/489 
f 488/488/488 483/483/483 490/490/490 

