# Blender 5.2.0 LTS
# www.blender.org
mtllib Bubble HandgunSlide.mtl
o Bubble_Handgun_Slide
v -0.086945 0.038757 -0.142845
v -0.088959 0.099717 -0.119446
v -0.063965 -0.022203 -0.140646
v -0.067963 0.144387 -0.076546
v -0.122955 0.055097 -0.090445
v -0.109955 -0.005863 -0.101046
v -0.104950 -0.038563 -0.044645
v -0.126953 0.067067 -0.026245
v -0.072937 -0.050533 0.011154
v -0.097961 0.071447 0.032354
v 0.012054 0.116077 -0.145145
v -0.042938 0.083387 -0.159046
v -0.088959 0.099717 -0.119446
v -0.067963 0.144387 -0.076546
v -0.126953 0.067067 -0.026245
v -0.029938 0.160738 -0.025646
v 0.062042 0.128047 -0.104845
v -0.097961 0.071447 0.032354
v -0.044952 0.067067 0.069754
v 0.094055 0.116077 -0.049046
v 0.014038 0.144387 0.019554
v 0.100037 0.083387 0.007254
v 0.053040 0.099717 0.046854
v 0.012054 0.116077 -0.145145
v -0.029938 0.022428 -0.169645
v -0.042938 0.083387 -0.159046
v -0.086945 0.038757 -0.142845
v -0.088959 0.099717 -0.119446
v -0.063965 -0.022203 -0.140646
v -0.024963 -0.066863 -0.113245
v 0.034058 0.010458 -0.163546
v 0.062042 0.128047 -0.104845
v 0.087036 0.006077 -0.126146
v 0.062042 0.128047 -0.104845
v 0.087036 0.006077 -0.126146
v 0.116058 0.010458 -0.067446
v 0.057037 -0.066863 -0.017246
v 0.094055 0.116077 -0.049046
v 0.112061 0.022428 -0.003345
v 0.078064 -0.022202 0.025654
v 0.100037 0.083387 0.007254
v 0.077057 0.038757 0.049154
v 0.053040 0.099717 0.046854
v -0.063965 -0.022203 -0.140646
v -0.109955 -0.005863 -0.101046
v -0.024963 -0.066863 -0.113245
v 0.034058 0.010458 -0.163546
v -0.104950 -0.038563 -0.044645
v 0.087036 0.006077 -0.126146
v 0.019043 -0.083213 -0.068146
v -0.072937 -0.050533 0.011154
v -0.022949 -0.038563 0.051355
v 0.116058 0.010458 -0.067446
v 0.057037 -0.066863 -0.017246
v 0.078064 -0.022202 0.025654
v 0.032043 -0.005863 0.065254
v -0.072937 -0.050533 0.011154
v -0.097961 0.071447 0.032354
v -0.044952 0.067067 0.069754
v -0.022949 -0.038563 0.051355
v 0.078064 -0.022202 0.025654
v 0.014038 0.144387 0.019554
v 0.077057 0.038757 0.049154
v 0.032043 -0.005863 0.065254
v 0.053040 0.099717 0.046854
v 0.019043 0.055097 0.075855
v 0.008057 0.272397 -0.973946
v -0.054962 0.155507 -1.008545
v -0.005951 0.272397 -0.973946
v 0.058044 0.155507 -1.008545
v 0.161041 0.160077 -1.080645
v -0.158966 0.090757 -1.132145
v -0.158966 0.160077 -1.080645
v 0.161041 0.090757 -1.132145
v -0.158966 -0.126513 -1.132145
v 0.161041 -0.126513 -1.132145
v 0.161041 -0.206633 -1.132145
v -0.158966 -0.206633 -1.132145
v 0.161041 -0.225993 -1.069046
v -0.158966 -0.225993 -1.069046
v 0.161041 -0.312093 -1.069046
v -0.158966 -0.312093 -1.069046
v 0.161041 -0.381393 -1.069046
v -0.158966 -0.381393 -1.069046
v -0.158966 0.090757 0.590055
v 0.161041 0.090757 0.590055
v -0.158966 0.019958 0.590055
v 0.161041 0.160077 0.590055
v -0.158966 0.160077 0.590055
v 0.161041 0.019958 0.590055
v 0.048035 0.231567 0.634754
v 0.117035 0.231567 0.634754
v 0.048035 0.152707 0.634754
v 0.117035 0.152707 0.634754
v -0.044952 0.152707 0.634754
v 0.048035 0.281007 0.665455
v 0.117035 0.281007 0.665455
v -0.044952 0.231567 0.634754
v -0.113953 0.152707 0.634754
v -0.113953 0.231567 0.634754
v -0.113953 0.281007 0.665455
v -0.044952 0.281007 0.665455
v -0.005951 0.272397 -0.973946
v -0.005951 0.272397 -0.855545
v 0.008057 0.272397 -0.855545
v 0.008057 0.272397 -0.973946
v -0.044952 0.231567 0.634754
v -0.044952 0.231567 0.807154
v 0.048035 0.231567 0.807154
v 0.048035 0.231567 0.634754
v 0.048035 0.293977 0.776354
v 0.117035 0.293977 0.776354
v 0.048035 0.281007 0.665455
v 0.117035 0.281007 0.665455
v -0.113953 0.293977 0.776354
v -0.044952 0.293977 0.776354
v -0.113953 0.281007 0.665455
v -0.044952 0.281007 0.665455
v -0.158966 0.160077 0.590055
v -0.158966 0.160077 0.830055
v 0.161041 0.160077 0.590055
v 0.161041 0.160077 0.830055
v -0.158966 0.160077 -0.449945
v 0.161041 0.160077 -1.080645
v -0.158966 0.160077 -1.080645
v 0.161041 0.160077 -0.449945
v -0.158966 0.019958 0.590055
v 0.161041 0.019958 0.590055
v 0.161041 -0.076013 0.480154
v -0.158966 -0.076013 0.480154
v -0.158966 -0.076013 -0.109945
v 0.161041 -0.076013 -0.109945
v -0.158966 -0.076013 -0.340046
v 0.161041 -0.076013 -0.340046
v 0.161041 0.019958 -0.449945
v -0.158966 0.019958 -0.449945
v 0.161041 0.019958 -0.449945
v 0.161041 -0.126513 -0.309845
v 0.161041 -0.126513 -1.132145
v 0.161041 0.090757 -1.132145
v 0.161041 0.090757 -0.449945
v 0.161041 0.160077 -1.080645
v 0.161041 0.160077 -0.449945
v 0.161041 -0.076013 -0.340046
v 0.161041 -0.076013 -0.109945
v 0.161041 -0.076013 0.480154
v 0.161041 -0.206633 -1.132145
v 0.161041 -0.126512 0.945654
v 0.161041 0.019958 0.590055
v 0.161041 -0.206633 0.935354
v 0.161041 0.090757 0.866055
v 0.161041 -0.206633 -0.309845
v 0.161041 0.090757 0.590055
v 0.161041 0.160077 0.830055
v 0.161041 0.160077 0.590055
v 0.161041 -0.225993 -0.372946
v 0.161041 -0.225993 -1.069046
v 0.161041 -0.312093 -0.413845
v 0.161041 -0.312093 -1.069046
v 0.161041 -0.381393 -0.413845
v 0.161041 -0.381393 -1.069046
v 0.097046 -0.460403 -0.985645
v 0.097046 -0.460403 -0.497246
v 0.117035 0.231567 0.634754
v 0.117035 0.231567 0.807154
v 0.117035 0.152707 0.634754
v 0.117035 0.152707 0.807154
v 0.117035 0.281007 0.665455
v 0.117035 0.293977 0.776354
v 0.058044 0.155508 -0.788746
v 0.058044 0.155507 -1.008545
v 0.008057 0.272397 -0.855545
v 0.008057 0.272397 -0.973946
v -0.044952 0.231567 0.807154
v -0.044952 0.231567 0.634754
v -0.044952 0.281007 0.665455
v -0.044952 0.293977 0.776354
v -0.158966 0.090757 0.866055
v 0.161041 0.090757 0.866055
v -0.158966 0.160077 0.830055
v 0.161041 0.160077 0.830055
v 0.161041 -0.126512 0.945654
v -0.158966 -0.126512 0.945654
v -0.158966 -0.206633 0.935354
v 0.161041 -0.206633 0.935354
v -0.113953 0.231567 0.807154
v -0.113953 0.152707 0.807154
v -0.044952 0.152707 0.807154
v -0.044952 0.231567 0.807154
v 0.048035 0.152707 0.807154
v -0.044952 0.293977 0.776354
v -0.113953 0.293977 0.776354
v 0.048035 0.231567 0.807154
v 0.117035 0.152707 0.807154
v 0.117035 0.231567 0.807154
v 0.117035 0.293977 0.776354
v 0.048035 0.293977 0.776354
v 0.161041 -0.381393 -0.413845
v -0.158966 -0.381393 -0.413845
v 0.161041 -0.312093 -0.413845
v -0.158966 -0.312093 -0.413845
v -0.158966 -0.225993 -0.372946
v 0.161041 -0.225993 -0.372946
v -0.158966 -0.312093 -0.413845
v 0.161041 -0.312093 -0.413845
v 0.161041 0.019958 -0.449945
v -0.158966 0.019958 -0.449945
v -0.158966 0.090757 -0.449945
v 0.161041 0.090757 -0.449945
v 0.161041 0.160077 -0.449945
v -0.158966 0.160077 -0.449945
v -0.054962 0.155508 -0.788746
v 0.008057 0.272397 -0.855545
v -0.005951 0.272397 -0.855545
v 0.058044 0.155508 -0.788746
v 0.161041 -0.206633 -1.132145
v -0.158966 -0.206633 -1.132145
v 0.161041 -0.225993 -1.069046
v -0.158966 -0.225993 -1.069046
v 0.161041 -0.381393 -1.069046
v -0.158966 -0.381393 -1.069046
v 0.097046 -0.460403 -0.985645
v -0.094940 -0.460403 -0.985645
v 0.097046 -0.460403 -0.497246
v -0.094940 -0.460403 -0.497246
v 0.161041 -0.381393 -0.413845
v -0.158966 -0.381393 -0.413845
v -0.158966 -0.206633 0.935354
v -0.158966 -0.206633 -0.309845
v 0.161041 -0.206633 -0.309845
v 0.161041 -0.206633 0.935354
v -0.158966 -0.225993 -0.372946
v 0.161041 -0.225993 -0.372946
v -0.054962 0.155508 -0.788746
v -0.054962 0.155507 -1.008545
v 0.058044 0.155507 -1.008545
v 0.058044 0.155508 -0.788746
v -0.158966 0.160077 0.830055
v -0.158966 0.160077 0.590055
v -0.158966 0.090757 0.590055
v -0.158966 0.090757 0.866055
v -0.158966 0.019958 0.590055
v -0.158966 -0.126512 0.945654
v -0.158966 -0.076013 0.480154
v -0.158966 -0.126513 -0.309845
v -0.158966 -0.206633 0.935354
v -0.158966 -0.076013 -0.109945
v -0.158966 -0.076013 -0.340046
v -0.158966 -0.206633 -0.309845
v -0.158966 0.019958 -0.449945
v -0.158966 -0.126513 -1.132145
v -0.158966 -0.206633 -1.132145
v -0.158966 0.090757 -1.132145
v -0.158966 -0.225993 -0.372946
v -0.158966 0.090757 -0.449945
v -0.158966 0.160077 -1.080645
v -0.158966 0.160077 -0.449945
v -0.158966 -0.225993 -1.069046
v -0.158966 -0.312093 -0.413845
v -0.158966 -0.312093 -1.069046
v -0.158966 -0.381393 -1.069046
v -0.158966 -0.381393 -0.413845
v -0.094940 -0.460403 -0.985645
v -0.094940 -0.460403 -0.497246
v -0.113953 0.231567 0.634754
v -0.113953 0.152707 0.807154
v -0.113953 0.231567 0.807154
v -0.113953 0.152707 0.634754
v -0.113953 0.281007 0.665455
v -0.113953 0.293977 0.776354
v -0.054962 0.155507 -1.008545
v -0.005951 0.272397 -0.855545
v -0.005951 0.272397 -0.973946
v -0.054962 0.155508 -0.788746
v 0.048035 0.231567 0.807154
v 0.048035 0.281007 0.665455
v 0.048035 0.231567 0.634754
v 0.048035 0.293977 0.776354
v -0.167938 -0.227953 -1.073145
v 0.170044 -0.227953 -1.073145
v -0.167938 -0.291863 -1.073145
v 0.170044 -0.291863 -1.073145
v -0.056946 0.258668 0.693554
v -0.123962 0.258668 0.693554
v -0.056946 0.222347 0.678455
v -0.123962 0.222347 0.678455
v -0.056946 0.186028 0.693554
v -0.123962 0.186028 0.693554
v 0.127045 0.258668 0.693554
v 0.060059 0.258668 0.693554
v 0.127045 0.222347 0.678455
v 0.060059 0.222347 0.678455
v 0.127045 0.186028 0.693554
v 0.060059 0.186028 0.693554
v 0.170044 -0.184503 -0.603245
v 0.199036 -0.180273 -0.599045
v 0.199036 -0.259913 -0.566046
v 0.170044 -0.259913 -0.572046
v 0.170044 -0.335313 -0.603245
v 0.199036 -0.339543 -0.599045
v -0.166962 -0.335313 -0.603245
v -0.195953 -0.339543 -0.599045
v -0.195953 -0.259913 -0.566046
v -0.166962 -0.259913 -0.572046
v -0.166962 -0.184503 -0.603245
v -0.195953 -0.180273 -0.599045
v 0.151062 0.136287 0.554655
v 0.181061 0.136287 0.554655
v 0.181061 0.037947 0.554655
v 0.150055 0.037947 0.554655
v -0.177948 0.037947 0.554655
v -0.177948 0.136287 0.554655
v -0.147949 0.136287 0.554655
v -0.146942 0.037947 0.554655
v 0.151062 0.136287 0.554655
v -0.146942 0.037947 0.554655
v 0.150055 0.037947 0.554655
v 0.199036 -0.146143 -0.792446
v -0.195953 -0.146143 -0.792446
v 0.199036 -0.259913 -0.839546
v -0.195953 -0.259913 -0.839546
v 0.199036 -0.373673 -0.792446
v -0.195953 -0.373673 -0.792446
v -0.177948 0.019977 -0.449945
v 0.181061 0.019977 -0.449945
v 0.181061 0.171167 -0.449945
v -0.177948 0.171167 -0.449945
v -0.147949 0.171167 0.558254
v 0.151062 0.136287 0.554655
v -0.147949 0.136287 0.554655
v 0.151062 0.171167 0.558254
v -0.163940 0.122197 0.620554
v 0.166046 0.122197 0.620554
v -0.163940 -0.092873 0.713255
v 0.166046 -0.092873 0.713255
v -0.163940 0.122197 0.734755
v 0.166046 0.122197 0.734755
v -0.163940 -0.092873 0.827454
v 0.166046 -0.092873 0.827454
v -0.056946 0.258668 0.693554
v -0.123962 0.258668 0.693554
v -0.123962 0.273707 0.729855
v -0.056946 0.273707 0.729855
v -0.123962 0.258668 0.766155
v -0.056946 0.258668 0.766155
v 0.127045 0.273707 0.729855
v 0.060059 0.273707 0.729855
v 0.060059 0.258668 0.766155
v 0.127045 0.258668 0.693554
v 0.127045 0.258668 0.766155
v 0.060059 0.258668 0.693554
v -0.177948 0.171167 -0.449945
v -0.177948 0.171167 0.590055
v -0.147949 0.171167 -0.418045
v 0.181061 0.171167 -0.449945
v -0.147949 0.171167 0.558254
v 0.151062 0.171167 -0.418045
v 0.151062 0.171167 0.558254
v 0.181061 0.171167 0.590055
v 0.170044 -0.335313 -0.603245
v 0.170044 -0.335313 -0.754145
v 0.199036 -0.339543 -0.599045
v 0.199036 -0.339543 -0.758345
v 0.199036 -0.372533 -0.678745
v 0.170044 -0.366543 -0.678745
v -0.166962 -0.335313 -0.603245
v -0.195953 -0.372533 -0.678745
v -0.195953 -0.339543 -0.599045
v -0.166962 -0.366543 -0.678745
v -0.166962 -0.335313 -0.754145
v -0.195953 -0.339543 -0.758345
v 0.166046 0.122197 0.674854
v -0.163940 0.136247 0.640255
v -0.163940 0.122197 0.674854
v 0.166046 0.136247 0.640255
v -0.163940 0.122197 0.620554
v 0.166046 0.122197 0.620554
v -0.163940 0.136247 0.754555
v 0.166046 0.136247 0.754555
v -0.163940 0.122197 0.734755
v 0.166046 0.122197 0.734755
v 0.166046 0.122197 0.789154
v -0.163940 0.122197 0.789154
v 0.181061 0.037947 -0.414446
v 0.150055 0.037947 -0.414446
v 0.181061 -0.036113 -0.325045
v 0.150055 -0.036113 -0.325045
v 0.181061 0.037947 0.554655
v 0.150055 -0.036113 0.465254
v 0.150055 0.037947 0.554655
v 0.181061 -0.036113 0.465254
v -0.177948 0.037947 0.554655
v -0.146942 0.037947 0.554655
v -0.177948 -0.036113 0.465254
v -0.146942 -0.036113 0.465254
v -0.146942 -0.036113 -0.325045
v -0.177948 -0.036113 -0.325045
v -0.146942 0.037947 -0.414446
v -0.177948 0.037947 -0.414446
v -0.146942 0.037947 0.554655
v 0.150055 0.037947 0.554655
v 0.150055 -0.036113 0.465254
v -0.146942 -0.036113 0.465254
v 0.150055 -0.036113 -0.325045
v -0.146942 -0.036113 -0.325045
v -0.146942 0.037947 -0.414446
v 0.150055 0.037947 -0.414446
v -0.195953 -0.146143 -0.564945
v 0.199036 -0.099023 -0.678745
v -0.195953 -0.099023 -0.678745
v 0.199036 -0.146143 -0.792446
v 0.199036 -0.146143 -0.564945
v -0.195953 -0.146143 -0.792446
v -0.167938 -0.227953 -1.073145
v -0.167938 -0.227953 -0.803646
v 0.170044 -0.227953 -0.803646
v 0.170044 -0.227953 -1.073145
v 0.199036 -0.373673 -0.564945
v 0.199036 -0.259913 -0.566046
v 0.199036 -0.259913 -0.517845
v 0.199036 -0.146143 -0.564945
v 0.199036 -0.339543 -0.599045
v 0.199036 -0.180273 -0.599045
v 0.199036 -0.420793 -0.678745
v 0.199036 -0.099023 -0.678745
v 0.199036 -0.372533 -0.678745
v 0.199036 -0.147283 -0.678745
v 0.199036 -0.339543 -0.758345
v 0.199036 -0.180273 -0.758345
v 0.199036 -0.373673 -0.792446
v 0.199036 -0.146143 -0.792446
v 0.199036 -0.259913 -0.791346
v 0.199036 -0.259913 -0.839546
v 0.181061 0.171167 0.590055
v 0.181061 0.136287 -0.414446
v 0.181061 0.171167 -0.449945
v 0.181061 0.019977 -0.449945
v 0.181061 0.136287 0.554655
v 0.181061 0.037947 -0.414446
v 0.181061 0.019977 0.590055
v 0.181061 -0.075993 -0.339945
v 0.181061 0.037947 0.554655
v 0.181061 -0.036113 -0.325045
v 0.181061 -0.075993 0.480154
v 0.181061 -0.036113 0.465254
v 0.171051 -0.147293 -0.678745
v 0.171051 -0.180273 -0.599045
v 0.171051 -0.180273 -0.758345
v 0.171051 -0.339543 -0.758345
v 0.171051 -0.259913 -0.791346
v 0.171051 -0.339543 -0.599045
v 0.171051 -0.259913 -0.566046
v 0.171051 -0.372533 -0.678745
v 0.170044 -0.227953 -1.073145
v 0.170044 -0.227953 -0.803646
v 0.170044 -0.291863 -1.073145
v 0.170044 -0.291863 -0.803646
v 0.166046 0.122197 0.674854
v 0.166046 0.122197 0.620554
v 0.166046 0.136247 0.640255
v 0.166046 -0.092873 0.713255
v 0.166046 -0.092873 0.767555
v 0.166046 -0.108403 0.750454
v 0.166046 0.122197 0.789154
v 0.166046 0.122197 0.734755
v 0.166046 0.136247 0.754555
v 0.166046 -0.092873 0.827454
v 0.166046 -0.092873 0.881754
v 0.166046 -0.108403 0.864655
v 0.127045 0.186028 0.693554
v 0.127045 0.186028 0.766155
v 0.127045 0.170977 0.729855
v 0.127045 0.258668 0.693554
v 0.127045 0.222347 0.678455
v 0.127045 0.258668 0.766155
v 0.127045 0.273707 0.729855
v 0.127045 0.222347 0.781254
v -0.056946 0.186028 0.693554
v -0.056946 0.186028 0.766155
v -0.056946 0.170977 0.729855
v -0.056946 0.258668 0.693554
v -0.056946 0.222347 0.678455
v -0.056946 0.258668 0.766155
v -0.056946 0.222347 0.781254
v -0.056946 0.273707 0.729855
v -0.147949 0.136287 0.554655
v -0.147949 0.136287 -0.414446
v -0.147949 0.171167 -0.418045
v -0.147949 0.171167 0.558254
v -0.163940 0.122197 0.789154
v -0.163940 -0.092873 0.881754
v 0.166046 -0.092873 0.881754
v 0.166046 0.122197 0.789154
v -0.163940 0.122197 0.674854
v -0.163940 -0.092873 0.767555
v 0.166046 -0.092873 0.767555
v 0.166046 0.122197 0.674854
v -0.123962 0.258668 0.766155
v -0.056946 0.258668 0.766155
v -0.123962 0.222347 0.781254
v -0.056946 0.222347 0.781254
v -0.123962 0.186028 0.766155
v -0.056946 0.186028 0.766155
v 0.060059 0.258668 0.766155
v 0.127045 0.258668 0.766155
v 0.060059 0.222347 0.781254
v 0.127045 0.222347 0.781254
v 0.060059 0.186028 0.766155
v 0.127045 0.186028 0.766155
v 0.170044 -0.184503 -0.754145
v 0.199036 -0.180273 -0.758345
v 0.199036 -0.259913 -0.791346
v 0.170044 -0.259913 -0.785345
v 0.170044 -0.335313 -0.754145
v 0.199036 -0.339543 -0.758345
v -0.166962 -0.335313 -0.754145
v -0.195953 -0.339543 -0.758345
v -0.195953 -0.259913 -0.791346
v -0.166962 -0.259913 -0.785345
v -0.166962 -0.184503 -0.754145
v -0.195953 -0.180273 -0.758345
v 0.151062 0.136287 -0.414446
v 0.181061 0.037947 -0.414446
v 0.181061 0.136287 -0.414446
v 0.150055 0.037947 -0.414446
v -0.146942 0.037947 -0.414446
v -0.177948 0.037947 -0.414446
v -0.147949 0.136287 -0.414446
v -0.177948 0.136287 -0.414446
v -0.146942 0.037947 -0.414446
v 0.150055 0.037947 -0.414446
v -0.147949 0.136287 -0.414446
v 0.151062 0.136287 -0.414446
v -0.195953 -0.146143 -0.564945
v 0.199036 -0.146143 -0.564945
v -0.195953 -0.259913 -0.517845
v 0.199036 -0.259913 -0.517845
v -0.195953 -0.373673 -0.564945
v 0.199036 -0.373673 -0.564945
v -0.177948 0.019977 0.590055
v 0.181061 0.019977 0.590055
v -0.177948 0.171167 0.590055
v 0.181061 0.171167 0.590055
v 0.151062 0.136287 -0.414446
v -0.147949 0.171167 -0.418045
v -0.147949 0.136287 -0.414446
v 0.151062 0.171167 -0.418045
v -0.167938 -0.291863 -0.803646
v 0.170044 -0.291863 -0.803646
v -0.167938 -0.227953 -0.803646
v 0.170044 -0.227953 -0.803646
v -0.056946 0.186028 0.693554
v -0.123962 0.186028 0.693554
v -0.056946 0.170977 0.729855
v -0.123962 0.170977 0.729855
v -0.123962 0.186028 0.766155
v -0.056946 0.186028 0.766155
v -0.167938 -0.291863 -0.803646
v -0.167938 -0.291863 -1.073145
v 0.170044 -0.291863 -1.073145
v 0.170044 -0.291863 -0.803646
v 0.060059 0.186028 0.766155
v 0.127045 0.186028 0.693554
v 0.127045 0.186028 0.766155
v 0.060059 0.186028 0.693554
v 0.060059 0.170977 0.729855
v 0.127045 0.170977 0.729855
v 0.170044 -0.184503 -0.603245
v 0.170044 -0.153273 -0.678745
v 0.199036 -0.147283 -0.678745
v 0.170044 -0.184503 -0.754145
v 0.199036 -0.180273 -0.599045
v 0.199036 -0.180273 -0.758345
v -0.166962 -0.184503 -0.603245
v -0.195953 -0.180273 -0.599045
v -0.195953 -0.147283 -0.678745
v -0.166962 -0.153273 -0.678745
v -0.166962 -0.184503 -0.754145
v -0.195953 -0.180273 -0.758345
v 0.151062 0.136287 -0.414446
v 0.181061 0.136287 -0.414446
v 0.151062 0.136287 0.554655
v 0.181061 0.136287 0.554655
v -0.163940 -0.092873 0.713255
v 0.166046 -0.108403 0.750454
v -0.163940 -0.108403 0.750454
v 0.166046 -0.092873 0.713255
v -0.163940 -0.092873 0.767555
v 0.166046 -0.092873 0.767555
v -0.163940 -0.108403 0.864655
v 0.166046 -0.108403 0.864655
v -0.163940 -0.092873 0.881754
v 0.166046 -0.092873 0.881754
v 0.166046 -0.092873 0.827454
v -0.163940 -0.092873 0.827454
v -0.147949 0.136287 -0.414446
v -0.177948 0.136287 -0.414446
v -0.177948 0.136287 0.554655
v -0.147949 0.136287 0.554655
v -0.195953 -0.373673 -0.564945
v 0.199036 -0.373673 -0.792446
v 0.199036 -0.373673 -0.564945
v -0.195953 -0.373673 -0.792446
v -0.195953 -0.420793 -0.678745
v 0.199036 -0.420793 -0.678745
v -0.177948 0.019977 0.590055
v 0.181061 0.019977 0.590055
v -0.177948 -0.075993 0.480154
v 0.181061 -0.075993 0.480154
v 0.181061 -0.075993 -0.339945
v -0.177948 -0.075993 -0.339945
v -0.177948 0.019977 -0.449945
v 0.181061 0.019977 -0.449945
v -0.195953 -0.339543 -0.758345
v -0.195953 -0.420793 -0.678745
v -0.195953 -0.372533 -0.678745
v -0.195953 -0.339543 -0.599045
v -0.195953 -0.373673 -0.792446
v -0.195953 -0.373673 -0.564945
v -0.195953 -0.259913 -0.791346
v -0.195953 -0.259913 -0.566046
v -0.195953 -0.259913 -0.839546
v -0.195953 -0.259913 -0.517845
v -0.195953 -0.146143 -0.792446
v -0.195953 -0.146143 -0.564945
v -0.195953 -0.180273 -0.758345
v -0.195953 -0.180273 -0.599045
v -0.195953 -0.099023 -0.678745
v -0.195953 -0.147283 -0.678745
v -0.177948 0.136287 -0.414446
v -0.177948 0.136287 0.554655
v -0.177948 0.171167 0.590055
v -0.177948 0.019977 0.590055
v -0.177948 0.171167 -0.449945
v -0.177948 0.037947 0.554655
v -0.177948 0.019977 -0.449945
v -0.177948 -0.075993 0.480154
v -0.177948 0.037947 -0.414446
v -0.177948 -0.036113 0.465254
v -0.177948 -0.075993 -0.339945
v -0.177948 -0.036113 -0.325045
v -0.167938 -0.339543 -0.758345
v -0.167938 -0.180273 -0.599045
v -0.167938 -0.180273 -0.758345
v -0.167938 -0.147293 -0.678745
v -0.167938 -0.259913 -0.791346
v -0.167938 -0.339543 -0.599045
v -0.167938 -0.259913 -0.566046
v -0.167938 -0.372533 -0.678745
v -0.167938 -0.227953 -1.073145
v -0.167938 -0.291863 -0.803646
v -0.167938 -0.227953 -0.803646
v -0.167938 -0.291863 -1.073145
v -0.163940 -0.092873 0.881754
v -0.163940 -0.092873 0.827454
v -0.163940 -0.108403 0.864655
v -0.163940 0.122197 0.789154
v -0.163940 0.122197 0.734755
v -0.163940 0.136247 0.754555
v -0.163940 -0.092873 0.767555
v -0.163940 -0.092873 0.713255
v -0.163940 -0.108403 0.750454
v -0.163940 0.122197 0.674854
v -0.163940 0.122197 0.620554
v -0.163940 0.136247 0.640255
v -0.123962 0.170977 0.729855
v -0.123962 0.186028 0.766155
v -0.123962 0.186028 0.693554
v -0.123962 0.258668 0.693554
v -0.123962 0.222347 0.678455
v -0.123962 0.258668 0.766155
v -0.123962 0.273707 0.729855
v -0.123962 0.222347 0.781254
v 0.060059 0.170977 0.729855
v 0.060059 0.186028 0.766155
v 0.060059 0.186028 0.693554
v 0.060059 0.258668 0.693554
v 0.060059 0.222347 0.678455
v 0.060059 0.258668 0.766155
v 0.060059 0.273707 0.729855
v 0.060059 0.222347 0.781254
v 0.151062 0.136287 -0.414446
v 0.151062 0.136287 0.554655
v 0.151062 0.171167 -0.418045
v 0.151062 0.171167 0.558254
v -0.171936 -0.191703 -0.690945
v 0.175049 -0.191703 -0.690945
v -0.171936 -0.328123 -0.690945
v 0.175049 -0.328123 -0.690945
v -0.171936 -0.191703 -0.667446
v 0.175049 -0.191703 -0.667446
v -0.171936 -0.191703 -0.690945
v 0.175049 -0.191703 -0.690945
v 0.175049 -0.191703 -0.667446
v 0.175049 -0.328123 -0.667446
v 0.175049 -0.328123 -0.690945
v 0.175049 -0.191703 -0.690945
v -0.171936 -0.328123 -0.667446
v 0.175049 -0.328123 -0.667446
v -0.171936 -0.191703 -0.667446
v 0.175049 -0.191703 -0.667446
v -0.171936 -0.328123 -0.690945
v 0.175049 -0.328123 -0.690945
v -0.171936 -0.328123 -0.667446
v 0.175049 -0.328123 -0.667446
v -0.171936 -0.191703 -0.690945
v -0.171936 -0.328123 -0.667446
v -0.171936 -0.191703 -0.667446
v -0.171936 -0.328123 -0.690945
v -0.100952 0.038757 0.275154
v -0.077942 0.099717 0.276554
v -0.098938 -0.022202 0.251755
v -0.034943 0.144387 0.255655
v -0.048950 0.055097 0.310555
v -0.059937 -0.005863 0.298054
v -0.002960 -0.038563 0.292955
v 0.015045 0.067067 0.314455
v 0.053040 -0.050533 0.261055
v 0.074036 0.071447 0.285854
v -0.103943 0.116077 0.175354
v -0.117950 0.083387 0.230255
v -0.077942 0.099717 0.276554
v -0.034943 0.144387 0.255655
v 0.015045 0.067067 0.314455
v 0.016052 0.160738 0.217955
v -0.062958 0.128047 0.125254
v 0.074036 0.071447 0.285854
v 0.111053 0.067067 0.232355
v -0.007965 0.116077 0.093355
v 0.061035 0.144387 0.173655
v 0.049042 0.083387 0.088154
v 0.088043 0.099717 0.134455
v -0.103943 0.116077 0.175354
v -0.127960 0.022428 0.217855
v -0.117950 0.083387 0.230255
v -0.100952 0.038757 0.275154
v -0.077942 0.099717 0.276554
v -0.098938 -0.022202 0.251755
v -0.071960 -0.066863 0.212654
v -0.121948 0.010458 0.153854
v -0.062958 0.128047 0.125254
v -0.084961 0.006077 0.100355
v -0.062958 0.128047 0.125254
v -0.084961 0.006077 0.100355
v -0.025940 0.010458 0.071754
v 0.024048 -0.066863 0.130554
v -0.007965 0.116077 0.093355
v 0.038055 0.022428 0.075754
v 0.067047 -0.022202 0.109655
v 0.049042 0.083387 0.088154
v 0.091034 0.038757 0.111055
v 0.088043 0.099717 0.134455
v -0.098938 -0.022202 0.251755
v -0.059937 -0.005863 0.298054
v -0.071960 -0.066863 0.212654
v -0.121948 0.010458 0.153854
v -0.002960 -0.038563 0.292955
v -0.084961 0.006077 0.100355
v -0.026947 -0.083213 0.168255
v 0.053040 -0.050533 0.261055
v 0.093048 -0.038563 0.210855
v -0.025940 0.010458 0.071754
v 0.024048 -0.066863 0.130554
v 0.067047 -0.022202 0.109655
v 0.107056 -0.005863 0.155954
v 0.053040 -0.050533 0.261055
v 0.074036 0.071447 0.285854
v 0.111053 0.067067 0.232355
v 0.093048 -0.038563 0.210855
v 0.067047 -0.022202 0.109655
v 0.061035 0.144387 0.173655
v 0.091034 0.038757 0.111055
v 0.107056 -0.005863 0.155954
v 0.088043 0.099717 0.134455
v 0.117035 0.055097 0.168455
v 0.091034 0.038757 -0.377445
v 0.067047 0.099717 -0.378845
v 0.088043 -0.022203 -0.354046
v 0.024048 0.144387 -0.357946
v 0.038055 0.055097 -0.412846
v 0.049042 -0.005863 -0.400345
v -0.007965 -0.038563 -0.395245
v -0.025940 0.067067 -0.416746
v -0.062958 -0.050533 -0.363245
v -0.084961 0.071447 -0.388145
v 0.093048 0.116077 -0.277645
v 0.107056 0.083387 -0.332546
v 0.067047 0.099717 -0.378845
v 0.024048 0.144387 -0.357946
v -0.025940 0.067067 -0.416746
v -0.026947 0.160737 -0.320246
v 0.053040 0.128047 -0.227545
v -0.084961 0.071447 -0.388145
v -0.121948 0.067067 -0.334646
v -0.002960 0.116077 -0.195545
v -0.071960 0.144387 -0.275946
v -0.059937 0.083387 -0.190445
v -0.098938 0.099717 -0.236746
v 0.093048 0.116077 -0.277645
v 0.117035 0.022428 -0.320145
v 0.107056 0.083387 -0.332546
v 0.091034 0.038757 -0.377445
v 0.067047 0.099717 -0.378845
v 0.088043 -0.022203 -0.354046
v 0.061035 -0.066863 -0.314945
v 0.111053 0.010457 -0.256145
v 0.053040 0.128047 -0.227545
v 0.074036 0.006077 -0.202646
v 0.053040 0.128047 -0.227545
v 0.074036 0.006077 -0.202646
v 0.015045 0.010458 -0.174046
v -0.034943 -0.066863 -0.232845
v -0.002960 0.116077 -0.195545
v -0.048950 0.022428 -0.178045
v -0.077942 -0.022203 -0.211945
v -0.059937 0.083387 -0.190445
v -0.100952 0.038757 -0.213345
v -0.098938 0.099717 -0.236746
v 0.088043 -0.022203 -0.354046
v 0.049042 -0.005863 -0.400345
v 0.061035 -0.066863 -0.314945
v 0.111053 0.010457 -0.256145
v -0.007965 -0.038563 -0.395245
v 0.074036 0.006077 -0.202646
v 0.016052 -0.083213 -0.270546
v -0.062958 -0.050533 -0.363245
v -0.103943 -0.038563 -0.313145
v 0.015045 0.010458 -0.174046
v -0.034943 -0.066863 -0.232845
v -0.077942 -0.022203 -0.211945
v -0.117950 -0.005863 -0.258245
v -0.062958 -0.050533 -0.363245
v -0.084961 0.071447 -0.388145
v -0.121948 0.067067 -0.334646
v -0.103943 -0.038563 -0.313145
v -0.077942 -0.022203 -0.211945
v -0.071960 0.144387 -0.275946
v -0.100952 0.038757 -0.213345
v -0.117950 -0.005863 -0.258245
v -0.098938 0.099717 -0.236746
v -0.127960 0.055097 -0.270746
v -0.169952 0.158327 -0.440145
v 0.172058 0.158327 -0.440145
v -0.169952 0.032337 -0.440145
v 0.172058 0.032337 -0.440145
v -0.169952 0.158327 -0.440145
v -0.169952 0.158327 0.581255
v 0.172058 0.158327 0.581255
v 0.172058 0.158327 -0.440145
v 0.172058 0.158327 0.581255
v 0.172058 -0.058163 -0.337645
v 0.172058 0.158327 -0.440145
v 0.172058 0.032337 -0.440145
v 0.172058 -0.058163 0.479155
v 0.172058 0.031027 0.581255
v 0.172058 0.031027 0.581255
v -0.169952 0.031027 0.581255
v -0.169952 0.158327 0.581255
v 0.172058 0.158327 0.581255
v -0.169952 0.032337 -0.440145
v 0.172058 0.032337 -0.440145
v 0.172058 -0.058163 -0.337645
v -0.169952 -0.058163 -0.337645
v -0.169952 -0.058163 0.479155
v 0.172058 -0.058163 0.479155
v 0.172058 0.031027 0.581255
v -0.169952 0.031027 0.581255
v -0.169952 0.158327 0.581255
v -0.169952 0.158327 -0.440145
v -0.169952 -0.058163 -0.337645
v -0.169952 0.032337 -0.440145
v -0.169952 -0.058163 0.479155
v -0.169952 0.031027 0.581255
v 0.077057 0.038757 0.537655
v 0.078064 0.099717 0.514154
v 0.053040 -0.022202 0.535454
v 0.057037 0.144387 0.471254
v 0.112061 0.055097 0.485254
v 0.100037 -0.005863 0.495855
v 0.094055 -0.038563 0.439455
v 0.116058 0.067067 0.421055
v 0.062042 -0.050533 0.383654
v 0.087036 0.071447 0.362455
v -0.022949 0.116077 0.539854
v 0.032043 0.083387 0.553755
v 0.078064 0.099717 0.514154
v 0.057037 0.144387 0.471254
v 0.116058 0.067067 0.421055
v 0.019043 0.160738 0.420454
v -0.072937 0.128048 0.499655
v 0.087036 0.071447 0.362455
v 0.034058 0.067067 0.325054
v -0.104950 0.116077 0.443855
v -0.024963 0.144387 0.375254
v -0.109955 0.083387 0.387455
v -0.063965 0.099717 0.347855
v -0.022949 0.116077 0.539854
v 0.019043 0.022428 0.564455
v 0.032043 0.083387 0.553755
v 0.077057 0.038757 0.537655
v 0.078064 0.099717 0.514154
v 0.053040 -0.022202 0.535454
v 0.014038 -0.066863 0.508055
v -0.044952 0.010458 0.558254
v -0.072937 0.128048 0.499655
v -0.097961 0.006077 0.520855
v -0.072937 0.128048 0.499655
v -0.097961 0.006077 0.520855
v -0.126953 0.010458 0.462255
v -0.067963 -0.066863 0.412054
v -0.104950 0.116077 0.443855
v -0.122955 0.022428 0.398054
v -0.088959 -0.022202 0.369154
v -0.109955 0.083387 0.387455
v -0.086945 0.038757 0.345655
v -0.063965 0.099717 0.347855
v 0.053040 -0.022202 0.535454
v 0.100037 -0.005863 0.495855
v 0.014038 -0.066863 0.508055
v -0.044952 0.010458 0.558254
v 0.094055 -0.038563 0.439455
v -0.097961 0.006077 0.520855
v -0.029938 -0.083213 0.462854
v 0.062042 -0.050533 0.383654
v 0.012054 -0.038563 0.343454
v -0.126953 0.010458 0.462255
v -0.067963 -0.066863 0.412054
v -0.088959 -0.022202 0.369154
v -0.042938 -0.005863 0.329554
v 0.062042 -0.050533 0.383654
v 0.087036 0.071447 0.362455
v 0.034058 0.067067 0.325054
v 0.012054 -0.038563 0.343454
v -0.088959 -0.022202 0.369154
v -0.024963 0.144387 0.375254
v -0.086945 0.038757 0.345655
v -0.042938 -0.005863 0.329554
v -0.063965 0.099717 0.347855
v -0.029938 0.055097 0.318855
vn -0.6502 -0.0000 -0.7598
vn -0.9488 0.1411 -0.2824
vn -0.6489 0.5380 -0.5380
vn -0.4813 0.8522 -0.2052
vn -0.4315 -0.5413 -0.7217
vn -0.8393 -0.3922 -0.3765
vn -0.7805 -0.6228 0.0552
vn -0.9534 0.2285 0.1970
vn -0.5361 -0.7096 0.4572
vn -0.7321 0.2598 0.6298
vn -0.2359 0.3932 -0.8887
vn -0.6488 0.5380 -0.5381
vn 0.1732 0.6219 -0.7637
vn -0.1965 0.9665 0.1650
vn 0.5361 0.7096 -0.4573
vn -0.3454 0.2276 0.9104
vn 0.7804 0.6228 -0.0552
vn 0.1264 0.8534 0.5057
vn 0.8393 0.3922 0.3765
vn 0.4333 0.5357 0.7248
vn -0.1257 -0.1414 -0.9819
vn -0.6501 -0.0000 -0.7598
vn -0.4314 -0.5412 -0.7218
vn -0.1264 -0.8534 -0.5057
vn 0.3453 -0.2276 -0.9105
vn 0.7321 -0.2598 -0.6297
vn 0.9534 -0.2284 -0.1970
vn 0.7805 0.6228 -0.0552
vn 0.9489 -0.1412 0.2823
vn 0.4813 -0.8522 0.2052
vn 0.6461 -0.5436 0.5357
vn 0.6456 -0.0000 0.7636
vn -0.7804 -0.6228 0.0552
vn 0.3454 -0.2276 -0.9105
vn 0.1965 -0.9665 -0.1650
vn -0.5361 -0.7096 0.4573
vn -0.1732 -0.6219 0.7637
vn 0.9534 -0.2285 -0.1970
vn 0.2359 -0.3932 0.8887
vn 0.6460 -0.5436 0.5358
vn -0.3453 0.2276 0.9105
vn -0.1732 -0.6220 0.7637
vn 0.6461 -0.5436 0.5358
vn 0.6456 -0.0000 0.7637
vn 0.1257 0.1414 0.9819
vn -0.0000 0.2829 -0.9591
vn -0.0000 0.2832 -0.9591
vn -0.0000 0.2827 -0.9592
vn -0.0000 0.2831 -0.9591
vn -0.0000 0.5975 -0.8019
vn -0.0000 0.3141 -0.9494
vn -0.0000 -0.0000 -1.0000
vn -0.0000 -0.5975 -0.8019
vn -0.0000 -0.3162 -0.9487
vn -0.0000 0.4156 -0.9096
vn -0.0000 0.1810 -0.9835
vn -0.0000 0.2757 -0.9612
vn -0.0000 0.5272 -0.8497
vn -0.0000 0.5273 -0.8497
vn -0.0000 0.1809 -0.9835
vn -0.0000 1.0000 -0.0000
vn -0.0000 0.9930 -0.1182
vn -0.0000 0.9354 -0.3537
vn -0.0000 0.4156 -0.9095
vn -0.0000 0.9354 0.3537
vn -0.0000 0.4156 0.9095
vn -0.0000 0.4156 0.9096
vn 1.0000 -0.0000 -0.0000
vn 1.0000 -0.0001 -0.0000
vn 1.0000 0.0001 -0.0000
vn 0.9715 -0.2370 -0.0000
vn 0.7778 -0.6285 -0.0000
vn 0.9194 0.3934 -0.0000
vn 0.9195 0.3932 -0.0000
vn 0.9196 0.3929 -0.0000
vn -0.0000 0.4025 0.9154
vn -0.0000 0.4628 0.8864
vn -0.0000 0.4628 0.8865
vn -0.0000 0.1105 0.9939
vn -0.0000 -0.1260 0.9920
vn -0.0000 0.2276 0.9737
vn -0.0000 -0.0000 1.0000
vn -0.0000 0.1491 0.9888
vn -0.0000 0.4409 0.8976
vn -0.0000 0.1492 0.9888
vn -0.0000 0.2277 0.9737
vn -0.0000 -0.3162 0.9487
vn -0.0000 -0.4314 0.9022
vn -0.0000 -0.7564 0.6541
vn -0.0000 -0.4315 0.9021
vn -0.0000 0.4969 0.8678
vn -0.0000 0.4970 0.8678
vn -0.0000 -0.9052 -0.4250
vn -0.0000 -0.9052 0.4250
vn -0.0000 -1.0000 -0.0000
vn -0.0000 -0.9888 0.1492
vn -0.0000 -0.9888 0.1490
vn -0.0000 -0.7565 0.6540
vn -1.0000 -0.0000 -0.0000
vn -1.0000 0.0002 -0.0000
vn -1.0000 -0.0001 -0.0000
vn -1.0000 0.0001 -0.0000
vn -1.0000 -0.0002 -0.0000
vn -1.0000 0.0004 -0.0000
vn -0.9715 -0.2370 -0.0000
vn -0.7778 -0.6285 -0.0000
vn -0.7777 -0.6286 -0.0000
vn -0.9195 0.3930 -0.0000
vn -0.9196 0.3930 -0.0000
vn -0.9196 0.3929 -0.0000
vn -0.0000 0.8084 -0.5886
vn -0.0000 -0.8084 -0.5886
vn 0.0002 -0.8084 -0.5886
vn -0.0002 0.8084 -0.5886
vn -0.0000 -0.0001 -1.0000
vn 0.2052 -0.0000 -0.9787
vn 0.1967 -0.7710 -0.6058
vn 0.1968 -0.8109 -0.5511
vn 0.1967 0.7710 -0.6058
vn 0.1968 0.8109 -0.5511
vn -0.2052 -0.0000 -0.9787
vn -0.1967 0.7710 -0.6057
vn -0.1968 0.8109 -0.5511
vn -0.1967 -0.7710 -0.6058
vn -0.1968 -0.8109 -0.5511
vn -0.0000 0.5122 -0.8589
vn -0.0000 -0.9862 -0.1657
vn 0.0052 0.5122 -0.8589
vn -0.0052 0.5122 -0.8589
vn -0.0000 -0.4970 -0.8678
vn -0.0000 0.1026 -0.9947
vn -0.0000 -0.3930 -0.9196
vn -0.0000 -0.3930 -0.9195
vn 0.0001 0.8084 -0.5886
vn -0.0000 1.0000 0.0001
vn -0.0000 0.8084 0.5886
vn 0.2052 0.9787 -0.0000
vn 0.1967 0.7710 -0.6057
vn 0.1967 0.7710 0.6057
vn 0.1968 0.8109 0.5511
vn -0.2052 0.9787 -0.0000
vn -0.1968 0.8109 -0.5510
vn -0.1967 0.7710 0.6057
vn -0.1968 0.8109 0.5511
vn -0.0000 0.9263 0.3767
vn -0.0000 0.9999 -0.0158
vn -0.0000 0.8122 -0.5834
vn -0.0000 0.8121 -0.5835
vn -0.0000 0.9999 -0.0157
vn -0.0000 0.5122 0.8589
vn -0.0000 0.9910 0.1338
vn -0.0000 0.9910 0.1337
vn -0.0000 0.9910 -0.1337
vn -0.0000 0.9910 -0.1338
vn -0.0000 1.0000 -0.0002
vn -0.0000 1.0000 -0.0001
vn 1.0000 0.0003 -0.0000
vn 1.0000 -0.0002 -0.0000
vn 1.0000 0.0002 -0.0000
vn -0.0000 0.3930 0.9195
vn -0.0000 0.3929 0.9196
vn -0.0000 0.3930 0.9196
vn -0.0000 -0.8084 0.5886
vn -0.0002 -0.8084 0.5886
vn -0.0000 0.0001 1.0000
vn 0.1967 -0.7710 0.6058
vn 0.2052 -0.0000 0.9787
vn 0.1968 -0.8109 0.5511
vn 0.1967 0.7710 0.6058
vn -0.2052 -0.0000 0.9787
vn -0.1967 0.7710 0.6058
vn -0.1967 -0.7710 0.6057
vn -0.1968 -0.8109 0.5511
vn -0.0101 -0.9861 0.1657
vn -0.0000 -0.9862 0.1657
vn -0.0052 0.5122 0.8589
vn 0.0052 0.5122 0.8589
vn -0.0000 -0.4970 0.8678
vn -0.0000 0.1026 0.9947
vn -0.0001 -0.8084 -0.5886
vn 0.1967 -0.7710 -0.6057
vn 0.2052 -0.9787 -0.0000
vn 0.1967 -0.7710 0.6057
vn 0.1968 -0.8109 -0.5510
vn -0.2052 -0.9787 -0.0000
vn -0.1967 -0.7710 -0.6057
vn -0.1968 -0.8109 -0.5510
vn -0.0000 -0.9862 -0.1656
vn -0.0000 -0.9862 0.1656
vn -0.0000 -0.9224 -0.3863
vn -0.0001 -0.9999 0.0158
vn -0.0000 -0.9999 0.0158
vn -0.0000 -0.7417 0.6707
vn -0.0000 -1.0000 -0.0002
vn -0.0000 -1.0000 -0.0001
vn -0.0000 -0.4970 0.8677
vn -0.0000 -0.9910 0.1338
vn -0.0000 -0.9910 -0.1337
vn -0.0000 -0.9910 -0.1338
vn -0.0000 -0.4970 -0.8677
vn -0.0002 -0.4970 -0.8677
vn -0.7598 -0.0000 0.6502
vn -0.2823 0.1412 0.9489
vn -0.5380 0.5380 0.6489
vn -0.2052 0.8522 0.4813
vn -0.7217 -0.5413 0.4315
vn -0.3765 -0.3921 0.8393
vn 0.0552 -0.6228 0.7805
vn 0.1970 0.2284 0.9534
vn 0.4572 -0.7096 0.5361
vn 0.6297 0.2598 0.7321
vn -0.8887 0.3932 0.2360
vn -0.5381 0.5381 0.6488
vn -0.7637 0.6220 -0.1732
vn 0.1650 0.9665 0.1964
vn 0.1969 0.2285 0.9534
vn -0.4573 0.7095 -0.5361
vn 0.6298 0.2598 0.7321
vn 0.9105 0.2276 0.3454
vn -0.0552 0.6228 -0.7804
vn 0.5057 0.8534 -0.1264
vn 0.3765 0.3922 -0.8393
vn 0.7248 0.5357 -0.4333
vn -0.7636 0.6220 -0.1732
vn -0.9819 -0.1414 0.1257
vn -0.8887 0.3932 0.2359
vn -0.7599 -0.0000 0.6501
vn -0.7217 -0.5413 0.4314
vn -0.5057 -0.8534 0.1265
vn -0.9105 -0.2276 -0.3453
vn -0.4573 0.7096 -0.5361
vn -0.6298 -0.2598 -0.7321
vn -0.1970 -0.2285 -0.9534
vn -0.6297 -0.2598 -0.7321
vn 0.2823 -0.1412 -0.9489
vn 0.2052 -0.8522 -0.4814
vn 0.5357 -0.5436 -0.6461
vn 0.3765 0.3921 -0.8393
vn 0.7636 -0.0000 -0.6456
vn -0.5057 -0.8534 0.1264
vn -0.3765 -0.3922 0.8393
vn 0.0552 -0.6228 0.7804
vn -0.9105 -0.2276 -0.3454
vn -0.1650 -0.9665 -0.1964
vn 0.4573 -0.7096 0.5361
vn 0.7637 -0.6220 0.1732
vn 0.2052 -0.8522 -0.4813
vn 0.8886 -0.3932 -0.2360
vn 0.5358 -0.5437 -0.6461
vn 0.6298 0.2598 0.7320
vn 0.9105 0.2275 0.3453
vn 0.7637 -0.6219 0.1732
vn 0.5358 -0.5436 -0.6461
vn 0.7637 -0.0000 -0.6456
vn 0.8887 -0.3932 -0.2359
vn 0.9819 0.1414 -0.1257
vn 0.7248 0.5357 -0.4332
vn 0.5057 0.8534 -0.1265
vn 0.7598 -0.0000 -0.6502
vn 0.2823 0.1412 -0.9489
vn 0.5380 0.5380 -0.6489
vn 0.2052 0.8522 -0.4813
vn 0.7217 -0.5413 -0.4315
vn 0.3765 -0.3922 -0.8393
vn -0.0552 -0.6228 -0.7804
vn -0.1970 0.2285 -0.9534
vn -0.4573 -0.7096 -0.5361
vn -0.6298 0.2598 -0.7321
vn 0.8887 0.3932 -0.2359
vn 0.5381 0.5381 -0.6488
vn 0.7637 0.6219 0.1732
vn -0.1650 0.9665 -0.1964
vn -0.1969 0.2285 -0.9534
vn 0.4573 0.7096 0.5361
vn -0.9105 0.2276 -0.3454
vn 0.0552 0.6228 0.7804
vn -0.5057 0.8534 0.1264
vn -0.3765 0.3922 0.8393
vn -0.7247 0.5357 0.4333
vn 0.9819 -0.1414 -0.1257
vn 0.7598 -0.0000 -0.6501
vn 0.5381 0.5380 -0.6488
vn 0.7217 -0.5413 -0.4314
vn 0.5057 -0.8534 -0.1264
vn 0.9105 -0.2276 0.3453
vn 0.6298 -0.2598 0.7321
vn 0.1970 -0.2285 0.9534
vn -0.2823 -0.1412 0.9489
vn -0.2052 -0.8522 0.4813
vn -0.5357 -0.5436 0.6461
vn -0.3765 0.3921 0.8393
vn -0.7637 -0.0000 0.6456
vn -0.7248 0.5357 0.4333
vn -0.0552 -0.6228 -0.7805
vn 0.1650 -0.9665 0.1964
vn 0.6297 -0.2598 0.7321
vn -0.4572 -0.7096 -0.5361
vn -0.7637 -0.6219 -0.1732
vn -0.8886 -0.3932 0.2360
vn -0.5358 -0.5437 0.6460
vn -0.6297 0.2598 -0.7321
vn -0.4573 -0.7095 -0.5362
vn -0.9105 0.2275 -0.3453
vn -0.5358 -0.5436 0.6461
vn -0.8887 -0.3932 0.2359
vn -0.9819 0.1414 0.1257
vn -0.7248 0.5357 0.4332
vn -0.5057 0.8534 0.1265
vn -0.0000 -0.4090 -0.9125
vn -0.0000 -0.4156 0.9096
vn -0.0000 -0.9353 -0.3538
vn -0.0000 -0.4091 -0.9125
vn -0.0000 -0.9353 0.3537
vn -0.0000 -0.9354 0.3537
vn 0.6502 -0.0000 0.7598
vn 0.9489 0.1412 0.2823
vn 0.6489 0.5380 0.5381
vn 0.4813 0.8522 0.2051
vn 0.4315 -0.5413 0.7217
vn 0.8393 -0.3922 0.3765
vn 0.7804 -0.6228 -0.0552
vn 0.9534 0.2285 -0.1970
vn 0.5361 -0.7096 -0.4573
vn 0.7321 0.2597 -0.6298
vn 0.4813 0.8522 0.2052
vn 0.2359 0.3933 0.8886
vn 0.6488 0.5381 0.5381
vn -0.1732 0.6220 0.7636
vn 0.1965 0.9665 -0.1650
vn -0.5361 0.7096 0.4573
vn 0.7321 0.2598 -0.6297
vn 0.3453 0.2276 -0.9105
vn -0.7804 0.6228 0.0552
vn -0.1264 0.8534 -0.5057
vn -0.8393 0.3922 -0.3765
vn -0.4333 0.5357 -0.7248
vn -0.1732 0.6219 0.7637
vn 0.1257 -0.1414 0.9819
vn 0.2359 0.3932 0.8887
vn 0.6501 -0.0000 0.7598
vn 0.6488 0.5380 0.5381
vn 0.4314 -0.5412 0.7218
vn 0.1264 -0.8534 0.5057
vn -0.3454 -0.2276 0.9105
vn -0.7321 -0.2598 0.6297
vn -0.9534 -0.2285 0.1970
vn -0.7805 0.6228 0.0552
vn -0.9489 -0.1412 -0.2824
vn -0.4813 -0.8522 -0.2052
vn -0.6461 -0.5436 -0.5357
vn -0.6456 -0.0000 -0.7637
vn -0.3453 -0.2276 0.9105
vn -0.1965 -0.9665 0.1650
vn 0.1732 -0.6220 -0.7636
vn -0.2359 -0.3932 -0.8887
vn -0.6460 -0.5436 -0.5358
vn 0.5361 -0.7096 -0.4572
vn 0.1732 -0.6219 -0.7637
vn -0.6461 -0.5436 -0.5358
vn -0.6455 -0.0000 -0.7637
vn -0.1257 0.1414 -0.9819
vn -0.4332 0.5357 -0.7248
vn -0.1265 0.8534 -0.5057
vt 29.988001 -39.000000
vt 29.994600 -38.998001
vt 29.990900 -38.992401
vt 29.996300 -38.986801
vt 29.988300 -39.007599
vt 29.993200 -39.005600
vt 30.000299 -39.009701
vt 30.002600 -38.996498
vt 30.007200 -39.011200
vt 30.009899 -38.995899
vt 29.992201 -38.996300
vt 29.995399 -38.986000
vt 29.989599 -38.990898
vt 30.002199 -38.987701
vt 29.996901 -39.002701
vt 29.984800 -39.002602
vt 30.008499 -38.992699
vt 29.988400 -39.009899
vt 29.995100 -39.014599
vt 30.012501 -38.999699
vt 30.002399 -39.008301
vt 30.013100 -39.006802
vt 30.007299 -39.011700
vt 29.997801 -38.990299
vt 30.003099 -39.001999
vt 30.004601 -38.994400
vt 30.010300 -39.000000
vt 30.010401 -38.992401
vt 30.007299 -39.007599
vt 30.002399 -39.013199
vt 29.995100 -39.003502
vt 29.991501 -38.988800
vt 29.988400 -39.004101
vt 30.007200 -38.988800
vt 30.002600 -39.003502
vt 30.009899 -39.004101
vt 30.000299 -38.990299
vt 29.994600 -39.001999
vt 29.996300 -39.013199
vt 29.990900 -39.007599
vt 29.993200 -38.994400
vt 29.988300 -38.992401
vt 30.002399 -38.991699
vt 30.013100 -38.993198
vt 30.007299 -38.988300
vt 30.012501 -39.000301
vt 29.995100 -38.985401
vt 29.996901 -38.997299
vt 29.988400 -38.990101
vt 30.008499 -39.007301
vt 30.002199 -39.012299
vt 29.984800 -38.997398
vt 29.992201 -39.003700
vt 29.995399 -39.014000
vt 29.989599 -39.009102
vt 29.988400 -38.995899
vt 29.991501 -39.011200
vt 29.995100 -38.996498
vt 29.997801 -39.009701
vt 30.010401 -39.007599
vt 30.004601 -39.005600
vt 30.003099 -38.998001
vt 30.007299 -38.992401
vt 30.002399 -38.986801
vt 53.999100 -40.955502
vt 54.007099 -40.970200
vt 54.000900 -40.955502
vt 53.992901 -40.970200
vt 53.980000 -40.969601
vt 54.020000 -40.978298
vt 54.020000 -40.969601
vt 53.980000 -40.978298
vt 54.020000 -41.005402
vt 53.980000 -41.005402
vt 53.980000 -41.015400
vt 54.020000 -41.015400
vt 54.020000 -41.017799
vt 53.980000 -41.017799
vt 53.980000 -41.028599
vt 54.020000 -41.028599
vt 53.980000 -41.037300
vt 54.020000 -41.037300
vt 54.020000 -40.987099
vt 53.980000 -40.987099
vt 53.994202 -40.960701
vt 53.985600 -40.960701
vt 53.994202 -40.970501
vt 53.985600 -40.970501
vt 54.005798 -40.970501
vt 53.994202 -40.954498
vt 53.985600 -40.954498
vt 54.005798 -40.960701
vt 54.014400 -40.970501
vt 54.014400 -40.960701
vt 54.014400 -40.954498
vt 54.005798 -40.954498
vt 53.889900 -41.000900
vt 53.904701 -41.000900
vt 53.904701 -40.999100
vt 53.889900 -40.999100
vt 54.091000 -41.005798
vt 54.112598 -41.005798
vt 54.112598 -40.994202
vt 54.091000 -40.994202
vt 54.108700 -40.994202
vt 54.108700 -40.985600
vt 54.094799 -40.994202
vt 54.094799 -40.985600
vt 54.108700 -41.014400
vt 54.108700 -41.005798
vt 54.094799 -41.014400
vt 54.094799 -41.005798
vt 54.085400 -41.020000
vt 54.115398 -41.020000
vt 54.085400 -40.980000
vt 54.115398 -40.980000
vt 53.955399 -41.020000
vt 53.876598 -40.980000
vt 53.876598 -41.020000
vt 53.955399 -40.980000
vt 54.071701 -40.980000
vt 54.071701 -41.020000
vt 53.997898 -41.020000
vt 53.997898 -40.980000
vt 53.969200 -41.020000
vt 53.969200 -40.980000
vt 54.044601 -40.987099
vt 54.027100 -41.005402
vt 54.129902 -41.005402
vt 54.129902 -40.978298
vt 54.044601 -40.978298
vt 54.123402 -40.969601
vt 54.044601 -40.969601
vt 54.030800 -40.999100
vt 54.002102 -40.999100
vt 53.928299 -40.999100
vt 54.129902 -41.015400
vt 53.870098 -41.005402
vt 53.914600 -40.987099
vt 53.871399 -41.015400
vt 53.880100 -40.978298
vt 54.027100 -41.015400
vt 53.914600 -40.978298
vt 53.884602 -40.969601
vt 53.914600 -40.969601
vt 54.035000 -41.017799
vt 54.122002 -41.017799
vt 54.040100 -41.028599
vt 54.122002 -41.028599
vt 54.040100 -41.037300
vt 54.122002 -41.037300
vt 54.111599 -41.047100
vt 54.050499 -41.047100
vt 53.909000 -40.960701
vt 53.887402 -40.960701
vt 53.909000 -40.970501
vt 53.887402 -40.970501
vt 53.905201 -40.954498
vt 53.891300 -40.952900
vt 54.086899 -40.970200
vt 54.114399 -40.970200
vt 54.095299 -40.955502
vt 54.110100 -40.955502
vt 53.994202 -40.952900
vt 53.985600 -40.952900
vt 54.014400 -40.952900
vt 54.005798 -40.952900
vt 54.129902 -41.020000
vt 54.129902 -40.980000
vt 54.122002 -40.980000
vt 54.122002 -41.020000
vt 54.111599 -40.987999
vt 54.111599 -41.012001
vt 54.050499 -40.987999
vt 54.050499 -41.012001
vt 54.040100 -40.980000
vt 54.040100 -41.020000
vt 53.871399 -41.020000
vt 54.027100 -41.020000
vt 54.027100 -40.980000
vt 53.871399 -40.980000
vt 54.035000 -41.020000
vt 54.035000 -40.980000
vt 54.086899 -41.007099
vt 54.114399 -41.007099
vt 54.114399 -40.992901
vt 54.086899 -40.992901
vt 54.115398 -40.969601
vt 54.085400 -40.969601
vt 54.085400 -40.978298
vt 54.119900 -40.978298
vt 54.085400 -40.987099
vt 54.071701 -40.999100
vt 53.972900 -41.005402
vt 54.128601 -41.015400
vt 53.997898 -40.999100
vt 53.969200 -40.999100
vt 53.972900 -41.015400
vt 53.955399 -40.987099
vt 53.870098 -41.015400
vt 53.870098 -40.978298
vt 53.965000 -41.017799
vt 53.955399 -40.978298
vt 53.876598 -40.969601
vt 53.955399 -40.969601
vt 53.877998 -41.017799
vt 53.959900 -41.028599
vt 53.877998 -41.028599
vt 53.877998 -41.037300
vt 53.959900 -41.037300
vt 53.888401 -41.047100
vt 53.949501 -41.047100
vt 54.091000 -40.960701
vt 54.112598 -40.970501
vt 54.112598 -40.960701
vt 54.091000 -40.970501
vt 54.094799 -40.954498
vt 54.108700 -40.952900
vt 53.885601 -40.970200
vt 53.904701 -40.955502
vt 53.889900 -40.955502
vt 53.913101 -40.970200
vt 40.021099 -33.019299
vt 39.978901 -33.019299
vt 40.021099 -33.027302
vt 39.978901 -33.027302
vt 40.015701 -32.958500
vt 40.007301 -32.958500
vt 40.007301 -32.963001
vt 40.015701 -32.963001
vt 40.007301 -32.967602
vt 40.015701 -32.967602
vt 39.992699 -32.958500
vt 39.984299 -32.958500
vt 39.984299 -32.963001
vt 39.992699 -32.963001
vt 39.984299 -32.967602
vt 39.992699 -32.967602
vt 39.975300 -33.023300
vt 39.979000 -33.013901
vt 39.975300 -33.013302
vt 39.979000 -33.023300
vt 39.979000 -33.032700
vt 39.975300 -33.033199
vt 40.024700 -33.023300
vt 40.021000 -33.032700
vt 40.024700 -33.033199
vt 40.021000 -33.023300
vt 40.021000 -33.013901
vt 40.024700 -33.013302
vt 39.977501 -32.986099
vt 39.981300 -32.973801
vt 39.977501 -32.973801
vt 39.981400 -32.986099
vt 40.022499 -32.986099
vt 40.022499 -32.973801
vt 40.018700 -32.973801
vt 40.018600 -32.986099
vt 40.024700 -33.009102
vt 39.975300 -33.009102
vt 39.975300 -33.037498
vt 40.024700 -33.037498
vt 40.022499 -32.988300
vt 39.977501 -32.969398
vt 39.977501 -32.988300
vt 40.022499 -32.969398
vt 40.018700 -32.969398
vt 39.981300 -32.969398
vt 40.020599 -32.975498
vt 39.979401 -32.975498
vt 40.020599 -33.002399
vt 39.979401 -33.002399
vt 40.098701 -33.007301
vt 40.098701 -33.015701
vt 40.103199 -33.015701
vt 40.103199 -33.007301
vt 40.107700 -33.015701
vt 40.107700 -33.007301
vt 40.103199 -32.984299
vt 40.103199 -32.992699
vt 40.107700 -32.992699
vt 40.098701 -32.984299
vt 40.107700 -32.984299
vt 40.098701 -32.992699
vt 39.955700 -33.022499
vt 40.085701 -33.022499
vt 39.959702 -33.018700
vt 39.955700 -32.977501
vt 40.081699 -33.018700
vt 39.959702 -32.981300
vt 40.081699 -32.981300
vt 40.085701 -32.977501
vt 39.927101 -32.975300
vt 39.936600 -32.979000
vt 39.937099 -32.975300
vt 39.917702 -32.979000
vt 39.917198 -32.975300
vt 39.927101 -32.979000
vt 39.936600 -33.021000
vt 39.927101 -33.024700
vt 39.937099 -33.024700
vt 39.927101 -33.021000
vt 39.917702 -33.021000
vt 39.917198 -33.024700
vt 40.096298 -32.979401
vt 40.091999 -33.020599
vt 40.096298 -33.020599
vt 40.091999 -32.979401
vt 40.089500 -33.020599
vt 40.089500 -32.979401
vt 40.106300 -33.020599
vt 40.106300 -32.979401
vt 40.103802 -33.020599
vt 40.103802 -32.979401
vt 40.110600 -32.979401
vt 40.110600 -33.020599
vt 39.960201 -32.981400
vt 39.971298 -32.977501
vt 39.960201 -32.977501
vt 39.971298 -32.981499
vt 40.070099 -32.981499
vt 40.070099 -32.977501
vt 40.081299 -32.981400
vt 40.081299 -32.977501
vt 40.081299 -33.018600
vt 40.070099 -33.022499
vt 40.081299 -33.022499
vt 40.070099 -33.018501
vt 39.971298 -33.018501
vt 39.971298 -33.022499
vt 39.960201 -33.018600
vt 39.960201 -33.022499
vt 39.941299 -33.024700
vt 39.912899 -32.975300
vt 39.941299 -32.975300
vt 39.912899 -33.024700
vt 39.877800 -33.021099
vt 39.911499 -33.021099
vt 39.911499 -32.978901
vt 39.877800 -32.978901
vt 40.058701 -33.037498
vt 40.058800 -33.023300
vt 40.052799 -33.023300
vt 40.058701 -33.009102
vt 40.062901 -33.033199
vt 40.062901 -33.013302
vt 40.072899 -33.043400
vt 40.072899 -33.003201
vt 40.072899 -33.037399
vt 40.072899 -33.009201
vt 40.082802 -33.033199
vt 40.082802 -33.013302
vt 40.087101 -33.037498
vt 40.087101 -33.009102
vt 40.087002 -33.023300
vt 40.092999 -33.023300
vt 39.914299 -32.969398
vt 40.039799 -32.973801
vt 40.044300 -32.969398
vt 40.044300 -32.988300
vt 39.918701 -32.973801
vt 40.039799 -32.986099
vt 39.914299 -32.988300
vt 40.030499 -33.000301
vt 39.918701 -32.986099
vt 40.028702 -32.995300
vt 39.928001 -33.000301
vt 39.929901 -32.995300
vt 40.122200 -33.019299
vt 40.088501 -33.019299
vt 40.122200 -33.027302
vt 40.088501 -33.027302
vt 39.903702 -32.975498
vt 39.910500 -32.975498
vt 39.908001 -32.973801
vt 39.898899 -33.002399
vt 39.892101 -33.002399
vt 39.894199 -33.004398
vt 39.889400 -32.975498
vt 39.896198 -32.975498
vt 39.893700 -32.973801
vt 39.884602 -33.002399
vt 39.877800 -33.002399
vt 39.880001 -33.004398
vt 39.901299 -32.967602
vt 39.892300 -32.967602
vt 39.896801 -32.969398
vt 39.901299 -32.958500
vt 39.903198 -32.963001
vt 39.892300 -32.958500
vt 39.896801 -32.956600
vt 39.890400 -32.963001
vt 40.040298 -32.969398
vt 39.918301 -32.969398
vt 39.901299 -33.015701
vt 39.901299 -33.007301
vt 39.896801 -33.007301
vt 39.896801 -33.015701
vt 39.892300 -33.007301
vt 39.892300 -33.015701
vt 40.088501 -33.021099
vt 40.122200 -33.021099
vt 40.122200 -32.978901
vt 40.088501 -32.978901
vt 39.892300 -32.984299
vt 39.892300 -32.992699
vt 39.896801 -32.992699
vt 39.901299 -32.992699
vt 39.901299 -32.984299
vt 39.896801 -32.984299
vt 40.063400 -32.979000
vt 40.072899 -32.979000
vt 40.072899 -32.975300
vt 40.082298 -32.979000
vt 40.062901 -32.975300
vt 40.082802 -32.975300
vt 40.072899 -33.024700
vt 40.063400 -33.021000
vt 40.062901 -33.024700
vt 40.072899 -33.021000
vt 40.082298 -33.021000
vt 40.082802 -33.024700
vt 39.918701 -32.981300
vt 40.039799 -32.981300
vt 40.039799 -32.977501
vt 39.918701 -32.977501
vt 39.898899 -33.020599
vt 39.894199 -32.979401
vt 39.894199 -33.020599
vt 39.898899 -32.979401
vt 39.892101 -33.020599
vt 39.892101 -32.979401
vt 39.880001 -33.020599
vt 39.880001 -32.979401
vt 39.877800 -33.020599
vt 39.877800 -32.979401
vt 39.884602 -32.979401
vt 39.884602 -33.020599
vt 39.918701 -33.022499
vt 40.039799 -33.022499
vt 40.039799 -33.018700
vt 39.918701 -33.018700
vt 40.058701 -32.975300
vt 40.058701 -33.024700
vt 40.087101 -33.024700
vt 40.087101 -32.975300
vt 39.914299 -32.977501
vt 39.914299 -33.022499
vt 39.928001 -33.022499
vt 39.928001 -32.977501
vt 40.030499 -32.977501
vt 40.030499 -33.022499
vt 40.044300 -33.022499
vt 40.044300 -32.977501
vt 39.917198 -33.033199
vt 39.927101 -33.043400
vt 39.927101 -33.037399
vt 39.937099 -33.033199
vt 39.912899 -33.037498
vt 39.941299 -33.037498
vt 39.912998 -33.023300
vt 39.941200 -33.023300
vt 39.907001 -33.023300
vt 39.947201 -33.023300
vt 39.912899 -33.009102
vt 39.941299 -33.009102
vt 39.917198 -33.013302
vt 39.937099 -33.013302
vt 39.927101 -33.003201
vt 39.927101 -33.009201
vt 39.960201 -32.973801
vt 40.081299 -32.973801
vt 40.085701 -32.969398
vt 40.085701 -32.988300
vt 39.955700 -32.969398
vt 40.081299 -32.986099
vt 39.955700 -32.988300
vt 40.071999 -33.000301
vt 39.960201 -32.986099
vt 40.070099 -32.995300
vt 39.969501 -33.000301
vt 39.971298 -32.995300
vt 39.877800 -33.019299
vt 39.911499 -33.027302
vt 39.911499 -33.019299
vt 39.877800 -33.027302
vt 40.122200 -33.002399
vt 40.115398 -33.002399
vt 40.119999 -33.004398
vt 40.110600 -32.975498
vt 40.103802 -32.975498
vt 40.106300 -32.973801
vt 40.107899 -33.002399
vt 40.101101 -33.002399
vt 40.105801 -33.004398
vt 40.096298 -32.975498
vt 40.089500 -32.975498
vt 40.091999 -32.973801
vt 40.103199 -32.969398
vt 40.107700 -32.967602
vt 40.098701 -32.967602
vt 40.098701 -32.958500
vt 40.096802 -32.963001
vt 40.107700 -32.958500
vt 40.103199 -32.956600
vt 40.109600 -32.963001
vt 39.959702 -32.969398
vt 40.081699 -32.969398
vt 28.021700 -52.991501
vt 27.978300 -52.991501
vt 28.021700 -53.008499
vt 27.978300 -53.008499
vt 28.001499 -53.021702
vt 28.001499 -52.978298
vt 27.998501 -53.021702
vt 27.998501 -52.978298
vt 27.998501 -52.991501
vt 27.998501 -53.008499
vt 28.001499 -53.008499
vt 28.001499 -52.991501
vt 5.988000 -25.000000
vt 5.994560 -24.997999
vt 5.990930 -24.992399
vt 5.996300 -24.986799
vt 5.988280 -25.007601
vt 5.993230 -25.005600
vt 6.000280 -25.009701
vt 6.002570 -24.996500
vt 6.007250 -25.011200
vt 6.009900 -24.995899
vt 5.992180 -24.996300
vt 5.995360 -24.986000
vt 5.989570 -24.990900
vt 6.002220 -24.987700
vt 5.996890 -25.002701
vt 5.984830 -25.002600
vt 6.008490 -24.992800
vt 5.988410 -25.009899
vt 5.995090 -25.014601
vt 6.012480 -24.999701
vt 6.002440 -25.008301
vt 6.013120 -25.006800
vt 6.007330 -25.011700
vt 5.997780 -24.990299
vt 6.003090 -25.002001
vt 6.004640 -24.994400
vt 6.010250 -25.000000
vt 6.010430 -24.992399
vt 6.007330 -25.007601
vt 6.002440 -25.013201
vt 5.995090 -25.003500
vt 5.991510 -24.988800
vt 5.988410 -25.004101
vt 6.007250 -24.988800
vt 6.002570 -25.003500
vt 6.009900 -25.004101
vt 6.000280 -24.990299
vt 5.994560 -25.002001
vt 5.996300 -25.013201
vt 5.990930 -25.007601
vt 5.993230 -24.994400
vt 5.988280 -24.992399
vt 6.002440 -24.991699
vt 6.013120 -24.993200
vt 6.007330 -24.988300
vt 6.012480 -25.000299
vt 5.995090 -24.985399
vt 5.996890 -24.997299
vt 5.988410 -24.990101
vt 6.008490 -25.007200
vt 6.002220 -25.012300
vt 5.984830 -24.997400
vt 5.992180 -25.003700
vt 5.995360 -25.014000
vt 5.989570 -25.009100
vt 5.988410 -24.995899
vt 5.991510 -25.011200
vt 5.995090 -24.996500
vt 5.997780 -25.009701
vt 6.010430 -25.007601
vt 6.004640 -25.005600
vt 6.003090 -24.997999
vt 6.007330 -24.992399
vt 6.002440 -24.986799
vt 47.987999 -55.000000
vt 47.994598 -54.998001
vt 47.990898 -54.992401
vt 47.996300 -54.986801
vt 47.988300 -55.007599
vt 47.993198 -55.005600
vt 48.000301 -55.009701
vt 48.002602 -54.996498
vt 48.007301 -55.011200
vt 48.009899 -54.995899
vt 47.992199 -54.996300
vt 47.995399 -54.986000
vt 47.989601 -54.990898
vt 48.002201 -54.987701
vt 47.996899 -55.002701
vt 47.984798 -55.002602
vt 48.008499 -54.992699
vt 47.988400 -55.009899
vt 47.995098 -55.014599
vt 48.012501 -54.999699
vt 48.002399 -55.008301
vt 48.013100 -55.006802
vt 48.007301 -55.011700
vt 47.997799 -54.990299
vt 48.003101 -55.001999
vt 48.004601 -54.994400
vt 48.010300 -55.000000
vt 48.010399 -54.992401
vt 48.007301 -55.007599
vt 48.002399 -55.013199
vt 47.995098 -55.003502
vt 47.991501 -54.988800
vt 47.988400 -55.004101
vt 48.007301 -54.988800
vt 48.002602 -55.003502
vt 48.009899 -55.004101
vt 48.000301 -54.990299
vt 47.994598 -55.001999
vt 47.996300 -55.013199
vt 47.990898 -55.007599
vt 47.993198 -54.994400
vt 47.988300 -54.992401
vt 48.002399 -54.991699
vt 48.013100 -54.993198
vt 48.007301 -54.988300
vt 48.012501 -55.000301
vt 47.995098 -54.985401
vt 47.996899 -54.997299
vt 47.988400 -54.990101
vt 48.008499 -55.007301
vt 48.002201 -55.012299
vt 47.984798 -54.997398
vt 47.992199 -55.003700
vt 47.995399 -55.014000
vt 47.989601 -55.009102
vt 47.988400 -54.995899
vt 47.991501 -55.011200
vt 47.995098 -54.996498
vt 47.997799 -55.009701
vt 48.010399 -55.007599
vt 48.004601 -55.005600
vt 48.003101 -54.998001
vt 48.007301 -54.992401
vt 48.002399 -54.986801
vt 30.021400 -30.986500
vt 29.978600 -30.986500
vt 30.021400 -31.002199
vt 29.978600 -31.002199
vt 29.936199 -31.021400
vt 30.063801 -31.021400
vt 30.063801 -30.978600
vt 29.936199 -30.978600
vt 29.936199 -30.986500
vt 30.051001 -31.013500
vt 30.063801 -30.986500
vt 30.063801 -31.002199
vt 29.948900 -31.013500
vt 29.936199 -31.002399
vt 29.978600 -31.002399
vt 30.021400 -31.002399
vt 30.051001 -30.978600
vt 30.051001 -31.021400
vt 29.948900 -31.021400
vt 29.948900 -30.978600
vt 29.948999 -31.013500
vt 29.936199 -31.002199
vt 30.051100 -31.013500
vt 30.063801 -31.002399
vt 1.988000 -29.000000
vt 1.994560 -28.997999
vt 1.990930 -28.992399
vt 1.996300 -28.986799
vt 1.988280 -29.007601
vt 1.993230 -29.005600
vt 2.000280 -29.009701
vt 2.002570 -28.996500
vt 2.007250 -29.011200
vt 2.009900 -28.995899
vt 1.992180 -28.996300
vt 1.995360 -28.986000
vt 1.989570 -28.990900
vt 2.002220 -28.987700
vt 1.996890 -29.002701
vt 1.984830 -29.002600
vt 2.008490 -28.992800
vt 1.988410 -29.009899
vt 1.995090 -29.014601
vt 2.012480 -28.999701
vt 2.002440 -29.008301
vt 2.013120 -29.006800
vt 2.007330 -29.011700
vt 1.997780 -28.990299
vt 2.003090 -29.002001
vt 2.004640 -28.994400
vt 2.010250 -29.000000
vt 2.010430 -28.992399
vt 2.007330 -29.007601
vt 2.002440 -29.013201
vt 1.995090 -29.003500
vt 1.991510 -28.988800
vt 1.988410 -29.004101
vt 2.007250 -28.988800
vt 2.002570 -29.003500
vt 2.009900 -29.004101
vt 2.000280 -28.990299
vt 1.994560 -29.002001
vt 1.996300 -29.013201
vt 1.990930 -29.007601
vt 1.993230 -28.994400
vt 1.988280 -28.992399
vt 2.002440 -28.991699
vt 2.013120 -28.993200
vt 2.007330 -28.988300
vt 2.012480 -29.000299
vt 1.995090 -28.985399
vt 1.996890 -28.997299
vt 1.988410 -28.990101
vt 2.008490 -29.007200
vt 2.002220 -29.012300
vt 1.984830 -28.997400
vt 1.992180 -29.003700
vt 1.995360 -29.014000
vt 1.989570 -29.009100
vt 1.988410 -28.995899
vt 1.991510 -29.011200
vt 1.995090 -28.996500
vt 1.997780 -29.009701
vt 2.010430 -29.007601
vt 2.004640 -29.005600
vt 2.003090 -28.997999
vt 2.007330 -28.992399
vt 2.002440 -28.986799
s 1
usemtl Meshpart1Mtl.001
f 1/1/1 5/2/2 2/3/3
f 4/4/4 2/3/3 5/2/2
f 1/1/1 3/5/5 6/6/6
f 1/1/1 6/6/6 5/2/2
f 7/7/7 5/2/2 6/6/6
f 4/4/4 5/2/2 8/8/8
f 5/2/2 7/7/7 8/8/8
f 9/9/9 8/8/8 7/7/7
f 8/8/8 9/9/9 10/10/10
f 14/11/4 12/12/11 13/13/12
f 12/12/11 14/11/4 11/14/13
f 16/15/14 11/14/13 14/11/4
f 16/15/14 14/11/4 15/16/8
f 11/14/13 16/15/14 17/17/15
f 15/16/8 18/18/10 16/15/14
f 19/19/16 16/15/14 18/18/10
f 17/17/15 16/15/14 20/20/17
f 16/15/14 21/21/18 20/20/17
f 16/15/14 19/19/16 21/21/18
f 20/20/17 21/21/18 22/22/19
f 21/21/18 23/23/20 22/22/19
f 24/24/13 25/25/21 26/26/11
f 27/27/22 26/26/11 25/25/21
f 27/27/22 28/28/12 26/26/11
f 27/27/22 25/25/21 29/29/23
f 25/25/21 30/30/24 29/29/23
f 25/25/21 24/24/13 31/31/25
f 25/25/21 31/31/25 30/30/24
f 32/32/15 31/31/25 24/24/13
f 31/31/25 32/32/15 33/33/26
f 34/34/15 36/35/27 35/36/26
f 36/35/27 34/34/15 38/37/28
f 39/38/29 37/39/30 36/35/27
f 38/37/28 39/38/29 36/35/27
f 37/39/30 39/38/29 40/40/31
f 39/38/29 38/37/28 41/41/19
f 39/38/29 42/1/32 40/40/31
f 41/41/19 42/1/32 39/38/29
f 43/42/20 42/1/32 41/41/19
f 46/43/24 45/44/6 44/45/5
f 45/44/6 46/43/24 48/46/33
f 47/47/34 50/48/35 46/43/24
f 50/48/35 48/46/33 46/43/24
f 49/49/26 50/48/35 47/47/34
f 48/46/33 50/48/35 51/50/36
f 51/50/36 50/48/35 52/51/37
f 53/52/38 50/48/35 49/49/26
f 54/53/30 52/51/37 50/48/35
f 50/48/35 53/52/38 54/53/30
f 56/54/39 54/53/30 55/55/40
f 52/51/37 54/53/30 56/54/39
f 58/56/10 57/57/9 59/58/41
f 57/57/9 60/59/42 59/58/41
f 61/60/43 63/27/44 64/61/39
f 64/61/39 63/27/44 66/62/45
f 66/62/45 63/27/44 65/63/20
f 60/59/42 64/61/39 66/62/45
f 62/64/18 66/62/45 65/63/20
f 59/58/41 60/59/42 66/62/45
f 66/62/45 62/64/18 59/58/41
usemtl Meshpart2Mtl.001
f 67/65/46 68/66/47 69/67/48
f 68/66/47 67/65/46 70/68/49
f 71/69/50 72/70/51 73/71/50
f 72/70/51 71/69/50 74/72/51
f 74/72/51 75/73/52 72/70/51
f 75/73/52 74/72/51 76/74/52
f 75/73/52 76/74/52 77/75/53
f 77/75/53 78/76/53 75/73/52
f 80/77/53 79/78/53 81/79/52
f 81/79/52 82/80/52 80/77/53
f 82/80/52 81/79/52 83/81/54
f 83/81/54 84/82/54 82/80/52
f 85/70/52 86/72/52 87/83/55
f 86/72/52 85/70/52 88/69/52
f 89/71/52 88/69/52 85/70/52
f 87/83/55 86/72/52 90/84/55
f 91/85/56 92/86/57 93/87/52
f 93/87/52 92/86/57 94/88/52
f 95/89/52 91/85/56 93/87/52
f 96/90/58 92/86/57 91/85/56
f 92/86/57 96/90/58 97/91/59
f 91/85/56 95/89/52 98/92/60
f 99/93/52 98/92/60 95/89/52
f 100/94/57 98/92/60 99/93/52
f 101/95/58 98/92/60 100/94/57
f 98/92/60 101/95/58 102/96/59
f 103/97/61 104/98/61 105/99/61
f 103/97/61 105/99/61 106/100/61
f 107/101/61 108/102/61 109/103/61
f 107/101/61 109/103/61 110/104/61
f 111/105/62 112/106/62 113/107/62
f 113/107/62 112/106/62 114/108/62
f 115/109/62 116/110/62 117/111/62
f 117/111/62 116/110/62 118/112/62
f 119/113/61 120/114/61 121/115/61
f 120/114/61 122/116/61 121/115/61
f 123/117/61 124/118/61 125/119/61
f 124/118/61 123/117/61 126/120/61
f 129/121/63 127/113/64 128/115/55
f 127/113/64 129/121/63 130/122/63
f 131/123/61 130/122/63 129/121/63
f 132/124/61 131/123/61 129/121/63
f 131/123/61 132/124/61 133/125/65
f 133/125/65 132/124/61 134/126/65
f 133/125/65 134/126/65 135/120/66
f 135/120/66 136/117/67 133/125/65
f 137/127/68 138/128/68 139/129/68
f 140/130/68 137/127/68 139/129/68
f 137/127/68 140/130/68 141/131/68
f 142/132/68 141/131/68 140/130/68
f 141/131/68 142/132/68 143/133/68
f 138/128/68 137/127/68 144/134/68
f 144/134/68 145/135/68 138/128/68
f 146/136/69 138/128/68 145/135/68
f 138/128/68 147/137/68 139/129/68
f 138/128/68 146/136/69 148/138/68
f 148/138/68 146/136/69 149/139/70
f 150/140/68 138/128/68 148/138/68
f 149/139/70 151/141/68 148/138/68
f 150/140/68 152/142/70 138/128/68
f 147/137/68 138/128/68 152/142/70
f 151/141/68 149/139/70 153/143/68
f 153/143/68 154/144/68 151/141/68
f 154/144/68 153/143/68 155/145/68
f 147/137/68 152/142/70 156/146/70
f 147/137/68 156/146/70 157/147/68
f 157/147/68 156/146/70 158/148/70
f 158/148/70 159/149/68 157/147/68
f 160/150/71 159/149/68 158/148/70
f 160/150/71 161/151/71 159/149/68
f 160/150/71 162/152/72 161/151/71
f 162/152/72 160/150/71 163/153/72
f 164/154/68 165/155/70 166/156/68
f 167/157/68 166/156/68 165/155/70
f 165/155/70 164/154/68 168/158/68
f 165/155/70 168/158/68 169/159/68
f 170/160/73 171/161/74 172/162/75
f 171/161/74 173/163/75 172/162/75
f 174/155/68 175/154/68 176/158/68
f 174/155/68 176/158/68 177/159/68
f 178/72/76 179/70/76 180/69/77
f 180/69/77 179/70/76 181/71/78
f 178/72/76 182/73/79 179/70/76
f 178/72/76 183/74/79 182/73/79
f 184/75/80 182/73/79 183/74/79
f 182/73/79 184/75/80 185/76/80
f 186/86/81 187/88/82 188/87/82
f 186/86/81 188/87/82 189/85/83
f 189/85/83 188/87/82 190/89/82
f 186/86/81 189/85/83 191/164/84
f 192/165/84 186/86/81 191/164/84
f 189/85/83 190/89/82 193/92/85
f 193/92/85 190/89/82 194/93/82
f 193/92/85 194/93/82 195/94/86
f 193/92/85 195/94/86 196/166/84
f 197/167/84 193/92/85 196/166/84
f 200/80/82 199/81/87 198/82/87
f 199/81/87 200/80/82 201/79/82
f 204/79/88 203/77/89 202/78/89
f 203/77/89 204/79/88 205/80/90
f 206/83/67 208/72/82 207/84/67
f 208/72/82 206/83/67 209/70/82
f 210/71/82 208/72/82 209/70/82
f 208/72/82 210/71/82 211/69/82
f 212/68/91 213/67/92 214/65/92
f 213/67/92 212/68/91 215/66/91
f 217/168/53 216/169/53 218/170/53
f 218/170/53 219/171/53 217/168/53
f 221/171/54 220/170/54 222/172/93
f 222/172/93 223/173/93 221/171/54
f 224/174/94 223/173/93 222/172/93
f 223/173/93 224/174/94 225/175/94
f 226/176/87 225/175/94 224/174/94
f 225/175/94 226/176/87 227/177/87
f 228/178/95 229/179/96 230/180/97
f 228/178/95 230/180/97 231/181/95
f 232/182/98 230/180/97 229/179/96
f 230/180/97 232/182/98 233/183/98
f 234/184/95 235/185/95 236/186/95
f 234/184/95 236/186/95 237/187/95
f 238/188/99 239/189/99 240/190/99
f 240/190/99 241/191/99 238/188/99
f 242/192/99 241/191/99 240/190/99
f 242/192/99 243/129/100 241/191/99
f 243/129/100 242/192/99 244/193/99
f 245/194/101 243/129/100 244/193/99
f 245/194/101 246/195/99 243/129/100
f 245/194/101 244/193/99 247/196/102
f 245/194/101 247/196/102 248/197/99
f 246/195/99 245/194/101 249/198/103
f 250/199/99 245/194/101 248/197/99
f 251/138/99 249/198/103 245/194/101
f 245/194/101 250/199/99 251/138/99
f 249/198/103 251/138/99 252/200/102
f 250/199/99 253/201/103 251/138/99
f 252/200/102 254/202/99 249/198/103
f 253/201/103 250/199/99 255/203/99
f 253/201/103 255/203/99 256/204/102
f 257/205/99 256/204/102 255/203/99
f 254/202/99 252/200/102 258/206/104
f 258/206/104 259/207/102 254/202/99
f 259/207/102 258/206/104 260/208/99
f 259/207/102 260/208/99 261/209/105
f 259/207/102 261/209/105 262/210/105
f 262/210/105 261/209/105 263/211/106
f 262/210/105 263/211/106 264/212/107
f 265/213/101 266/214/99 267/215/99
f 266/214/99 265/213/101 268/216/99
f 267/215/99 269/217/103 265/213/101
f 269/217/103 267/215/99 270/218/99
f 271/219/108 272/220/109 273/221/108
f 272/220/109 271/219/108 274/222/110
f 275/215/102 276/217/104 277/213/99
f 276/217/104 275/215/102 278/218/99
usemtl Meshpart3Mtl.001
f 279/223/52 280/224/52 281/225/52
f 281/225/52 280/224/52 282/226/52
f 284/227/111 283/228/111 285/229/52
f 285/229/52 286/230/52 284/227/111
f 286/230/52 285/229/52 287/231/112
f 287/231/112 288/232/113 286/230/52
f 290/233/111 289/234/114 291/235/115
f 291/235/115 292/236/115 290/233/111
f 292/236/115 291/235/115 293/237/112
f 293/237/112 294/238/112 292/236/115
f 297/239/116 295/240/117 296/241/118
f 295/240/117 297/239/116 298/242/116
f 299/243/119 298/242/116 297/239/116
f 299/243/119 297/239/116 300/244/120
f 303/245/121 301/246/122 302/247/123
f 301/246/122 303/245/121 304/248/121
f 303/245/121 305/249/124 304/248/121
f 303/245/121 306/250/125 305/249/124
f 309/251/126 307/252/127 308/253/127
f 307/252/127 309/251/126 310/254/128
f 311/255/126 312/256/52 313/257/52
f 311/255/126 313/257/52 314/258/126
f 315/252/52 316/258/129 313/257/52
f 316/258/129 315/252/52 317/254/126
f 320/239/52 319/259/111 318/260/111
f 319/259/111 320/239/52 321/245/52
f 322/261/112 321/245/52 320/239/52
f 321/245/52 322/261/112 323/262/112
f 324/263/130 326/264/52 325/265/130
f 326/264/52 324/263/130 327/266/52
f 328/267/131 329/252/131 330/257/131
f 329/252/131 328/267/131 331/268/131
f 332/269/132 333/270/133 334/271/132
f 334/271/132 333/270/133 335/272/132
f 336/269/132 337/270/133 338/271/132
f 338/271/132 337/270/133 339/272/132
f 340/273/111 341/274/134 342/275/61
f 342/275/61 343/276/135 340/273/111
f 343/276/135 342/275/61 344/277/136
f 344/277/136 345/278/136 343/276/135
f 346/279/135 347/280/61 348/281/136
f 347/280/61 346/279/135 349/282/111
f 348/281/136 350/283/136 346/279/135
f 349/282/111 351/284/111 347/280/61
f 352/285/61 353/286/61 354/287/61
f 355/288/61 352/285/61 354/287/61
f 354/287/61 353/286/61 356/289/61
f 355/288/61 354/287/61 357/290/61
f 353/286/61 358/291/61 356/289/61
f 357/290/61 359/292/61 355/288/61
f 353/286/61 359/292/61 358/291/61
f 359/292/61 357/290/61 358/291/61
f 364/293/137 360/294/138 362/295/120
f 361/296/139 364/293/137 363/297/140
f 360/294/138 364/293/137 365/298/137
f 361/296/139 365/298/137 364/293/137
f 366/299/122 367/300/141 368/301/142
f 367/300/141 366/299/122 369/302/141
f 370/303/143 367/300/141 369/302/141
f 367/300/141 370/303/143 371/304/144
f 372/305/145 373/306/146 374/307/145
f 373/306/146 372/305/145 375/308/146
f 373/306/146 375/308/146 376/309/147
f 376/309/147 375/308/146 377/310/148
f 378/311/146 379/312/149 380/313/148
f 380/313/148 379/312/149 381/314/148
f 378/311/146 382/315/145 379/312/149
f 383/316/145 382/315/145 378/311/146
f 385/317/150 386/318/151 384/319/150
f 386/318/151 385/317/150 387/320/152
f 389/321/153 386/318/151 387/320/152
f 386/318/151 389/321/153 391/322/154
f 391/322/154 390/323/126 388/324/126
f 390/323/126 391/322/154 389/321/153
f 393/325/126 394/326/153 392/327/126
f 394/326/153 393/325/126 395/328/154
f 395/328/154 396/329/151 394/326/153
f 397/330/152 394/326/153 396/329/151
f 396/329/151 398/331/150 397/330/152
f 399/332/150 397/330/152 398/331/150
f 402/321/154 400/325/126 401/323/126
f 400/325/126 402/321/154 403/328/153
f 404/320/152 403/328/153 402/321/154
f 403/328/153 404/320/152 405/329/152
f 404/320/152 406/331/150 405/329/152
f 406/331/150 404/320/152 407/317/150
f 408/333/136 409/293/155 410/300/156
f 411/334/111 410/300/156 409/293/155
f 409/293/155 408/333/136 412/335/136
f 410/300/156 411/334/111 413/336/111
f 414/337/61 415/338/61 416/339/61
f 414/337/61 416/339/61 417/340/61
f 418/341/70 419/342/68 420/343/68
f 419/342/68 421/344/157 420/343/68
f 419/342/68 418/341/70 422/345/69
f 421/344/157 419/342/68 423/346/70
f 424/347/69 422/345/69 418/341/70
f 425/348/70 421/344/157 423/346/70
f 422/345/69 424/347/69 426/349/68
f 423/346/70 427/350/68 425/348/70
f 424/347/69 428/351/68 426/349/68
f 429/352/68 425/348/70 427/350/68
f 428/351/68 424/347/69 430/353/68
f 425/348/70 429/352/68 431/354/68
f 430/353/68 432/355/68 428/351/68
f 432/355/68 431/354/68 429/352/68
f 430/353/68 433/356/68 432/355/68
f 431/354/68 432/355/68 433/356/68
f 434/357/69 435/358/68 436/359/68
f 437/360/68 436/359/68 435/358/68
f 435/358/68 434/357/69 438/361/69
f 437/360/68 435/358/68 439/362/68
f 440/363/68 438/361/69 434/357/69
f 439/362/68 441/364/68 437/360/68
f 438/361/69 440/363/68 442/365/68
f 441/364/68 439/362/68 443/366/68
f 444/367/68 442/365/68 440/363/68
f 443/366/68 444/367/68 441/364/68
f 442/365/68 444/367/68 445/368/68
f 444/367/68 443/366/68 445/368/68
f 446/350/68 447/346/158 448/352/158
f 449/351/69 448/352/158 447/346/158
f 448/352/158 449/351/69 450/355/68
f 449/351/69 447/346/158 451/345/69
f 451/345/69 447/346/158 452/342/68
f 449/351/69 451/345/69 453/349/69
f 454/369/68 455/370/68 456/371/68
f 457/372/68 456/371/68 455/370/68
f 458/373/69 459/374/68 460/375/68
f 459/374/68 458/373/69 461/376/158
f 462/377/68 461/376/158 458/373/69
f 461/376/158 462/377/68 463/378/68
f 464/379/70 465/380/68 466/381/68
f 465/380/68 464/379/70 467/382/159
f 468/383/68 467/382/159 464/379/70
f 467/382/159 468/383/68 469/384/68
f 470/385/68 471/386/68 472/387/68
f 471/386/68 470/385/68 473/388/68
f 473/388/68 470/385/68 474/389/68
f 471/386/68 473/388/68 475/390/68
f 475/390/68 473/388/68 476/391/68
f 471/386/68 475/390/68 477/392/68
f 478/385/68 479/386/68 480/387/68
f 479/386/68 478/385/68 481/388/68
f 481/388/68 478/385/68 482/389/68
f 483/390/68 479/386/68 481/388/68
f 479/386/68 483/390/68 484/392/68
f 483/390/68 481/388/68 485/391/68
f 486/361/68 487/358/68 488/393/68
f 486/361/68 488/393/68 489/394/68
f 490/270/160 491/272/161 492/271/160
f 490/270/160 492/271/160 493/269/161
f 494/270/162 495/272/162 496/271/160
f 494/270/162 496/271/160 497/269/162
f 499/233/136 498/234/136 500/235/82
f 500/235/82 501/236/82 499/233/136
f 501/236/82 500/235/82 502/237/163
f 502/237/163 503/238/164 501/236/82
f 505/227/136 504/228/136 506/229/82
f 506/229/82 507/230/165 505/227/136
f 507/230/165 506/229/82 508/231/163
f 508/231/163 509/232/163 507/230/165
f 510/249/166 512/245/167 511/250/168
f 510/249/166 513/248/167 512/245/167
f 514/246/169 512/245/167 513/248/167
f 512/245/167 514/246/169 515/247/140
f 518/239/170 517/244/144 516/243/171
f 518/239/170 516/243/171 519/242/170
f 520/240/172 518/239/170 519/242/170
f 518/239/170 520/240/172 521/241/173
f 522/257/174 523/255/150 524/256/175
f 523/255/150 522/257/174 525/258/150
f 526/254/176 528/252/175 527/251/150
f 529/253/175 527/251/150 528/252/175
f 531/258/177 532/252/82 530/254/150
f 532/252/82 531/258/177 533/257/82
f 536/239/82 535/259/136 534/260/136
f 535/259/136 536/239/82 537/245/82
f 538/261/163 537/245/82 536/239/82
f 537/245/82 538/261/163 539/262/163
f 540/265/178 541/263/178 542/264/82
f 542/264/82 541/263/178 543/266/82
f 544/257/179 545/268/179 546/252/179
f 545/268/179 544/257/179 547/267/179
f 548/226/82 549/225/82 550/224/82
f 550/224/82 549/225/82 551/223/82
f 553/395/112 552/396/180 554/397/95
f 554/397/95 555/398/95 553/395/112
f 555/398/95 554/397/95 557/399/163
f 557/399/163 556/400/163 555/398/95
f 558/401/95 559/402/95 560/403/95
f 558/401/95 560/403/95 561/404/95
f 564/405/163 562/406/163 566/407/95
f 565/408/112 563/409/112 567/410/95
f 566/407/95 567/410/95 564/405/163
f 567/410/95 566/407/95 565/408/112
f 568/411/181 569/412/182 570/413/182
f 571/414/183 570/413/182 569/412/182
f 568/411/181 570/413/182 572/415/184
f 570/413/182 571/414/183 573/416/168
f 576/417/185 574/418/186 575/419/187
f 574/418/186 576/417/185 577/420/185
f 576/417/185 578/421/172 577/420/185
f 576/417/185 579/422/173 578/421/172
f 582/423/188 580/424/189 581/425/189
f 582/423/188 581/425/189 583/426/188
f 584/427/190 585/428/191 586/429/192
f 585/428/191 584/427/190 587/430/190
f 585/428/191 588/431/193 586/429/192
f 588/431/193 585/428/191 589/432/193
f 590/433/192 591/434/191 592/435/193
f 592/435/193 591/434/191 593/436/193
f 590/433/192 594/437/190 591/434/191
f 595/438/190 594/437/190 590/433/192
f 598/439/95 597/440/189 596/441/189
f 598/439/95 596/441/189 599/442/95
f 604/417/194 602/443/163 600/444/163
f 605/413/195 603/445/112 601/446/112
f 602/443/163 604/417/194 605/413/195
f 603/445/112 605/413/195 604/417/194
f 607/447/196 606/448/196 608/449/197
f 608/449/197 609/450/197 607/447/196
f 608/449/197 610/451/198 609/450/197
f 608/449/197 611/452/199 610/451/198
f 612/453/200 610/451/198 611/452/199
f 610/451/198 612/453/200 613/454/201
f 614/455/99 615/456/99 616/457/99
f 617/458/100 616/457/99 615/456/99
f 615/456/99 614/455/99 618/459/99
f 615/456/99 619/460/100 617/458/100
f 620/461/99 618/459/99 614/455/99
f 619/460/100 621/462/99 617/458/100
f 618/459/99 620/461/99 622/463/99
f 621/462/99 619/460/100 623/464/99
f 624/465/99 622/463/99 620/461/99
f 625/466/103 621/462/99 623/464/99
f 624/465/99 620/461/99 626/467/99
f 621/462/99 625/466/103 627/468/102
f 626/467/99 628/469/99 624/465/99
f 628/469/99 627/468/102 625/466/103
f 628/469/99 626/467/99 629/470/99
f 627/468/102 628/469/99 629/470/99
f 630/471/102 631/472/99 632/473/102
f 631/472/99 633/474/103 632/473/102
f 632/473/102 634/475/99 630/471/102
f 633/474/103 631/472/99 635/476/103
f 636/477/104 630/471/102 634/475/99
f 637/478/101 633/474/103 635/476/103
f 630/471/102 636/477/104 638/479/103
f 635/476/103 639/480/102 637/478/101
f 640/481/99 638/479/103 636/477/104
f 641/482/101 637/478/101 639/480/102
f 638/479/103 640/481/99 641/482/101
f 640/481/99 637/478/101 641/482/101
f 642/455/101 643/468/102 644/467/102
f 644/467/102 643/468/102 645/470/102
f 642/455/101 644/467/102 646/461/99
f 642/455/101 647/458/101 643/468/102
f 643/468/102 647/458/101 648/462/99
f 647/458/101 642/455/101 649/457/101
f 650/483/99 651/484/99 652/485/99
f 651/484/99 650/483/99 653/486/99
f 654/487/99 655/488/99 656/489/99
f 655/488/99 654/487/99 657/490/99
f 655/488/99 657/490/99 658/491/99
f 658/491/99 657/490/99 659/492/99
f 660/493/102 661/494/99 662/495/99
f 661/494/99 660/493/102 663/496/103
f 661/494/99 663/496/103 664/497/102
f 664/497/102 663/496/103 665/498/99
f 666/499/99 667/500/99 668/501/99
f 669/502/99 668/501/99 667/500/99
f 668/501/99 669/502/99 670/503/99
f 667/500/99 671/504/99 669/502/99
f 669/502/99 671/504/99 672/505/99
f 671/504/99 667/500/99 673/506/99
f 674/499/99 675/500/99 676/501/99
f 677/502/99 676/501/99 675/500/99
f 676/501/99 677/502/99 678/503/99
f 675/500/99 679/504/99 677/502/99
f 677/502/99 679/504/99 680/505/99
f 679/504/99 675/500/99 681/506/99
f 682/471/99 683/472/99 684/507/99
f 685/508/99 684/507/99 683/472/99
usemtl Meshpart4Mtl
f 686/509/52 687/510/52 688/511/52
f 688/511/52 687/510/52 689/512/52
f 690/513/61 691/514/61 692/515/61
f 692/515/61 691/514/61 693/516/61
f 694/517/68 695/518/68 696/519/68
f 696/519/68 697/520/68 694/517/68
f 698/512/82 699/511/82 700/510/82
f 700/510/82 699/511/82 701/509/82
f 702/513/95 703/514/95 704/515/95
f 704/515/95 703/514/95 705/516/95
f 706/517/99 707/519/99 708/520/99
f 707/519/99 706/517/99 709/518/99
usemtl Meshpart5Mtl
f 710/521/202 714/522/203 711/523/204
f 713/524/205 711/523/204 714/522/203
f 710/521/202 712/525/206 715/526/207
f 710/521/202 715/526/207 714/522/203
f 716/527/208 714/522/203 715/526/207
f 713/524/205 714/522/203 717/528/209
f 714/522/203 716/527/208 717/528/209
f 718/529/210 717/528/209 716/527/208
f 717/528/209 718/529/210 719/530/211
f 723/531/205 721/532/212 722/533/213
f 721/532/212 723/531/205 720/534/214
f 725/535/215 720/534/214 723/531/205
f 725/535/215 723/531/205 724/536/216
f 720/534/214 725/535/215 726/537/217
f 724/536/216 727/538/218 725/535/215
f 728/539/219 725/535/215 727/538/218
f 726/537/217 725/535/215 729/540/220
f 725/535/215 730/541/221 729/540/220
f 725/535/215 728/539/219 730/541/221
f 729/540/220 730/541/221 731/542/222
f 730/541/221 732/543/223 731/542/222
f 733/544/224 734/545/225 735/546/226
f 736/547/227 735/546/226 734/545/225
f 736/547/227 737/548/213 735/546/226
f 736/547/227 734/545/225 738/549/228
f 734/545/225 739/550/229 738/549/228
f 734/545/225 733/544/224 740/551/230
f 734/545/225 740/551/230 739/550/229
f 741/552/231 740/551/230 733/544/224
f 740/551/230 741/552/231 742/553/232
f 743/554/231 745/555/233 744/556/234
f 745/555/233 743/554/231 747/557/220
f 748/558/235 746/559/236 745/555/233
f 747/557/220 748/558/235 745/555/233
f 746/559/236 748/558/235 749/560/237
f 748/558/235 747/557/220 750/561/238
f 748/558/235 751/521/239 749/560/237
f 750/561/238 751/521/239 748/558/235
f 752/562/223 751/521/239 750/561/238
f 755/563/240 754/564/241 753/565/206
f 754/564/241 755/563/240 757/566/242
f 756/567/243 759/568/244 755/563/240
f 759/568/244 757/566/242 755/563/240
f 758/569/234 759/568/244 756/567/243
f 757/566/242 759/568/244 760/570/245
f 760/570/245 759/568/244 761/571/246
f 762/572/233 759/568/244 758/569/234
f 763/573/247 761/571/246 759/568/244
f 759/568/244 762/572/233 763/573/247
f 765/574/248 763/573/247 764/575/249
f 761/571/246 763/573/247 765/574/248
f 767/576/250 766/577/210 768/578/251
f 766/577/210 769/579/252 768/578/251
f 770/580/253 772/547/254 773/581/255
f 773/581/255 772/547/254 775/582/256
f 775/582/256 772/547/254 774/583/257
f 769/579/252 773/581/255 775/582/256
f 771/584/258 775/582/256 774/583/257
f 768/578/251 769/579/252 775/582/256
f 775/582/256 771/584/258 768/578/251
usemtl Meshpart6Mtl
f 776/585/259 780/586/260 777/587/261
f 779/588/262 777/587/261 780/586/260
f 776/585/259 778/589/263 781/590/264
f 776/585/259 781/590/264 780/586/260
f 782/591/265 780/586/260 781/590/264
f 779/588/262 780/586/260 783/592/266
f 780/586/260 782/591/265 783/592/266
f 784/593/267 783/592/266 782/591/265
f 783/592/266 784/593/267 785/594/268
f 789/595/262 787/596/269 788/597/270
f 787/596/269 789/595/262 786/598/271
f 791/599/272 786/598/271 789/595/262
f 791/599/272 789/595/262 790/600/273
f 786/598/271 791/599/272 792/601/274
f 790/600/273 793/602/268 791/599/272
f 794/603/275 791/599/272 793/602/268
f 792/601/274 791/599/272 795/604/276
f 791/599/272 796/605/277 795/604/276
f 791/599/272 794/603/275 796/605/277
f 795/604/276 796/605/277 797/606/278
f 796/605/277 798/607/279 797/606/278
f 799/608/271 800/609/280 801/610/269
f 802/611/281 801/610/269 800/609/280
f 802/611/281 803/612/282 801/610/269
f 802/611/281 800/609/280 804/613/283
f 800/609/280 805/614/284 804/613/283
f 800/609/280 799/608/271 806/615/285
f 800/609/280 806/615/285 805/614/284
f 807/616/274 806/615/285 799/608/271
f 806/615/285 807/616/274 808/617/286
f 809/618/274 811/619/287 810/620/286
f 811/619/287 809/618/274 813/621/276
f 814/622/288 812/623/289 811/619/287
f 813/621/276 814/622/288 811/619/287
f 812/623/289 814/622/288 815/624/290
f 814/622/288 813/621/276 816/625/291
f 814/622/288 817/585/292 815/624/290
f 816/625/291 817/585/292 814/622/288
f 818/626/293 817/585/292 816/625/291
f 821/627/284 820/628/264 819/629/263
f 820/628/264 821/627/284 823/630/294
f 822/631/285 825/632/295 821/627/284
f 825/632/295 823/630/294 821/627/284
f 824/633/296 825/632/295 822/631/285
f 823/630/294 825/632/295 826/634/297
f 826/634/297 825/632/295 827/635/298
f 828/636/287 825/632/295 824/633/296
f 829/637/289 827/635/298 825/632/295
f 825/632/295 828/636/287 829/637/289
f 831/638/299 829/637/289 830/639/300
f 827/635/298 829/637/289 831/638/299
f 833/640/301 832/641/302 834/642/303
f 832/641/302 835/643/298 834/642/303
f 836/644/304 838/611/292 839/645/305
f 839/645/305 838/611/292 841/646/306
f 841/646/306 838/611/292 840/647/307
f 835/643/298 839/645/305 841/646/306
f 837/648/308 841/646/306 840/647/307
f 834/642/303 835/643/298 841/646/306
f 841/646/306 837/648/308 834/642/303
usemtl Meshpart7Mtl.001
f 842/649/52 843/650/52 844/651/309
f 844/651/309 843/650/52 845/652/309
f 846/653/61 847/654/61 848/655/61
f 846/653/61 848/655/61 849/656/61
f 850/657/68 851/658/70 852/659/70
f 852/659/70 851/658/70 853/660/68
f 851/658/70 850/657/68 854/661/69
f 854/661/69 850/657/68 855/662/68
f 857/663/310 856/664/310 858/650/82
f 858/650/82 856/664/310 859/649/82
f 862/665/311 860/654/312 861/655/312
f 860/654/312 862/665/311 863/666/311
f 864/667/313 863/666/311 862/665/311
f 864/667/313 862/665/311 865/668/314
f 864/667/313 865/668/314 866/656/310
f 866/656/310 867/653/310 864/667/313
f 868/659/99 869/657/101 870/669/101
f 870/669/101 869/657/101 871/670/99
f 872/671/99 868/659/99 870/669/101
f 868/659/99 872/671/99 873/672/99
usemtl Meshpart8Mtl
f 874/673/315 878/674/316 875/675/317
f 877/676/318 875/675/317 878/674/316
f 874/673/315 876/677/319 879/678/320
f 874/673/315 879/678/320 878/674/316
f 880/679/321 878/674/316 879/678/320
f 877/676/318 878/674/316 881/680/322
f 878/674/316 880/679/321 881/680/322
f 882/681/323 881/680/322 880/679/321
f 881/680/322 882/681/323 883/682/324
f 887/683/325 885/684/326 886/685/327
f 885/684/326 887/683/325 884/686/328
f 889/687/329 884/686/328 887/683/325
f 889/687/329 887/683/325 888/688/322
f 884/686/328 889/687/329 890/689/330
f 888/688/322 891/690/331 889/687/329
f 892/691/332 889/687/329 891/690/331
f 890/689/330 889/687/329 893/692/333
f 889/687/329 894/693/334 893/692/333
f 889/687/329 892/691/332 894/693/334
f 893/692/333 894/693/334 895/694/335
f 894/693/334 896/695/336 895/694/335
f 897/696/337 898/697/338 899/698/339
f 900/699/340 899/698/339 898/697/338
f 900/699/340 901/700/341 899/698/339
f 900/699/340 898/697/338 902/701/342
f 898/697/338 903/702/343 902/701/342
f 898/697/338 897/696/337 904/703/344
f 898/697/338 904/703/344 903/702/343
f 905/704/330 904/703/344 897/696/337
f 904/703/344 905/704/330 906/705/345
f 907/706/330 909/707/346 908/708/345
f 909/707/346 907/706/330 911/709/347
f 912/710/348 910/711/349 909/707/346
f 911/709/347 912/710/348 909/707/346
f 910/711/349 912/710/348 913/712/350
f 912/710/348 911/709/347 914/713/335
f 912/710/348 915/673/351 913/712/350
f 914/713/335 915/673/351 912/710/348
f 916/714/336 915/673/351 914/713/335
f 919/715/343 918/716/320 917/717/319
f 918/716/320 919/715/343 921/718/321
f 920/719/352 923/720/353 919/715/343
f 923/720/353 921/718/321 919/715/343
f 922/721/345 923/720/353 920/719/352
f 921/718/321 923/720/353 924/722/323
f 924/722/323 923/720/353 925/723/354
f 926/724/346 923/720/353 922/721/345
f 927/725/349 925/723/354 923/720/353
f 923/720/353 926/724/346 927/725/349
f 929/726/355 927/725/349 928/727/356
f 925/723/354 927/725/349 929/726/355
f 931/728/331 930/729/357 932/730/332
f 930/729/357 933/731/358 932/730/332
f 934/732/359 936/699/360 937/733/355
f 937/733/355 936/699/360 939/734/361
f 939/734/361 936/699/360 938/735/362
f 933/731/358 937/733/355 939/734/361
f 935/736/363 939/734/361 938/735/362
f 932/730/332 933/731/358 939/734/361
f 939/734/361 935/736/363 932/730/332
