# Blender 5.2.0 LTS
# www.blender.org
mtllib Bubble HandgunMag.mtl
o Bubble_Handgun_Mag
v -0.083221 -0.159694 0.058908
v -0.084229 -0.098734 0.082310
v -0.059235 -0.220654 0.061110
v -0.063232 -0.054074 0.125309
v -0.118225 -0.143364 0.111309
v -0.106232 -0.204324 0.100710
v -0.100220 -0.237014 0.157108
v -0.122223 -0.131394 0.175509
v -0.068237 -0.248984 0.212910
v -0.093231 -0.127014 0.234110
v 0.016754 -0.082375 0.056608
v -0.038239 -0.115065 0.042709
v -0.084229 -0.098734 0.082310
v -0.063232 -0.054074 0.125309
v -0.122223 -0.131394 0.175509
v -0.025238 -0.037724 0.176109
v 0.066772 -0.070405 0.096909
v -0.093231 -0.127014 0.234110
v -0.040222 -0.131394 0.271509
v 0.098755 -0.082375 0.152710
v 0.018768 -0.054074 0.221310
v 0.103760 -0.115065 0.209108
v 0.057770 -0.098734 0.248709
v 0.016754 -0.082375 0.056608
v -0.025238 -0.176034 0.032108
v -0.038239 -0.115065 0.042709
v -0.083221 -0.159694 0.058908
v -0.084229 -0.098734 0.082310
v -0.059235 -0.220654 0.061110
v -0.020233 -0.265315 0.088509
v 0.038757 -0.187994 0.038309
v 0.066772 -0.070405 0.096909
v 0.091766 -0.192374 0.075708
v 0.066772 -0.070405 0.096909
v 0.091766 -0.192374 0.075708
v 0.120758 -0.187994 0.134310
v 0.061768 -0.265315 0.184509
v 0.098755 -0.082375 0.152710
v 0.116760 -0.176034 0.198408
v 0.082764 -0.220654 0.227409
v 0.103760 -0.115065 0.209108
v 0.080780 -0.159694 0.250910
v 0.057770 -0.098734 0.248709
v -0.059235 -0.220654 0.061110
v -0.106232 -0.204324 0.100710
v -0.020233 -0.265315 0.088509
v 0.038757 -0.187994 0.038309
v -0.100220 -0.237014 0.157108
v 0.091766 -0.192374 0.075708
v 0.023773 -0.281664 0.133709
v -0.068237 -0.248984 0.212910
v -0.018219 -0.237014 0.253109
v 0.120758 -0.187994 0.134310
v 0.061768 -0.265315 0.184509
v 0.082764 -0.220654 0.227409
v 0.036774 -0.204324 0.267010
v -0.068237 -0.248984 0.212910
v -0.093231 -0.127014 0.234110
v -0.040222 -0.131394 0.271509
v -0.018219 -0.237014 0.253109
v 0.082764 -0.220654 0.227409
v 0.018768 -0.054074 0.221310
v 0.080780 -0.159694 0.250910
v 0.036774 -0.204324 0.267010
v 0.057770 -0.098734 0.248709
v 0.023773 -0.143364 0.277609
v -0.167236 -0.365055 -0.278292
v 0.166779 -0.365055 -0.278292
v -0.146240 -0.464234 -0.227091
v 0.146759 -0.464234 -0.227091
v -0.140228 -0.318754 -0.219891
v 0.102753 -0.277394 -0.230391
v 0.140778 -0.318754 -0.219891
v 0.102753 0.323525 -0.383991
v -0.103241 -0.277394 -0.230391
v 0.140778 0.422006 -0.409191
v -0.103241 0.374455 -0.396992
v 0.102753 0.374455 -0.396992
v -0.140228 0.422006 -0.409191
v 0.140778 0.373025 0.134310
v 0.140778 -0.230604 0.304409
v 0.102753 0.373025 0.134310
v 0.102753 -0.230604 0.304409
v -0.140228 0.373025 0.134310
v -0.103241 -0.230604 0.304409
v -0.140228 -0.230604 0.304409
v -0.103241 0.373025 0.134310
v -0.140228 0.422006 -0.409191
v -0.140228 0.422006 0.180208
v 0.140778 0.422006 0.180208
v 0.140778 0.422006 -0.409191
v 0.140778 -0.267384 0.367310
v -0.140228 -0.267384 0.367310
v -0.167236 -0.303945 0.420109
v 0.166779 -0.303945 0.420109
v -0.167236 -0.365055 -0.278292
v 0.140778 -0.318754 -0.219891
v 0.166779 -0.365055 -0.278292
v -0.140228 -0.318754 -0.219891
v -0.103241 -0.226084 0.356110
v 0.084778 -0.230604 0.304409
v -0.103241 -0.230604 0.304409
v 0.102753 -0.226084 0.356110
v 0.102753 -0.230604 0.304409
v 0.140778 -0.230604 0.304409
v 0.140778 -0.272584 -0.175390
v 0.102753 -0.272584 -0.175390
v -0.083221 -0.272584 -0.175390
v 0.102753 -0.277394 -0.230391
v -0.103241 -0.277394 -0.230391
v -0.103241 -0.272584 -0.175390
v -0.140228 -0.230604 0.304409
v -0.140228 -0.272584 -0.175390
v 0.166779 -0.365055 -0.278292
v 0.146759 -0.410514 0.386910
v 0.146759 -0.464234 -0.227091
v 0.166779 -0.303945 0.420109
v 0.140778 -0.267384 0.367310
v 0.140778 -0.318754 -0.219891
v 0.140778 -0.230604 0.304409
v 0.140778 0.422006 0.180208
v 0.140778 -0.272584 -0.175390
v 0.140778 0.373025 0.134310
v 0.140778 0.371585 -0.340990
v 0.140778 0.422006 -0.409191
v 0.140778 -0.318754 -0.219891
v 0.140778 -0.267384 0.367310
v 0.166779 -0.303945 0.420109
v 0.166779 -0.365055 -0.278292
v -0.103241 -0.230604 0.304409
v -0.103241 0.373025 0.134310
v -0.103241 0.373856 0.193310
v -0.103241 -0.226084 0.356110
v -0.103241 0.374455 -0.396992
v -0.103241 0.371585 -0.340990
v -0.103241 -0.277394 -0.230391
v -0.103241 -0.272584 -0.175390
v -0.146240 -0.410514 0.386910
v 0.166779 -0.303945 0.420109
v -0.167236 -0.303945 0.420109
v 0.146759 -0.410514 0.386910
v -0.103241 0.373856 0.193310
v -0.140228 -0.267384 0.367310
v -0.103241 -0.226084 0.356110
v 0.102753 -0.226084 0.356110
v -0.140228 0.422006 0.180208
v 0.140778 -0.267384 0.367310
v 0.140778 0.422006 0.180208
v 0.102753 0.373856 0.193310
v -0.140228 -0.272584 -0.175390
v -0.103241 0.371585 -0.340990
v -0.140228 0.371585 -0.340990
v -0.103241 -0.272584 -0.175390
v 0.102753 0.371585 -0.340990
v 0.102753 -0.272584 -0.175390
v 0.140778 -0.272584 -0.175390
v 0.140778 0.371585 -0.340990
v -0.146240 -0.410514 0.386910
v -0.146240 -0.464234 -0.227091
v 0.146759 -0.464234 -0.227091
v 0.146759 -0.410514 0.386910
v 0.102753 0.373025 0.134310
v 0.102753 0.371585 -0.340990
v 0.140778 0.371585 -0.340990
v 0.140778 0.373025 0.134310
v -0.140228 0.373025 0.134310
v -0.140228 0.371585 -0.340990
v -0.103241 0.371585 -0.340990
v -0.103241 0.373025 0.134310
v -0.103241 0.373856 0.193310
v -0.103241 0.374455 -0.396992
v 0.102753 0.374455 -0.396992
v 0.102753 0.373856 0.193310
v -0.167236 -0.365055 -0.278292
v -0.146240 -0.410514 0.386910
v -0.167236 -0.303945 0.420109
v -0.146240 -0.464234 -0.227091
v -0.140228 -0.318754 -0.219891
v -0.140228 -0.267384 0.367310
v -0.140228 -0.230604 0.304409
v -0.140228 0.422006 0.180208
v -0.140228 -0.272584 -0.175390
v -0.140228 0.373025 0.134310
v -0.140228 0.371585 -0.340990
v -0.140228 0.422006 -0.409191
v -0.167236 -0.303945 0.420109
v -0.140228 -0.318754 -0.219891
v -0.167236 -0.365055 -0.278292
v -0.140228 -0.267384 0.367310
v 0.102753 -0.230604 0.304409
v 0.102753 0.373856 0.193310
v 0.102753 0.373025 0.134310
v 0.102753 -0.226084 0.356110
v 0.102753 0.374455 -0.396992
v 0.102753 0.371585 -0.340990
v 0.102753 0.323525 -0.383991
v 0.102753 -0.272584 -0.175390
v 0.102753 -0.277394 -0.230391
v -0.097229 0.260536 0.064308
v -0.073242 0.321496 0.065708
v -0.094238 0.199565 0.040909
v -0.030243 0.366156 0.044809
v -0.044220 0.276865 0.099709
v -0.055237 0.215906 0.087309
v 0.001770 0.183206 0.082109
v 0.019775 0.288836 0.103609
v 0.056763 0.171246 0.050209
v 0.078766 0.293216 0.075008
v -0.099243 0.337856 -0.035490
v -0.113220 0.305156 0.019409
v -0.073242 0.321496 0.065708
v -0.030243 0.366156 0.044809
v 0.019775 0.288836 0.103609
v 0.020782 0.382505 0.007109
v -0.059235 0.349815 -0.085590
v 0.078766 0.293216 0.075008
v 0.115753 0.288836 0.021608
v -0.003235 0.337856 -0.117491
v 0.065765 0.366156 -0.037191
v 0.053772 0.305156 -0.122690
v 0.092773 0.321496 -0.076290
v -0.099243 0.337856 -0.035490
v -0.123230 0.244195 0.007009
v -0.113220 0.305156 0.019409
v -0.097229 0.260536 0.064308
v -0.073242 0.321496 0.065708
v -0.094238 0.199565 0.040909
v -0.067230 0.154906 0.001808
v -0.117218 0.232225 -0.056992
v -0.059235 0.349815 -0.085590
v -0.080231 0.227846 -0.110491
v -0.059235 0.349815 -0.085590
v -0.080231 0.227846 -0.110491
v -0.021240 0.232225 -0.138990
v 0.028778 0.154906 -0.080292
v -0.003235 0.337856 -0.117491
v 0.042755 0.244195 -0.135092
v 0.071777 0.199565 -0.101191
v 0.053772 0.305156 -0.122690
v 0.094757 0.260536 -0.099691
v 0.092773 0.321496 -0.076290
v -0.094238 0.199565 0.040909
v -0.055237 0.215906 0.087309
v -0.067230 0.154906 0.001808
v -0.117218 0.232225 -0.056992
v 0.001770 0.183206 0.082109
v -0.080231 0.227846 -0.110491
v -0.022247 0.138556 -0.042591
v 0.056763 0.171246 0.050209
v 0.097778 0.183206 0.000010
v -0.021240 0.232225 -0.138990
v 0.028778 0.154906 -0.080292
v 0.071777 0.199565 -0.101191
v 0.111755 0.215906 -0.054791
v 0.056763 0.171246 0.050209
v 0.078766 0.293216 0.075008
v 0.115753 0.288836 0.021608
v 0.097778 0.183206 0.000010
v 0.071777 0.199565 -0.101191
v 0.065765 0.366156 -0.037191
v 0.094757 0.260536 -0.099691
v 0.111755 0.215906 -0.054791
v 0.092773 0.321496 -0.076290
v 0.121765 0.276865 -0.042391
v 0.080780 0.065956 -0.045490
v 0.082764 0.126915 -0.068991
v 0.057770 0.004986 -0.047691
v 0.061768 0.171576 -0.111891
v 0.116760 0.082285 -0.097891
v 0.103760 0.021326 -0.087292
v 0.098755 -0.011374 -0.143690
v 0.120758 0.094255 -0.162090
v 0.066772 -0.023335 -0.199492
v 0.091766 0.098636 -0.220692
v -0.018219 0.143276 -0.043291
v 0.036774 0.110576 -0.029390
v 0.082764 0.126915 -0.068991
v 0.061768 0.171576 -0.111891
v 0.120758 0.094255 -0.162090
v 0.023773 0.187926 -0.162691
v -0.068237 0.155236 -0.083490
v 0.091766 0.098636 -0.220692
v 0.038757 0.094255 -0.258091
v -0.100220 0.143276 -0.139292
v -0.020233 0.171576 -0.207891
v -0.106232 0.110576 -0.195690
v -0.059235 0.126915 -0.235291
v -0.018219 0.143276 -0.043291
v 0.023773 0.049615 -0.018690
v 0.036774 0.110576 -0.029390
v 0.080780 0.065956 -0.045490
v 0.082764 0.126915 -0.068991
v 0.057770 0.004986 -0.047691
v 0.018768 -0.039674 -0.075090
v -0.040222 0.037646 -0.024891
v -0.068237 0.155236 -0.083490
v -0.093231 0.033266 -0.062290
v -0.068237 0.155236 -0.083490
v -0.093231 0.033266 -0.062290
v -0.122223 0.037646 -0.120892
v -0.063232 -0.039674 -0.171091
v -0.100220 0.143276 -0.139292
v -0.118225 0.049615 -0.185091
v -0.084229 0.004986 -0.213991
v -0.106232 0.110576 -0.195690
v -0.083221 0.065956 -0.237492
v -0.059235 0.126915 -0.235291
v 0.057770 0.004986 -0.047691
v 0.103760 0.021326 -0.087292
v 0.018768 -0.039674 -0.075090
v -0.040222 0.037646 -0.024891
v 0.098755 -0.011374 -0.143690
v -0.093231 0.033266 -0.062290
v -0.025238 -0.056025 -0.120291
v 0.066772 -0.023335 -0.199492
v 0.016754 -0.011374 -0.239691
v -0.122223 0.037646 -0.120892
v -0.063232 -0.039674 -0.171091
v -0.084229 0.004986 -0.213991
v -0.038239 0.021326 -0.253592
v 0.066772 -0.023335 -0.199492
v 0.091766 0.098636 -0.220692
v 0.038757 0.094255 -0.258091
v 0.016754 -0.011374 -0.239691
v -0.084229 0.004986 -0.213991
v -0.020233 0.171576 -0.207891
v -0.083221 0.065956 -0.237492
v -0.038239 0.021326 -0.253592
v -0.059235 0.126915 -0.235291
v -0.025238 0.082285 -0.264292
v 0.130768 0.402145 -0.383190
v -0.131226 -0.289584 -0.202591
v -0.131226 0.402145 -0.383190
v 0.130768 -0.289584 -0.202591
v -0.131226 0.402145 -0.383190
v -0.131226 0.402145 0.166710
v 0.130768 0.402145 0.166710
v 0.130768 0.402145 -0.383190
v 0.130768 0.402145 0.166710
v 0.130768 -0.240035 0.343809
v 0.130768 -0.289584 -0.202591
v 0.130768 0.402145 -0.383190
v -0.131226 0.402145 0.166710
v -0.131226 -0.240035 0.343809
v 0.130768 -0.240035 0.343809
v 0.130768 0.402145 0.166710
v -0.131226 -0.240035 0.343809
v -0.131226 -0.289584 -0.202591
v 0.130768 -0.289584 -0.202591
v 0.130768 -0.240035 0.343809
v -0.131226 -0.289584 -0.202591
v -0.131226 0.402145 0.166710
v -0.131226 0.402145 -0.383190
v -0.131226 -0.240035 0.343809
v 0.094757 -0.159694 -0.163691
v 0.071777 -0.098734 -0.165192
v 0.092773 -0.220655 -0.140291
v 0.028778 -0.054074 -0.144192
v 0.042755 -0.143364 -0.199091
v 0.053772 -0.204324 -0.186691
v -0.003235 -0.237014 -0.181492
v -0.021240 -0.131394 -0.202991
v -0.059235 -0.248984 -0.149591
v -0.080231 -0.127014 -0.174391
v 0.097778 -0.082375 -0.063890
v 0.111755 -0.115065 -0.118792
v 0.071777 -0.098734 -0.165192
v 0.028778 -0.054074 -0.144192
v -0.021240 -0.131394 -0.202991
v -0.022247 -0.037725 -0.106491
v 0.056763 -0.070405 -0.013790
v -0.080231 -0.127014 -0.174391
v -0.117218 -0.131394 -0.120991
v 0.001770 -0.082375 0.018108
v -0.067230 -0.054074 -0.062191
v -0.055237 -0.115065 0.023310
v -0.094238 -0.098734 -0.023090
v 0.097778 -0.082375 -0.063890
v 0.121765 -0.176034 -0.106390
v 0.111755 -0.115065 -0.118792
v 0.094757 -0.159694 -0.163691
v 0.071777 -0.098734 -0.165192
v 0.092773 -0.220655 -0.140291
v 0.065765 -0.265315 -0.101191
v 0.115753 -0.187994 -0.042391
v 0.056763 -0.070405 -0.013790
v 0.078766 -0.192374 0.011009
v 0.056763 -0.070405 -0.013790
v 0.078766 -0.192374 0.011009
v 0.019775 -0.187994 0.039610
v -0.030243 -0.265315 -0.019091
v 0.001770 -0.082375 0.018108
v -0.044220 -0.176034 0.035709
v -0.073242 -0.220654 0.001808
v -0.055237 -0.115065 0.023310
v -0.097229 -0.159694 0.000309
v -0.094238 -0.098734 -0.023090
v 0.092773 -0.220655 -0.140291
v 0.053772 -0.204324 -0.186691
v 0.065765 -0.265315 -0.101191
v 0.115753 -0.187994 -0.042391
v -0.003235 -0.237014 -0.181492
v 0.078766 -0.192374 0.011009
v 0.020782 -0.281664 -0.056791
v -0.059235 -0.248984 -0.149591
v -0.099243 -0.237014 -0.099390
v 0.019775 -0.187994 0.039610
v -0.030243 -0.265315 -0.019091
v -0.073242 -0.220654 0.001808
v -0.113220 -0.204324 -0.044590
v -0.059235 -0.248984 -0.149591
v -0.080231 -0.127014 -0.174391
v -0.117218 -0.131394 -0.120991
v -0.099243 -0.237014 -0.099390
v -0.073242 -0.220654 0.001808
v -0.067230 -0.054074 -0.062191
v -0.097229 -0.159694 0.000309
v -0.113220 -0.204324 -0.044590
v -0.094238 -0.098734 -0.023090
v -0.123230 -0.143364 -0.056992
v -0.097229 0.054506 0.177109
v -0.073242 0.115466 0.178509
v -0.094238 -0.006454 0.153709
v -0.030243 0.160126 0.157610
v -0.044220 0.070846 0.212509
v -0.055237 0.009876 0.200008
v 0.001770 -0.022814 0.194908
v 0.019775 0.082806 0.216410
v 0.056763 -0.034784 0.163010
v 0.078766 0.087185 0.187809
v -0.099243 0.131825 0.077309
v -0.113220 0.099135 0.132210
v -0.073242 0.115466 0.178509
v -0.030243 0.160126 0.157610
v 0.019775 0.082806 0.216410
v 0.020782 0.176476 0.119909
v -0.059235 0.143795 0.027208
v 0.078766 0.087185 0.187809
v 0.115753 0.082806 0.134409
v -0.003235 0.131825 -0.004690
v 0.065765 0.160126 0.075609
v 0.053772 0.099135 -0.009892
v 0.092773 0.115466 0.036409
v -0.099243 0.131825 0.077309
v -0.123230 0.038176 0.119808
v -0.113220 0.099135 0.132210
v -0.097229 0.054506 0.177109
v -0.073242 0.115466 0.178509
v -0.094238 -0.006454 0.153709
v -0.067230 -0.051115 0.114609
v -0.117218 0.026206 0.055809
v -0.059235 0.143795 0.027208
v -0.080231 0.021826 0.002310
v -0.059235 0.143795 0.027208
v -0.080231 0.021826 0.002310
v -0.021240 0.026206 -0.026291
v 0.028778 -0.051115 0.032509
v -0.003235 0.131825 -0.004690
v 0.042755 0.038176 -0.022291
v 0.071777 -0.006454 0.011608
v 0.053772 0.099135 -0.009892
v 0.094757 0.054506 0.013008
v 0.092773 0.115466 0.036409
v -0.094238 -0.006454 0.153709
v -0.055237 0.009876 0.200008
v -0.067230 -0.051115 0.114609
v -0.117218 0.026206 0.055809
v 0.001770 -0.022814 0.194908
v -0.080231 0.021826 0.002310
v -0.022247 -0.067464 0.070210
v 0.056763 -0.034784 0.163010
v 0.097778 -0.022814 0.112808
v -0.021240 0.026206 -0.026291
v 0.028778 -0.051115 0.032509
v 0.071777 -0.006454 0.011608
v 0.111755 0.009876 0.058008
v 0.056763 -0.034784 0.163010
v 0.078766 0.087185 0.187809
v 0.115753 0.082806 0.134409
v 0.097778 -0.022814 0.112808
v 0.071777 -0.006454 0.011608
v 0.065765 0.160126 0.075609
v 0.094757 0.054506 0.013008
v 0.111755 0.009876 0.058008
v 0.092773 0.115466 0.036409
v 0.121765 0.070846 0.070410
vn -0.6502 -0.0000 -0.7598
vn -0.9489 0.1412 -0.2823
vn -0.6489 0.5380 -0.5380
vn -0.4813 0.8522 -0.2052
vn -0.4315 -0.5413 -0.7217
vn -0.8393 -0.3922 -0.3765
vn -0.7804 -0.6228 0.0552
vn -0.9534 0.2285 0.1970
vn -0.5361 -0.7096 0.4573
vn -0.7321 0.2598 0.6298
vn -0.2360 0.3932 -0.8886
vn -0.6488 0.5381 -0.5381
vn 0.1732 0.6220 -0.7636
vn -0.1965 0.9665 0.1650
vn -0.9534 0.2285 0.1969
vn 0.5361 0.7096 -0.4573
vn -0.3453 0.2276 0.9105
vn 0.7804 0.6228 -0.0552
vn 0.1264 0.8534 0.5057
vn 0.8393 0.3922 0.3765
vn 0.4333 0.5357 0.7247
vn 0.1732 0.6219 -0.7637
vn -0.1257 -0.1414 -0.9819
vn -0.2359 0.3932 -0.8887
vn -0.6501 -0.0000 -0.7598
vn -0.4314 -0.5413 -0.7217
vn -0.1264 -0.8534 -0.5057
vn 0.3454 -0.2276 -0.9105
vn 0.7321 -0.2598 -0.6297
vn 0.9534 -0.2285 -0.1970
vn 0.7805 0.6228 -0.0552
vn 0.9489 -0.1412 0.2823
vn 0.4813 -0.8522 0.2052
vn 0.6461 -0.5436 0.5357
vn 0.8393 0.3921 0.3765
vn 0.6456 -0.0000 0.7637
vn -0.7805 -0.6228 0.0552
vn 0.3453 -0.2276 -0.9105
vn 0.1965 -0.9665 -0.1650
vn 0.7321 -0.2597 -0.6298
vn -0.5361 -0.7095 0.4573
vn -0.1732 -0.6220 0.7637
vn 0.9534 -0.2285 -0.1969
vn 0.2360 -0.3932 0.8886
vn 0.6461 -0.5436 0.5358
vn -0.7321 0.2598 0.6297
vn -0.1732 -0.6219 0.7637
vn 0.6460 -0.5436 0.5358
vn 0.6455 -0.0000 0.7637
vn 0.2359 -0.3932 0.8887
vn 0.1257 0.1414 0.9819
vn 0.4332 0.5357 0.7248
vn -0.0000 -0.4567 -0.8896
vn -0.0000 -0.4566 -0.8897
vn -0.0000 -0.2444 -0.9697
vn -0.0000 -0.2685 -0.9633
vn -0.0000 1.0000 -0.0000
vn -0.0000 0.8221 0.5693
vn -0.0000 0.7847 -0.6199
vn -0.0000 0.7846 -0.6199
vn -0.0000 0.9963 -0.0864
vn -0.0000 0.9963 -0.0863
vn -0.0000 0.9963 -0.0862
vn 0.9819 -0.1885 0.0157
vn 0.9819 -0.1886 0.0157
vn 0.9819 -0.1886 0.0158
vn 1.0000 -0.0001 -0.0000
vn 1.0000 -0.0000 -0.0000
vn 1.0000 0.0001 -0.0000
vn 0.8395 0.5413 -0.0471
vn 0.8395 0.5414 -0.0471
vn -0.0000 -0.2996 0.9541
vn -0.0000 0.2591 0.9658
vn -0.0000 0.2518 0.9678
vn -0.0000 -0.9963 0.0864
vn -0.0000 -0.9963 0.0863
vn -0.0000 -1.0000 -0.0000
vn -0.0000 -1.0000 -0.0001
vn -0.9819 -0.1885 0.0157
vn -0.9819 -0.1886 0.0157
vn -1.0000 -0.0001 -0.0000
vn -1.0000 0.0001 -0.0000
vn -1.0000 0.0002 -0.0000
vn -0.8395 0.5414 -0.0471
vn -0.8395 0.5413 -0.0471
vn -1.0000 -0.0000 -0.0000
vn -0.7598 -0.0000 0.6502
vn -0.2823 0.1412 0.9489
vn -0.5381 0.5380 0.6489
vn -0.2052 0.8522 0.4813
vn -0.7217 -0.5413 0.4315
vn -0.3765 -0.3921 0.8393
vn 0.0552 -0.6228 0.7805
vn 0.1970 0.2285 0.9534
vn 0.4572 -0.7096 0.5361
vn 0.6298 0.2598 0.7321
vn -0.8887 0.3932 0.2359
vn -0.5381 0.5381 0.6488
vn -0.7637 0.6219 -0.1732
vn 0.1650 0.9665 0.1964
vn 0.1969 0.2285 0.9534
vn -0.4573 0.7096 -0.5361
vn 0.9105 0.2276 0.3453
vn -0.0552 0.6228 -0.7804
vn 0.5057 0.8534 -0.1264
vn 0.3765 0.3922 -0.8393
vn 0.7247 0.5357 -0.4333
vn -0.9819 -0.1414 0.1257
vn -0.7598 -0.0000 0.6501
vn -0.5381 0.5380 0.6488
vn -0.7217 -0.5413 0.4314
vn -0.5057 -0.8534 0.1264
vn -0.9105 -0.2275 -0.3453
vn -0.6297 -0.2598 -0.7321
vn -0.1970 -0.2285 -0.9534
vn -0.0552 0.6228 -0.7805
vn 0.2823 -0.1412 -0.9489
vn 0.2052 -0.8522 -0.4813
vn 0.5357 -0.5436 -0.6461
vn 0.7637 -0.0000 -0.6456
vn 0.7248 0.5357 -0.4333
vn -0.3765 -0.3922 0.8393
vn -0.9105 -0.2276 -0.3453
vn -0.1650 -0.9665 -0.1964
vn 0.7637 -0.6220 0.1732
vn 0.8886 -0.3932 -0.2360
vn 0.5358 -0.5436 -0.6461
vn 0.6297 0.2598 0.7321
vn 0.4573 -0.7096 0.5361
vn 0.7637 -0.6219 0.1732
vn 0.8887 -0.3932 -0.2359
vn 0.9819 0.1414 -0.1257
vn 0.7248 0.5357 -0.4332
vn 0.5057 0.8534 -0.1265
vn 0.6502 -0.0000 0.7598
vn 0.9489 0.1412 0.2824
vn 0.6489 0.5380 0.5381
vn 0.4813 0.8522 0.2052
vn 0.4315 -0.5413 0.7217
vn 0.8393 -0.3922 0.3765
vn 0.7805 -0.6228 -0.0552
vn 0.9534 0.2285 -0.1970
vn 0.5361 -0.7096 -0.4573
vn 0.7320 0.2598 -0.6298
vn 0.2360 0.3932 0.8887
vn 0.6488 0.5381 0.5381
vn -0.1732 0.6220 0.7637
vn 0.1965 0.9665 -0.1650
vn -0.5361 0.7096 0.4573
vn 0.7321 0.2598 -0.6298
vn 0.3454 0.2276 -0.9104
vn -0.7804 0.6228 0.0552
vn -0.1264 0.8534 -0.5057
vn -0.8393 0.3922 -0.3765
vn -0.4333 0.5357 -0.7248
vn -0.1732 0.6219 0.7637
vn 0.1257 -0.1414 0.9819
vn 0.2359 0.3932 0.8887
vn 0.6501 -0.0000 0.7598
vn 0.6488 0.5380 0.5381
vn 0.4314 -0.5413 0.7217
vn 0.1264 -0.8534 0.5057
vn -0.3453 -0.2276 0.9105
vn -0.7321 -0.2598 0.6298
vn -0.9534 -0.2284 0.1970
vn -0.7321 -0.2598 0.6297
vn -0.7805 0.6228 0.0552
vn -0.9489 -0.1412 -0.2823
vn -0.4813 -0.8522 -0.2052
vn -0.6461 -0.5437 -0.5357
vn -0.6456 -0.0000 -0.7637
vn -0.4333 0.5357 -0.7247
vn -0.1965 -0.9665 0.1650
vn 0.5361 -0.7096 -0.4572
vn 0.1732 -0.6220 -0.7636
vn -0.9534 -0.2285 0.1970
vn -0.2359 -0.3932 -0.8887
vn -0.6460 -0.5436 -0.5358
vn 0.7321 0.2598 -0.6297
vn 0.3453 0.2276 -0.9105
vn 0.1732 -0.6219 -0.7637
vn -0.6461 -0.5436 -0.5358
vn -0.1257 0.1414 -0.9819
vn -0.4332 0.5357 -0.7248
vn -0.1265 0.8534 -0.5057
vn -0.0000 -0.2517 -0.9678
vn -0.0000 0.2685 0.9633
vn -0.0000 -0.9962 0.0870
vn 0.7598 -0.0000 -0.6502
vn 0.2823 0.1412 -0.9489
vn 0.5380 0.5380 -0.6489
vn 0.2052 0.8522 -0.4813
vn 0.7217 -0.5412 -0.4315
vn 0.3765 -0.3922 -0.8393
vn -0.0552 -0.6228 -0.7805
vn -0.1970 0.2285 -0.9534
vn -0.4572 -0.7096 -0.5361
vn -0.6298 0.2598 -0.7321
vn 0.8886 0.3932 -0.2360
vn 0.5381 0.5381 -0.6488
vn 0.7637 0.6220 0.1732
vn -0.1650 0.9665 -0.1964
vn -0.1969 0.2285 -0.9534
vn 0.4573 0.7096 0.5361
vn -0.9105 0.2276 -0.3453
vn 0.0552 0.6228 0.7804
vn -0.5057 0.8534 0.1264
vn -0.3765 0.3922 0.8393
vn -0.7247 0.5357 0.4333
vn 0.9819 -0.1414 -0.1257
vn 0.8887 0.3932 -0.2359
vn 0.7598 -0.0000 -0.6501
vn 0.5381 0.5380 -0.6488
vn 0.7217 -0.5413 -0.4314
vn 0.5057 -0.8534 -0.1264
vn 0.9105 -0.2276 0.3453
vn 0.6297 -0.2598 0.7321
vn 0.1970 -0.2285 0.9534
vn 0.0552 0.6228 0.7805
vn -0.2823 -0.1412 0.9489
vn -0.2052 -0.8522 0.4814
vn -0.5357 -0.5436 0.6461
vn -0.7637 -0.0000 0.6456
vn 0.7217 -0.5413 -0.4315
vn 0.1650 -0.9665 0.1964
vn -0.4573 -0.7095 -0.5361
vn -0.7637 -0.6220 -0.1732
vn -0.2052 -0.8522 0.4813
vn -0.8886 -0.3932 0.2359
vn -0.5358 -0.5436 0.6460
vn -0.6297 0.2598 -0.7321
vn -0.9105 0.2275 -0.3453
vn -0.7637 -0.6219 -0.1732
vn -0.5358 -0.5436 0.6461
vn -0.8887 -0.3932 0.2359
vn -0.9819 0.1414 0.1257
vn -0.7248 0.5357 0.4332
vn -0.5057 0.8534 0.1265
vn -0.5380 0.5380 0.6489
vn -0.7637 0.6220 -0.1732
vn 0.6298 0.2597 0.7321
vn -0.5057 -0.8534 0.1265
vn -0.1970 -0.2284 -0.9534
vn -0.0552 0.6227 -0.7805
vn 0.3765 0.3921 -0.8393
vn 0.7636 -0.0000 -0.6456
vn 0.0552 -0.6228 0.7804
vn 0.5358 -0.5437 -0.6460
vt 49.987999 -27.000000
vt 49.994598 -26.997999
vt 49.990898 -26.992399
vt 49.996300 -26.986799
vt 49.988300 -27.007601
vt 49.993198 -27.005600
vt 50.000301 -27.009701
vt 50.002602 -26.996500
vt 50.007301 -27.011200
vt 50.009899 -26.995899
vt 49.992199 -26.996300
vt 49.995399 -26.986000
vt 49.989601 -26.990900
vt 50.002201 -26.987700
vt 49.996899 -27.002701
vt 49.984798 -27.002600
vt 50.008499 -26.992800
vt 49.988400 -27.009899
vt 49.995098 -27.014601
vt 50.012501 -26.999701
vt 50.002399 -27.008301
vt 50.013100 -27.006800
vt 50.007301 -27.011700
vt 49.997799 -26.990299
vt 50.003101 -27.002001
vt 50.004601 -26.994400
vt 50.010300 -27.000000
vt 50.010399 -26.992399
vt 50.007301 -27.007601
vt 50.002399 -27.013201
vt 49.995098 -27.003500
vt 49.991501 -26.988800
vt 49.988400 -27.004101
vt 50.007301 -26.988800
vt 50.002602 -27.003500
vt 50.009899 -27.004101
vt 50.000301 -26.990299
vt 49.994598 -27.002001
vt 49.996300 -27.013201
vt 49.990898 -27.007601
vt 49.993198 -26.994400
vt 49.988300 -26.992399
vt 50.002399 -26.991699
vt 50.013100 -26.993200
vt 50.007301 -26.988300
vt 50.012501 -27.000299
vt 49.995098 -26.985399
vt 49.996899 -26.997299
vt 49.988400 -26.990101
vt 50.008499 -27.007200
vt 50.002201 -27.012300
vt 49.984798 -26.997400
vt 49.992199 -27.003700
vt 49.995399 -27.014000
vt 49.989601 -27.009100
vt 49.988400 -26.995899
vt 49.991501 -27.011200
vt 49.995098 -26.996500
vt 49.997799 -27.009701
vt 50.010399 -27.007601
vt 50.004601 -27.005600
vt 50.003101 -26.997999
vt 50.007301 -26.992399
vt 50.002399 -26.986799
vt 36.020901 -25.042999
vt 35.979099 -25.042999
vt 36.018299 -25.055401
vt 35.981701 -25.055401
vt 36.017502 -25.037201
vt 35.987099 -25.032000
vt 35.982498 -25.037201
vt 35.987099 -24.956900
vt 36.012901 -25.032000
vt 35.982498 -24.944599
vt 36.012901 -24.950600
vt 35.987099 -24.950600
vt 36.017502 -24.944599
vt 35.982498 -24.950701
vt 35.982498 -25.026199
vt 35.987099 -24.950701
vt 35.987099 -25.026199
vt 36.017502 -24.950701
vt 36.012901 -25.026199
vt 36.017502 -25.026199
vt 36.012901 -24.950701
vt 35.948200 -25.017500
vt 36.021801 -25.017500
vt 36.021801 -24.982500
vt 35.948200 -24.982500
vt 36.045200 -24.982500
vt 36.045200 -25.017500
vt 36.051800 -25.020901
vt 36.051800 -24.979099
vt 35.964500 -25.020901
vt 35.971802 -24.982500
vt 35.964500 -24.979099
vt 35.971802 -25.017500
vt 36.043800 -25.012899
vt 36.037399 -24.989401
vt 36.037399 -25.012899
vt 36.043800 -24.987101
vt 36.037399 -24.987101
vt 36.037399 -24.982500
vt 35.977402 -24.982500
vt 35.977402 -24.987101
vt 35.977402 -25.010500
vt 35.970501 -24.987101
vt 35.970501 -25.012899
vt 35.977402 -25.012899
vt 36.037399 -25.017500
vt 35.977402 -25.017500
vt 36.035500 -25.042999
vt 35.952301 -25.048700
vt 36.029099 -25.055401
vt 35.948200 -25.035400
vt 35.954800 -25.030800
vt 36.028198 -25.037201
vt 35.962601 -25.026199
vt 35.978199 -24.944599
vt 36.022598 -25.031401
vt 35.983898 -24.950701
vt 36.043301 -24.950899
vt 36.051800 -24.944599
vt 35.976501 -24.950600
vt 35.956200 -25.025600
vt 36.050301 -24.950600
vt 36.029499 -25.032000
vt 35.981701 -25.048700
vt 36.020901 -25.035400
vt 35.979099 -25.035400
vt 36.018299 -25.048700
vt 35.982498 -25.030800
vt 35.987099 -25.025600
vt 36.012901 -25.025600
vt 36.017502 -25.030800
vt 35.982498 -25.031401
vt 35.987099 -24.950899
vt 35.982498 -24.950899
vt 35.987099 -25.031401
vt 36.012901 -24.950899
vt 36.012901 -25.031401
vt 36.017502 -25.031401
vt 36.017502 -24.950899
vt 35.952301 -25.018299
vt 36.029099 -25.018299
vt 36.029099 -24.981701
vt 35.952301 -24.981701
vt 35.983898 -24.987101
vt 36.043301 -24.987101
vt 36.043301 -24.982500
vt 35.983898 -24.982500
vt 35.983898 -25.017500
vt 36.043301 -25.017500
vt 36.043301 -25.012899
vt 35.983898 -25.012899
vt 35.976501 -25.012899
vt 36.050301 -25.012899
vt 36.050301 -24.987101
vt 35.976501 -24.987101
vt 35.964500 -25.042999
vt 36.047699 -25.048700
vt 36.051800 -25.035400
vt 35.970901 -25.055401
vt 35.971802 -25.037201
vt 36.045200 -25.030800
vt 36.037399 -25.026199
vt 36.021801 -24.944599
vt 35.977402 -25.031401
vt 36.016102 -24.950701
vt 35.956699 -24.950899
vt 35.948200 -24.944599
vt 36.023499 -24.950600
vt 36.043800 -25.025600
vt 35.949699 -24.950600
vt 35.951302 -24.956900
vt 35.970501 -25.032000
vt 37.987999 -21.000000
vt 37.994598 -20.997999
vt 37.990898 -20.992399
vt 37.996300 -20.986799
vt 37.988300 -21.007601
vt 37.993198 -21.005600
vt 38.000301 -21.009701
vt 38.002602 -20.996500
vt 38.007301 -21.011200
vt 38.009899 -20.995899
vt 37.992199 -20.996300
vt 37.995399 -20.986000
vt 37.989601 -20.990900
vt 38.002201 -20.987700
vt 37.996899 -21.002701
vt 37.984798 -21.002600
vt 38.008499 -20.992800
vt 37.988400 -21.009899
vt 37.995098 -21.014601
vt 38.012501 -20.999701
vt 38.002399 -21.008301
vt 38.013100 -21.006800
vt 38.007301 -21.011700
vt 37.997799 -20.990299
vt 38.003101 -21.002001
vt 38.004601 -20.994400
vt 38.010300 -21.000000
vt 38.010399 -20.992399
vt 38.007301 -21.007601
vt 38.002399 -21.013201
vt 37.995098 -21.003500
vt 37.991501 -20.988800
vt 37.988400 -21.004101
vt 38.007301 -20.988800
vt 38.002602 -21.003500
vt 38.009899 -21.004101
vt 38.000301 -20.990299
vt 37.994598 -21.002001
vt 37.996300 -21.013201
vt 37.990898 -21.007601
vt 37.993198 -20.994400
vt 37.988300 -20.992399
vt 38.002399 -20.991699
vt 38.013100 -20.993200
vt 38.007301 -20.988300
vt 38.012501 -21.000299
vt 37.995098 -20.985399
vt 37.996899 -20.997299
vt 37.988400 -20.990101
vt 38.008499 -21.007200
vt 38.002201 -21.012300
vt 37.984798 -20.997400
vt 37.992199 -21.003700
vt 37.995399 -21.014000
vt 37.989601 -21.009100
vt 37.988400 -20.995899
vt 37.991501 -21.011200
vt 37.995098 -20.996500
vt 37.997799 -21.009701
vt 38.010399 -21.007601
vt 38.004601 -21.005600
vt 38.003101 -20.997999
vt 38.007301 -20.992399
vt 38.002399 -20.986799
vt 1.988000 -19.000000
vt 1.994560 -18.997999
vt 1.990930 -18.992399
vt 1.996300 -18.986799
vt 1.988280 -19.007601
vt 1.993230 -19.005600
vt 2.000280 -19.009701
vt 2.002570 -18.996500
vt 2.007250 -19.011200
vt 2.009900 -18.995899
vt 1.992180 -18.996300
vt 1.995360 -18.986000
vt 1.989570 -18.990900
vt 2.002220 -18.987700
vt 1.996890 -19.002701
vt 1.984830 -19.002600
vt 2.008490 -18.992800
vt 1.988410 -19.009899
vt 1.995090 -19.014601
vt 2.012480 -18.999701
vt 2.002440 -19.008301
vt 2.013120 -19.006800
vt 2.007330 -19.011700
vt 1.997780 -18.990299
vt 2.003090 -19.002001
vt 2.004640 -18.994400
vt 2.010250 -19.000000
vt 2.010430 -18.992399
vt 2.007330 -19.007601
vt 2.002440 -19.013201
vt 1.995090 -19.003500
vt 1.991510 -18.988800
vt 1.988410 -19.004101
vt 2.007250 -18.988800
vt 2.002570 -19.003500
vt 2.009900 -19.004101
vt 2.000280 -18.990299
vt 1.994560 -19.002001
vt 1.996300 -19.013201
vt 1.990930 -19.007601
vt 1.993230 -18.994400
vt 1.988280 -18.992399
vt 2.002440 -18.991699
vt 2.013120 -18.993200
vt 2.007330 -18.988300
vt 2.012480 -19.000299
vt 1.995090 -18.985399
vt 1.996890 -18.997299
vt 1.988410 -18.990101
vt 2.008490 -19.007200
vt 2.002220 -19.012300
vt 1.984830 -18.997400
vt 1.992180 -19.003700
vt 1.995360 -19.014000
vt 1.989570 -19.009100
vt 1.988410 -18.995899
vt 1.991510 -19.011200
vt 1.995090 -18.996500
vt 1.997780 -19.009701
vt 2.010430 -19.007601
vt 2.004640 -19.005600
vt 2.003090 -18.997999
vt 2.007330 -18.992399
vt 2.002440 -18.986799
vt 59.983601 -16.956800
vt 60.016399 -17.043200
vt 60.016399 -16.956800
vt 59.983601 -17.043200
vt 59.954601 -17.016399
vt 60.023300 -17.016399
vt 60.023300 -16.983601
vt 59.954601 -16.983601
vt 59.976700 -16.956800
vt 59.954601 -17.037001
vt 60.022900 -17.043200
vt 60.045399 -16.956800
vt 59.983601 -17.037001
vt 60.016399 -17.037001
vt 60.022900 -17.016399
vt 60.022900 -16.983601
vt 59.977100 -17.043200
vt 60.023300 -16.956800
vt 59.954601 -16.956800
vt 60.045399 -17.037001
vt 3.988000 -21.000000
vt 3.994560 -20.997999
vt 3.990930 -20.992399
vt 3.996300 -20.986799
vt 3.988280 -21.007601
vt 3.993230 -21.005600
vt 4.000280 -21.009701
vt 4.002570 -20.996500
vt 4.007250 -21.011200
vt 4.009900 -20.995899
vt 3.992180 -20.996300
vt 3.995360 -20.986000
vt 3.989570 -20.990900
vt 4.002220 -20.987700
vt 3.996890 -21.002701
vt 3.984830 -21.002600
vt 4.008490 -20.992800
vt 3.988410 -21.009899
vt 3.995090 -21.014601
vt 4.012480 -20.999701
vt 4.002440 -21.008301
vt 4.013120 -21.006800
vt 4.007330 -21.011700
vt 3.997780 -20.990299
vt 4.003090 -21.002001
vt 4.004640 -20.994400
vt 4.010250 -21.000000
vt 4.010430 -20.992399
vt 4.007330 -21.007601
vt 4.002440 -21.013201
vt 3.995090 -21.003500
vt 3.991510 -20.988800
vt 3.988410 -21.004101
vt 4.007250 -20.988800
vt 4.002570 -21.003500
vt 4.009900 -21.004101
vt 4.000280 -20.990299
vt 3.994560 -21.002001
vt 3.996300 -21.013201
vt 3.990930 -21.007601
vt 3.993230 -20.994400
vt 3.988280 -20.992399
vt 4.002440 -20.991699
vt 4.013120 -20.993200
vt 4.007330 -20.988300
vt 4.012480 -21.000299
vt 3.995090 -20.985399
vt 3.996890 -20.997299
vt 3.988410 -20.990101
vt 4.008490 -21.007200
vt 4.002220 -21.012300
vt 3.984830 -20.997400
vt 3.992180 -21.003700
vt 3.995360 -21.014000
vt 3.989570 -21.009100
vt 3.988410 -20.995899
vt 3.991510 -21.011200
vt 3.995090 -20.996500
vt 3.997780 -21.009701
vt 4.010430 -21.007601
vt 4.004640 -21.005600
vt 4.003090 -20.997999
vt 4.007330 -20.992399
vt 4.002440 -20.986799
vt 27.988001 -41.000000
vt 27.994600 -40.998001
vt 27.990900 -40.992401
vt 27.996300 -40.986801
vt 27.988300 -41.007599
vt 27.993200 -41.005600
vt 28.000299 -41.009701
vt 28.002600 -40.996498
vt 28.007200 -41.011200
vt 28.009899 -40.995899
vt 27.992201 -40.996300
vt 27.995399 -40.986000
vt 27.989599 -40.990898
vt 28.002199 -40.987701
vt 27.996901 -41.002701
vt 27.984800 -41.002602
vt 28.008499 -40.992699
vt 27.988400 -41.009899
vt 27.995100 -41.014599
vt 28.012501 -40.999699
vt 28.002399 -41.008301
vt 28.013100 -41.006802
vt 28.007299 -41.011700
vt 27.997801 -40.990299
vt 28.003099 -41.001999
vt 28.004601 -40.994400
vt 28.010300 -41.000000
vt 28.010401 -40.992401
vt 28.007299 -41.007599
vt 28.002399 -41.013199
vt 27.995100 -41.003502
vt 27.991501 -40.988800
vt 27.988400 -41.004101
vt 28.007200 -40.988800
vt 28.002600 -41.003502
vt 28.009899 -41.004101
vt 28.000299 -40.990299
vt 27.994600 -41.001999
vt 27.996300 -41.013199
vt 27.990900 -41.007599
vt 27.993200 -40.994400
vt 27.988300 -40.992401
vt 28.002399 -40.991699
vt 28.013100 -40.993198
vt 28.007299 -40.988300
vt 28.012501 -41.000301
vt 27.995100 -40.985401
vt 27.996901 -40.997299
vt 27.988400 -40.990101
vt 28.008499 -41.007301
vt 28.002199 -41.012299
vt 27.984800 -40.997398
vt 27.992201 -41.003700
vt 27.995399 -41.014000
vt 27.989599 -41.009102
vt 27.988400 -40.995899
vt 27.991501 -41.011200
vt 27.995100 -40.996498
vt 27.997801 -41.009701
vt 28.010401 -41.007599
vt 28.004601 -41.005600
vt 28.003099 -40.998001
vt 28.007299 -40.992401
vt 28.002399 -40.986801
s 1
usemtl Meshpart1Mtl.002
f 1/1/1 5/2/2 2/3/3
f 4/4/4 2/3/3 5/2/2
f 1/1/1 3/5/5 6/6/6
f 1/1/1 6/6/6 5/2/2
f 7/7/7 5/2/2 6/6/6
f 4/4/4 5/2/2 8/8/8
f 5/2/2 7/7/7 8/8/8
f 9/9/9 8/8/8 7/7/7
f 8/8/8 9/9/9 10/10/10
f 14/11/4 12/12/11 13/13/12
f 12/12/11 14/11/4 11/14/13
f 16/15/14 11/14/13 14/11/4
f 16/15/14 14/11/4 15/16/15
f 11/14/13 16/15/14 17/17/16
f 15/16/15 18/18/10 16/15/14
f 19/19/17 16/15/14 18/18/10
f 17/17/16 16/15/14 20/20/18
f 16/15/14 21/21/19 20/20/18
f 16/15/14 19/19/17 21/21/19
f 20/20/18 21/21/19 22/22/20
f 21/21/19 23/23/21 22/22/20
f 24/24/22 25/25/23 26/26/24
f 27/27/25 26/26/24 25/25/23
f 27/27/25 28/28/12 26/26/24
f 27/27/25 25/25/23 29/29/26
f 25/25/23 30/30/27 29/29/26
f 25/25/23 24/24/22 31/31/28
f 25/25/23 31/31/28 30/30/27
f 32/32/16 31/31/28 24/24/22
f 31/31/28 32/32/16 33/33/29
f 34/34/16 36/35/30 35/36/29
f 36/35/30 34/34/16 38/37/31
f 39/38/32 37/39/33 36/35/30
f 38/37/31 39/38/32 36/35/30
f 37/39/33 39/38/32 40/40/34
f 39/38/32 38/37/31 41/41/35
f 39/38/32 42/1/36 40/40/34
f 41/41/35 42/1/36 39/38/32
f 43/42/21 42/1/36 41/41/35
f 46/43/27 45/44/6 44/45/5
f 45/44/6 46/43/27 48/46/37
f 47/47/38 50/48/39 46/43/27
f 50/48/39 48/46/37 46/43/27
f 49/49/40 50/48/39 47/47/38
f 48/46/37 50/48/39 51/50/41
f 51/50/41 50/48/39 52/51/42
f 53/52/43 50/48/39 49/49/40
f 54/53/33 52/51/42 50/48/39
f 50/48/39 53/52/43 54/53/33
f 56/54/44 54/53/33 55/55/45
f 52/51/42 54/53/33 56/54/44
f 58/56/46 57/57/9 59/58/17
f 57/57/9 60/59/47 59/58/17
f 61/60/48 63/27/49 64/61/50
f 64/61/50 63/27/49 66/62/51
f 66/62/51 63/27/49 65/63/52
f 60/59/47 64/61/50 66/62/51
f 62/64/19 66/62/51 65/63/52
f 59/58/17 60/59/47 66/62/51
f 66/62/51 62/64/19 59/58/17
usemtl Meshpart2Mtl.002
f 67/65/53 68/66/54 69/67/53
f 69/67/53 68/66/54 70/68/54
f 71/69/55 72/70/55 73/71/55
f 74/72/55 73/71/55 72/70/55
f 72/70/55 71/69/55 75/73/55
f 73/71/55 74/72/55 76/74/55
f 71/69/55 77/75/55 75/73/55
f 76/74/55 74/72/55 78/76/55
f 77/75/55 76/74/55 78/76/55
f 71/69/55 79/77/55 77/75/55
f 76/74/55 77/75/55 79/77/55
f 80/78/56 81/79/56 82/80/56
f 83/81/56 82/80/56 81/79/56
f 84/82/56 85/83/56 86/84/56
f 85/83/56 84/82/56 87/85/56
f 88/86/57 89/87/57 90/88/57
f 88/86/57 90/88/57 91/89/57
f 92/90/58 93/91/58 94/92/58
f 94/92/58 95/93/58 92/90/58
f 96/94/59 97/95/59 98/96/59
f 97/95/59 96/94/59 99/97/60
f 100/98/61 101/99/62 102/100/62
f 100/98/61 103/101/61 101/99/62
f 101/99/62 103/101/61 104/102/61
f 105/103/62 106/104/62 104/102/61
f 107/105/62 104/102/61 106/104/62
f 104/102/61 107/105/62 101/99/62
f 108/106/62 101/99/62 107/105/62
f 108/106/62 102/100/62 101/99/62
f 109/107/61 108/106/62 107/105/62
f 110/108/61 108/106/62 109/107/61
f 108/106/62 110/108/61 111/109/62
f 102/100/62 108/106/62 111/109/62
f 111/109/62 112/110/61 102/100/62
f 112/110/61 111/109/62 113/111/63
f 114/112/64 115/113/65 116/114/64
f 115/113/65 114/112/64 117/115/66
f 118/116/67 119/117/68 120/118/68
f 121/119/68 118/116/67 120/118/68
f 120/118/68 119/117/68 122/120/68
f 120/118/68 123/121/69 121/119/68
f 119/117/68 124/122/67 122/120/68
f 124/122/67 121/119/68 123/121/69
f 124/122/67 119/117/68 125/123/67
f 121/119/68 124/122/67 125/123/67
f 126/117/70 127/116/71 128/115/70
f 128/115/70 129/112/70 126/117/70
f 130/118/68 131/121/68 132/124/68
f 132/124/68 133/125/68 130/118/68
f 131/121/68 134/126/68 132/124/68
f 134/126/68 131/121/68 135/122/68
f 135/122/68 136/127/68 134/126/68
f 136/127/68 135/122/68 137/120/68
f 138/128/72 139/129/72 140/130/72
f 139/129/72 138/128/72 141/131/72
f 142/76/73 143/132/73 144/133/73
f 143/132/73 145/134/73 144/133/73
f 143/132/73 142/76/73 146/74/73
f 143/132/73 147/135/73 145/134/73
f 142/76/73 148/77/73 146/74/73
f 149/75/73 145/134/73 147/135/73
f 148/77/73 142/76/73 149/75/73
f 149/75/73 147/135/73 148/77/73
f 150/136/74 151/137/74 152/138/74
f 151/137/74 150/136/74 153/139/74
f 154/140/74 155/141/74 156/142/74
f 154/140/74 156/142/74 157/143/74
f 158/144/75 159/145/76 160/146/76
f 158/144/75 160/146/76 161/147/76
f 162/148/77 163/149/77 164/150/77
f 162/148/77 164/150/77 165/151/77
f 166/152/77 167/153/77 168/154/77
f 166/152/77 168/154/77 169/155/77
f 170/156/77 171/157/78 172/158/77
f 170/156/77 172/158/77 173/159/78
f 174/160/79 175/161/79 176/162/79
f 175/161/79 174/160/79 177/163/80
f 178/164/81 179/165/82 180/166/83
f 181/167/82 180/166/83 179/165/82
f 178/164/81 180/166/83 182/168/81
f 180/166/83 181/167/82 183/169/82
f 182/168/81 184/170/82 178/164/81
f 181/167/82 184/170/82 183/169/82
f 185/171/82 178/164/81 184/170/82
f 181/167/82 185/171/82 184/170/82
f 186/162/84 187/164/84 188/160/85
f 187/164/84 186/162/84 189/165/84
f 190/166/82 191/172/86 192/169/86
f 191/172/86 190/166/82 193/173/82
f 194/174/86 192/169/86 191/172/86
f 192/169/86 194/174/86 195/170/86
f 194/174/86 196/175/86 195/170/86
f 197/168/86 195/170/86 196/175/86
f 197/168/86 196/175/86 198/176/86
usemtl Meshpart3Mtl.002
f 199/177/87 203/178/88 200/179/89
f 202/180/90 200/179/89 203/178/88
f 199/177/87 201/181/91 204/182/92
f 199/177/87 204/182/92 203/178/88
f 205/183/93 203/178/88 204/182/92
f 202/180/90 203/178/88 206/184/94
f 203/178/88 205/183/93 206/184/94
f 207/185/95 206/184/94 205/183/93
f 206/184/94 207/185/95 208/186/96
f 212/187/90 210/188/97 211/189/98
f 210/188/97 212/187/90 209/190/99
f 214/191/100 209/190/99 212/187/90
f 214/191/100 212/187/90 213/192/101
f 209/190/99 214/191/100 215/193/102
f 213/192/101 216/194/96 214/191/100
f 217/195/103 214/191/100 216/194/96
f 215/193/102 214/191/100 218/196/104
f 214/191/100 219/197/105 218/196/104
f 214/191/100 217/195/103 219/197/105
f 218/196/104 219/197/105 220/198/106
f 219/197/105 221/199/107 220/198/106
f 222/200/99 223/201/108 224/202/97
f 225/203/109 224/202/97 223/201/108
f 225/203/109 226/204/110 224/202/97
f 225/203/109 223/201/108 227/205/111
f 223/201/108 228/206/112 227/205/111
f 223/201/108 222/200/99 229/207/113
f 223/201/108 229/207/113 228/206/112
f 230/208/102 229/207/113 222/200/99
f 229/207/113 230/208/102 231/209/114
f 232/210/102 234/211/115 233/212/114
f 234/211/115 232/210/102 236/213/116
f 237/214/117 235/215/118 234/211/115
f 236/213/116 237/214/117 234/211/115
f 235/215/118 237/214/117 238/216/119
f 237/214/117 236/213/116 239/217/106
f 237/214/117 240/177/120 238/216/119
f 239/217/106 240/177/120 237/214/117
f 241/218/121 240/177/120 239/217/106
f 244/219/112 243/220/122 242/221/91
f 243/220/122 244/219/112 246/222/93
f 245/223/123 248/224/124 244/219/112
f 248/224/124 246/222/93 244/219/112
f 247/225/114 248/224/124 245/223/123
f 246/222/93 248/224/124 249/226/95
f 249/226/95 248/224/124 250/227/125
f 251/228/115 248/224/124 247/225/114
f 252/229/118 250/227/125 248/224/124
f 248/224/124 251/228/115 252/229/118
f 254/230/126 252/229/118 253/231/127
f 250/227/125 252/229/118 254/230/126
f 256/232/128 255/233/129 257/234/103
f 255/233/129 258/235/130 257/234/103
f 259/236/127 261/203/120 262/237/131
f 262/237/131 261/203/120 264/238/132
f 264/238/132 261/203/120 263/239/133
f 258/235/130 262/237/131 264/238/132
f 260/240/134 264/238/132 263/239/133
f 257/234/103 258/235/130 264/238/132
f 264/238/132 260/240/134 257/234/103
usemtl Meshpart4Mtl.001
f 265/241/135 269/242/136 266/243/137
f 268/244/138 266/243/137 269/242/136
f 265/241/135 267/245/139 270/246/140
f 265/241/135 270/246/140 269/242/136
f 271/247/141 269/242/136 270/246/140
f 268/244/138 269/242/136 272/248/142
f 269/242/136 271/247/141 272/248/142
f 273/249/143 272/248/142 271/247/141
f 272/248/142 273/249/143 274/250/144
f 278/251/138 276/252/145 277/253/146
f 276/252/145 278/251/138 275/254/147
f 280/255/148 275/254/147 278/251/138
f 280/255/148 278/251/138 279/256/142
f 275/254/147 280/255/148 281/257/149
f 279/256/142 282/258/150 280/255/148
f 283/259/151 280/255/148 282/258/150
f 281/257/149 280/255/148 284/260/152
f 280/255/148 285/261/153 284/260/152
f 280/255/148 283/259/151 285/261/153
f 284/260/152 285/261/153 286/262/154
f 285/261/153 287/263/155 286/262/154
f 288/264/156 289/265/157 290/266/158
f 291/267/159 290/266/158 289/265/157
f 291/267/159 292/268/160 290/266/158
f 291/267/159 289/265/157 293/269/161
f 289/265/157 294/270/162 293/269/161
f 289/265/157 288/264/156 295/271/163
f 289/265/157 295/271/163 294/270/162
f 296/272/149 295/271/163 288/264/156
f 295/271/163 296/272/149 297/273/164
f 298/274/149 300/275/165 299/276/166
f 300/275/165 298/274/149 302/277/167
f 303/278/168 301/279/169 300/275/165
f 302/277/167 303/278/168 300/275/165
f 301/279/169 303/278/168 304/280/170
f 303/278/168 302/277/167 305/281/154
f 303/278/168 306/241/171 304/280/170
f 305/281/154 306/241/171 303/278/168
f 307/282/172 306/241/171 305/281/154
f 310/283/162 309/284/140 308/285/139
f 309/284/140 310/283/162 312/286/141
f 311/287/163 314/288/173 310/283/162
f 314/288/173 312/286/141 310/283/162
f 313/289/166 314/288/173 311/287/163
f 312/286/141 314/288/173 315/290/174
f 315/290/174 314/288/173 316/291/175
f 317/292/176 314/288/173 313/289/166
f 318/293/169 316/291/175 314/288/173
f 314/288/173 317/292/176 318/293/169
f 320/294/177 318/293/169 319/295/178
f 316/291/175 318/293/169 320/294/177
f 322/296/179 321/297/143 323/298/180
f 321/297/143 324/299/181 323/298/180
f 325/300/182 327/267/171 328/301/177
f 328/301/177 327/267/171 330/302/183
f 330/302/183 327/267/171 329/303/184
f 324/299/181 328/301/177 330/302/183
f 326/304/185 330/302/183 329/303/184
f 323/298/180 324/299/181 330/302/183
f 330/302/183 326/304/185 323/298/180
usemtl Meshpart5Mtl.001
f 331/305/186 332/306/186 333/307/186
f 332/306/186 331/305/186 334/308/186
f 335/309/57 336/310/57 337/311/57
f 335/309/57 337/311/57 338/312/57
f 339/313/68 340/314/68 341/315/68
f 341/315/68 342/316/68 339/313/68
f 343/305/187 344/317/187 345/318/187
f 343/305/187 345/318/187 346/307/187
f 347/309/188 348/319/188 349/320/188
f 347/309/188 349/320/188 350/312/188
f 351/321/86 352/322/86 353/323/86
f 352/322/86 351/321/86 354/324/81
usemtl Meshpart6Mtl.001
f 355/325/189 359/326/190 356/327/191
f 358/328/192 356/327/191 359/326/190
f 355/325/189 357/329/193 360/330/194
f 355/325/189 360/330/194 359/326/190
f 361/331/195 359/326/190 360/330/194
f 358/328/192 359/326/190 362/332/196
f 359/326/190 361/331/195 362/332/196
f 363/333/197 362/332/196 361/331/195
f 362/332/196 363/333/197 364/334/198
f 368/335/192 366/336/199 367/337/200
f 366/336/199 368/335/192 365/338/201
f 370/339/202 365/338/201 368/335/192
f 370/339/202 368/335/192 369/340/203
f 365/338/201 370/339/202 371/341/204
f 369/340/203 372/342/198 370/339/202
f 373/343/205 370/339/202 372/342/198
f 371/341/204 370/339/202 374/344/206
f 370/339/202 375/345/207 374/344/206
f 370/339/202 373/343/205 375/345/207
f 374/344/206 375/345/207 376/346/208
f 375/345/207 377/347/209 376/346/208
f 378/348/201 379/349/210 380/350/211
f 381/351/212 380/350/211 379/349/210
f 381/351/212 382/352/213 380/350/211
f 381/351/212 379/349/210 383/353/214
f 379/349/210 384/354/215 383/353/214
f 379/349/210 378/348/201 385/355/216
f 379/349/210 385/355/216 384/354/215
f 386/356/204 385/355/216 378/348/201
f 385/355/216 386/356/204 387/357/217
f 388/358/204 390/359/218 389/360/217
f 390/359/218 388/358/204 392/361/219
f 393/362/220 391/363/221 390/359/218
f 392/361/219 393/362/220 390/359/218
f 391/363/221 393/362/220 394/364/222
f 393/362/220 392/361/219 395/365/208
f 393/362/220 396/325/223 394/364/222
f 395/365/208 396/325/223 393/362/220
f 397/366/209 396/325/223 395/365/208
f 400/367/215 399/368/194 398/369/224
f 399/368/194 400/367/215 402/370/195
f 401/371/216 404/372/225 400/367/215
f 404/372/225 402/370/195 400/367/215
f 403/373/217 404/372/225 401/371/216
f 402/370/195 404/372/225 405/374/226
f 405/374/226 404/372/225 406/375/227
f 407/376/218 404/372/225 403/373/217
f 408/377/228 406/375/227 404/372/225
f 404/372/225 407/376/218 408/377/228
f 410/378/229 408/377/228 409/379/230
f 406/375/227 408/377/228 410/378/229
f 412/380/231 411/381/197 413/382/232
f 411/381/197 414/383/233 413/382/232
f 415/384/234 417/351/223 418/385/235
f 418/385/235 417/351/223 420/386/236
f 420/386/236 417/351/223 419/387/237
f 414/383/233 418/385/235 420/386/236
f 416/388/238 420/386/236 419/387/237
f 413/382/232 414/383/233 420/386/236
f 420/386/236 416/388/238 413/382/232
usemtl Meshpart7Mtl.002
f 421/389/87 425/390/88 422/391/239
f 424/392/90 422/391/239 425/390/88
f 421/389/87 423/393/91 426/394/92
f 421/389/87 426/394/92 425/390/88
f 427/395/93 425/390/88 426/394/92
f 424/392/90 425/390/88 428/396/94
f 425/390/88 427/395/93 428/396/94
f 429/397/129 428/396/94 427/395/93
f 428/396/94 429/397/129 430/398/96
f 434/399/90 432/400/97 433/401/98
f 432/400/97 434/399/90 431/402/240
f 436/403/100 431/402/240 434/399/90
f 436/403/100 434/399/90 435/404/94
f 431/402/240 436/403/100 437/405/102
f 435/404/94 438/406/241 436/403/100
f 439/407/103 436/403/100 438/406/241
f 437/405/102 436/403/100 440/408/104
f 436/403/100 441/409/105 440/408/104
f 436/403/100 439/407/103 441/409/105
f 440/408/104 441/409/105 442/410/106
f 441/409/105 443/411/121 442/410/106
f 444/412/240 445/413/108 446/414/97
f 447/415/109 446/414/97 445/413/108
f 447/415/109 448/416/110 446/414/97
f 447/415/109 445/413/108 449/417/111
f 445/413/108 450/418/242 449/417/111
f 445/413/108 444/412/240 451/419/123
f 445/413/108 451/419/123 450/418/242
f 452/420/102 451/419/123 444/412/240
f 451/419/123 452/420/102 453/421/114
f 454/422/102 456/423/243 455/424/114
f 456/423/243 454/422/102 458/425/244
f 459/426/117 457/427/118 456/423/243
f 458/425/244 459/426/117 456/423/243
f 457/427/118 459/426/117 460/428/119
f 459/426/117 458/425/244 461/429/245
f 459/426/117 462/389/246 460/428/119
f 461/429/245 462/389/246 459/426/117
f 463/430/121 462/389/246 461/429/245
f 466/431/112 465/432/122 464/433/91
f 465/432/122 466/431/112 468/434/247
f 467/435/123 470/436/124 466/431/112
f 470/436/124 468/434/247 466/431/112
f 469/437/114 470/436/124 467/435/123
f 468/434/247 470/436/124 471/438/129
f 471/438/129 470/436/124 472/439/125
f 473/440/115 470/436/124 469/437/114
f 474/441/118 472/439/125 470/436/124
f 470/436/124 473/440/115 474/441/118
f 476/442/131 474/441/118 475/443/248
f 472/439/125 474/441/118 476/442/131
f 478/444/128 477/445/129 479/446/103
f 477/445/129 480/447/130 479/446/103
f 481/448/127 483/415/120 484/449/131
f 484/449/131 483/415/120 486/450/132
f 486/450/132 483/415/120 485/451/133
f 480/447/130 484/449/131 486/450/132
f 482/452/105 486/450/132 485/451/133
f 479/446/103 480/447/130 486/450/132
f 486/450/132 482/452/105 479/446/103
