# This file is brought to you by Roblox Corporation
# Generated by Roblox Studio

mtllib Bubble Handgun Mag.mtl

g Meshpart1

v -390.076 4.81897 29.7629 
v -390.077 4.87993 29.7863 
v -390.052 4.75801 29.7651 
v -390.056 4.92459 29.8293 
v -390.111 4.8353 29.8153 
v -390.099 4.77434 29.8047 
v -390.093 4.74165 29.8611 
v -390.115 4.84727 29.8795 
v -390.018 4.94094 29.8801 
v -390.061 4.72968 29.9169 
v -390.086 4.85165 29.9381 
v -389.976 4.89629 29.7606 
v -390.031 4.8636 29.7467 
v -390.077 4.87993 29.7863 
v -390.056 4.92459 29.8293 
v -390.115 4.84727 29.8795 
v -390.018 4.94094 29.8801 
v -389.926 4.90826 29.8009 
v -389.901 4.78629 29.7797 
v -390.086 4.85165 29.9381 
v -390.033 4.84727 29.9755 
v -390.011 4.74165 29.9571 
v -389.894 4.89629 29.8567 
v -389.974 4.92459 29.9253 
v -389.889 4.8636 29.9131 
v -389.935 4.87993 29.9527 
v -389.976 4.89629 29.7606 
v -390.018 4.80263 29.7361 
v -390.031 4.8636 29.7467 
v -390.076 4.81897 29.7629 
v -390.077 4.87993 29.7863 
v -390.052 4.75801 29.7651 
v -390.111 4.8353 29.8153 
v -390.013 4.71335 29.7925 
v -389.954 4.79067 29.7423 
v -389.926 4.90826 29.8009 
v -389.901 4.78629 29.7797 
v -389.926 4.90826 29.8009 
v -389.901 4.78629 29.7797 
v -389.969 4.697 29.8377 
v -390.011 4.74165 29.9571 
v -389.872 4.79067 29.8383 
v -389.931 4.71335 29.8885 
v -389.894 4.89629 29.8567 
v -389.876 4.80263 29.9024 
v -389.91 4.75801 29.9314 
v -389.889 4.8636 29.9131 
v -389.912 4.81897 29.9549 
v -389.935 4.87993 29.9527 
v -390.077 4.87993 29.7863 
v -390.052 4.75801 29.7651 
v -390.099 4.77434 29.8047 
v -390.013 4.71335 29.7925 
v -389.954 4.79067 29.7423 
v -390.093 4.74165 29.8611 
v -389.901 4.78629 29.7797 
v -389.969 4.697 29.8377 
v -390.061 4.72968 29.9169 
v -390.011 4.74165 29.9571 
v -389.872 4.79067 29.8383 
v -389.931 4.71335 29.8885 
v -389.91 4.75801 29.9314 
v -389.956 4.77434 29.971 
v -390.018 4.94094 29.8801 
v -390.061 4.72968 29.9169 
v -390.086 4.85165 29.9381 
v -390.033 4.84727 29.9755 
v -390.011 4.74165 29.9571 
v -389.876 4.80263 29.9024 
v -389.91 4.75801 29.9314 
v -389.974 4.92459 29.9253 
v -389.912 4.81897 29.9549 
v -389.956 4.77434 29.971 
v -389.935 4.87993 29.9527 
v -389.969 4.8353 29.9816 

vn -0.653543 0 -0.76378 
vn -0.645669 0.535433 -0.535433 
vn -0.433071 -0.543307 -0.724409 
vn -0.480315 0.850394 -0.204724 
vn -0.952756 0.141732 -0.283465 
vn -0.84252 -0.393701 -0.377953 
vn -0.779528 -0.622047 0.0551181 
vn -0.952756 0.228346 0.19685 
vn -0.19685 0.968504 0.165354 
vn -0.535433 -0.708661 0.456693 
vn -0.732283 0.259843 0.629921 
vn 0.173228 0.622047 -0.76378 
vn -0.23622 0.393701 -0.889764 
vn -0.645669 0.535433 -0.535433 
vn -0.480315 0.850394 -0.204724 
vn -0.952756 0.228346 0.19685 
vn -0.19685 0.968504 0.165354 
vn 0.535433 0.708661 -0.456693 
vn 0.732283 -0.259843 -0.629921 
vn -0.732283 0.259843 0.629921 
vn -0.346457 0.228346 0.913386 
vn -0.173228 -0.622047 0.76378 
vn 0.779528 0.622047 -0.0551181 
vn 0.125984 0.850394 0.503937 
vn 0.84252 0.393701 0.377953 
vn 0.433071 0.535433 0.724409 
vn 0.173228 0.622047 -0.76378 
vn -0.125984 -0.141732 -0.984252 
vn -0.23622 0.393701 -0.889764 
vn -0.653543 0 -0.76378 
vn -0.645669 0.535433 -0.535433 
vn -0.433071 -0.543307 -0.724409 
vn -0.952756 0.141732 -0.283465 
vn -0.125984 -0.850394 -0.503937 
vn 0.346457 -0.228346 -0.913386 
vn 0.535433 0.708661 -0.456693 
vn 0.732283 -0.259843 -0.629921 
vn 0.535433 0.708661 -0.456693 
vn 0.732283 -0.259843 -0.629921 
vn 0.19685 -0.968504 -0.165354 
vn -0.173228 -0.622047 0.76378 
vn 0.952756 -0.228346 -0.19685 
vn 0.480315 -0.850394 0.204724 
vn 0.779528 0.622047 -0.0551181 
vn 0.952756 -0.141732 0.283465 
vn 0.645669 -0.543307 0.535433 
vn 0.84252 0.393701 0.377953 
vn 0.645669 0 0.76378 
vn 0.433071 0.535433 0.724409 
vn -0.645669 0.535433 -0.535433 
vn -0.433071 -0.543307 -0.724409 
vn -0.84252 -0.393701 -0.377953 
vn -0.125984 -0.850394 -0.503937 
vn 0.346457 -0.228346 -0.913386 
vn -0.779528 -0.622047 0.0551181 
vn 0.732283 -0.259843 -0.629921 
vn 0.19685 -0.968504 -0.165354 
vn -0.535433 -0.708661 0.456693 
vn -0.173228 -0.622047 0.76378 
vn 0.952756 -0.228346 -0.19685 
vn 0.480315 -0.850394 0.204724 
vn 0.645669 -0.543307 0.535433 
vn 0.23622 -0.393701 0.889764 
vn -0.19685 0.968504 0.165354 
vn -0.535433 -0.708661 0.456693 
vn -0.732283 0.259843 0.629921 
vn -0.346457 0.228346 0.913386 
vn -0.173228 -0.622047 0.76378 
vn 0.952756 -0.141732 0.283465 
vn 0.645669 -0.543307 0.535433 
vn 0.125984 0.850394 0.503937 
vn 0.645669 0 0.76378 
vn 0.23622 -0.393701 0.889764 
vn 0.433071 0.535433 0.724409 
vn 0.125984 0.141732 0.984252 

vt 49.988 -27 
vt 49.9909 -26.9924 
vt 49.9883 -27.0076 
vt 49.9963 -26.9868 
vt 49.9946 -26.998 
vt 49.9932 -27.0056 
vt 50.0003 -27.0097 
vt 50.0026 -26.9965 
vt 50.0027 -26.9848 
vt 50.0073 -27.0112 
vt 50.0099 -26.9959 
vt 50.0022 -26.9877 
vt 49.9954 -26.986 
vt 49.9896 -26.9909 
vt 49.9922 -26.9963 
vt 49.9848 -27.0026 
vt 49.9969 -27.0027 
vt 50.0085 -26.9928 
vt 50.0116 -26.9901 
vt 49.9884 -27.0099 
vt 49.9951 -27.0146 
vt 49.9978 -27.0123 
vt 50.0125 -26.9997 
vt 50.0024 -27.0083 
vt 50.0131 -27.0068 
vt 50.0073 -27.0117 
vt 49.9978 -26.9903 
vt 50.0031 -27.002 
vt 50.0046 -26.9944 
vt 50.0103 -27 
vt 50.0104 -26.9924 
vt 50.0073 -27.0076 
vt 50.0147 -26.998 
vt 50.0024 -27.0132 
vt 49.9951 -27.0035 
vt 49.9915 -26.9888 
vt 49.9884 -27.0041 
vt 50.0073 -26.9888 
vt 50.0099 -27.0041 
vt 50.0027 -27.0152 
vt 49.9877 -27.0097 
vt 50.0026 -27.0035 
vt 49.9963 -27.0132 
vt 50.0003 -26.9903 
vt 49.9946 -27.002 
vt 49.9909 -27.0076 
vt 49.9932 -26.9944 
vt 49.988 -27 
vt 49.9883 -26.9924 
vt 50.0104 -26.9909 
vt 50.0073 -26.9883 
vt 50.0131 -26.9932 
vt 50.0024 -26.9917 
vt 49.9951 -26.9854 
vt 50.0125 -27.0003 
vt 49.9884 -26.9901 
vt 49.9969 -26.9973 
vt 50.0085 -27.0072 
vt 50.0022 -27.0123 
vt 49.9848 -26.9974 
vt 49.9922 -27.0037 
vt 49.9896 -27.0091 
vt 49.9954 -27.014 
vt 49.9969 -26.9848 
vt 49.9915 -27.0112 
vt 49.9884 -26.9959 
vt 49.9951 -26.9965 
vt 49.9978 -27.0097 
vt 50.0147 -27.002 
vt 50.0104 -27.0076 
vt 50.0024 -26.9868 
vt 50.0103 -27 
vt 50.0046 -27.0056 
vt 50.0073 -26.9924 
vt 50.0031 -26.998 

usemtl Meshpart1Mtl

f 1/1/1 5/5/5 2/2/2 
f 4/4/4 2/2/2 5/5/5 
f 1/1/1 3/3/3 6/6/6 
f 1/1/1 6/6/6 5/5/5 
f 7/7/7 5/5/5 6/6/6 
f 4/4/4 5/5/5 8/8/8 
f 5/5/5 7/7/7 8/8/8 
f 10/10/10 8/8/8 7/7/7 
f 8/8/8 10/10/10 11/11/11 
f 15/15/15 13/13/13 14/14/14 
f 13/13/13 15/15/15 12/12/12 
f 17/17/17 12/12/12 15/15/15 
f 17/17/17 15/15/15 16/16/16 
f 12/12/12 17/17/17 18/18/18 
f 16/16/16 20/20/20 17/17/17 
f 21/21/21 17/17/17 20/20/20 
f 18/18/18 17/17/17 23/23/23 
f 17/17/17 24/24/24 23/23/23 
f 17/17/17 21/21/21 24/24/24 
f 23/23/23 24/24/24 25/25/25 
f 24/24/24 26/26/26 25/25/25 
f 27/27/27 28/28/28 29/29/29 
f 30/30/30 29/29/29 28/28/28 
f 30/30/30 31/31/31 29/29/29 
f 30/30/30 28/28/28 32/32/32 
f 28/28/28 34/34/34 32/32/32 
f 28/28/28 27/27/27 35/35/35 
f 28/28/28 35/35/35 34/34/34 
f 36/36/36 35/35/35 27/27/27 
f 35/35/35 36/36/36 37/37/37 
f 38/38/38 42/42/42 39/39/39 
f 42/42/42 38/38/38 44/44/44 
f 45/45/45 43/43/43 42/42/42 
f 44/44/44 45/45/45 42/42/42 
f 43/43/43 45/45/45 46/46/46 
f 45/45/45 44/44/44 47/47/47 
f 45/45/45 48/48/48 46/46/46 
f 47/47/47 48/48/48 45/45/45 
f 49/49/49 48/48/48 47/47/47 
f 53/53/53 52/52/52 51/51/51 
f 52/52/52 53/53/53 55/55/55 
f 54/54/54 57/57/57 53/53/53 
f 57/57/57 55/55/55 53/53/53 
f 56/56/56 57/57/57 54/54/54 
f 55/55/55 57/57/57 58/58/58 
f 58/58/58 57/57/57 59/59/59 
f 60/60/60 57/57/57 56/56/56 
f 61/61/61 59/59/59 57/57/57 
f 57/57/57 60/60/60 61/61/61 
f 63/63/63 61/61/61 62/62/62 
f 59/59/59 61/61/61 63/63/63 
f 66/66/66 65/65/65 67/67/67 
f 65/65/65 68/68/68 67/67/67 
f 70/70/70 72/72/72 73/73/73 
f 73/73/73 72/72/72 75/75/75 
f 75/75/75 72/72/72 74/74/74 
f 68/68/68 73/73/73 75/75/75 
f 71/71/71 75/75/75 74/74/74 
f 67/67/67 68/68/68 75/75/75 
f 75/75/75 71/71/71 67/67/67 

g Meshpart2

v -389.846 4.51443 29.4769 
v -390.16 4.61361 29.4257 
v -389.826 4.61361 29.4257 
v -390.139 4.51443 29.4769 
v -389.846 4.51443 29.4769 
v -390.133 4.65991 29.4841 
v -389.89 4.70127 29.4736 
v -389.852 4.65991 29.4841 
v -389.89 5.30219 29.32 
v -390.096 4.70127 29.4736 
v -389.852 5.40067 29.2948 
v -390.096 5.35312 29.307 
v -389.89 5.35312 29.307 
v -390.133 5.40067 29.2948 
v -389.852 5.35169 29.8383 
v -389.852 4.74806 30.0084 
v -389.89 5.35169 29.8383 
v -389.89 4.74806 30.0084 
v -390.133 5.35169 29.8383 
v -390.096 4.74806 30.0084 
v -390.133 4.74806 30.0084 
v -390.096 5.35169 29.8383 
v -389.826 4.67472 30.1241 
v -390.133 5.40067 29.2948 
v -390.133 5.40067 29.8842 
v -389.852 5.40067 29.8842 
v -389.852 5.40067 29.2948 
v -389.826 4.61361 29.4257 
v -390.096 5.35252 29.8973 
v -390.133 4.71128 30.0713 
v -390.096 4.75258 30.0601 
v -389.852 4.71128 30.0713 
v -389.89 4.70127 29.4736 
v -390.096 4.70127 29.4736 
v -389.89 5.35312 29.307 
v -390.133 4.74806 30.0084 
v -389.852 4.74806 30.0084 
v -389.852 4.71128 30.0713 
v -390.133 4.71128 30.0713 
v -390.16 4.67472 30.1241 
v -389.826 4.67472 30.1241 
v -390.16 4.61361 29.4257 
v -389.852 4.65991 29.4841 
v -389.826 4.61361 29.4257 
v -390.133 4.65991 29.4841 
v -390.096 4.75258 30.0601 
v -389.908 4.74806 30.0084 
v -390.096 4.74806 30.0084 
v -389.89 4.75258 30.0601 
v -389.89 4.74806 30.0084 
v -389.852 4.74806 30.0084 
v -389.852 4.70608 29.5286 
v -389.89 4.70608 29.5286 
v -390.076 4.70608 29.5286 
v -389.89 4.70127 29.4736 
v -390.096 4.70127 29.4736 
v -390.096 4.70608 29.5286 
v -390.133 4.74806 30.0084 
v -390.133 4.70608 29.5286 
v -389.826 4.67472 30.1241 
v -389.846 4.56815 30.0909 
v -389.852 5.40067 29.8842 
v -389.846 4.51443 29.4769 
v -389.826 4.61361 29.4257 
v -390.096 5.35252 29.8973 
v -390.133 4.71128 30.0713 
v -389.852 4.71128 30.0713 
v -389.89 4.70127 29.4736 
v -389.826 4.61361 29.4257 
v -389.846 4.56815 30.0909 
v -389.846 4.51443 29.4769 
v -389.826 4.67472 30.1241 
v -390.133 4.74806 30.0084 
v -389.852 4.71128 30.0713 
v -389.852 4.65991 29.4841 
v -389.852 4.74806 30.0084 
v -389.852 5.40067 29.8842 
v -389.852 4.70608 29.5286 
v -389.852 5.35169 29.8383 
v -389.852 5.35025 29.363 
v -389.852 5.40067 29.2948 
v -389.852 4.65991 29.4841 
v -389.852 4.71128 30.0713 
v -389.826 4.67472 30.1241 
v -389.826 4.61361 29.4257 
v -390.096 4.74806 30.0084 
v -390.096 5.35169 29.8383 
v -390.096 5.35252 29.8973 
v -390.096 4.75258 30.0601 
v -390.096 5.35312 29.307 
v -390.096 5.35025 29.363 
v -390.096 4.70127 29.4736 
v -390.096 4.70608 29.5286 
v -390.139 4.56815 30.0909 
v -389.826 4.67472 30.1241 
v -390.16 4.67472 30.1241 
v -389.846 4.56815 30.0909 
v -390.096 5.35252 29.8973 
v -390.133 4.71128 30.0713 
v -390.096 4.75258 30.0601 
v -389.89 4.75258 30.0601 
v -390.133 5.40067 29.8842 
v -389.852 4.71128 30.0713 
v -389.852 5.40067 29.8842 
v -389.89 5.35252 29.8973 
v -390.133 4.70608 29.5286 
v -390.096 5.35025 29.363 
v -390.133 5.35025 29.363 
v -390.096 4.70608 29.5286 
v -389.89 5.35025 29.363 
v -389.89 4.70608 29.5286 
v -389.852 4.70608 29.5286 
v -389.852 5.35025 29.363 
v -390.139 4.56815 30.0909 
v -389.826 4.67472 30.1241 
v -389.846 4.56815 30.0909 
v -390.133 5.40067 29.2948 
v -389.852 5.40067 29.8842 
v -390.139 4.56815 30.0909 
v -390.139 4.51443 29.4769 
v -389.846 4.51443 29.4769 
v -389.846 4.56815 30.0909 
v -390.16 4.61361 29.4257 
v -389.826 4.61361 29.4257 
v -390.096 5.35252 29.8973 
v -390.096 4.75258 30.0601 
v -389.89 5.35312 29.307 
v -390.076 4.70608 29.5286 
v -389.89 5.35169 29.8383 
v -389.89 5.35025 29.363 
v -389.852 5.35025 29.363 
v -389.852 5.35169 29.8383 
v -390.133 5.35169 29.8383 
v -390.133 5.35025 29.363 
v -390.096 5.35025 29.363 
v -390.096 5.35169 29.8383 
v -390.096 5.35252 29.8973 
v -390.096 5.35312 29.307 
v -389.89 5.35312 29.307 
v -389.89 5.35252 29.8973 
v -390.139 4.56815 30.0909 
v -389.852 5.40067 29.8842 
v -390.16 4.61361 29.4257 
v -390.096 5.35252 29.8973 
v -390.133 4.71128 30.0713 
v -389.852 4.71128 30.0713 
v -390.096 4.70127 29.4736 
v -390.16 4.61361 29.4257 
v -390.139 4.56815 30.0909 
v -390.16 4.67472 30.1241 
v -390.139 4.51443 29.4769 
v -390.133 4.65991 29.4841 
v -390.133 4.71128 30.0713 
v -390.133 4.74806 30.0084 
v -390.133 5.40067 29.8842 
v -390.133 4.70608 29.5286 
v -390.133 5.35169 29.8383 
v -390.133 5.35025 29.363 
v -390.133 5.40067 29.2948 
v -389.852 4.74806 30.0084 
v -390.16 4.67472 30.1241 
v -390.133 4.65991 29.4841 
v -390.16 4.61361 29.4257 
v -390.133 4.71128 30.0713 
v -389.89 4.74806 30.0084 
v -389.89 5.35252 29.8973 
v -389.89 5.35169 29.8383 
v -389.89 4.75258 30.0601 
v -389.89 5.35312 29.307 
v -389.89 5.35025 29.363 
v -389.89 5.30219 29.32 
v -389.89 4.70608 29.5286 
v -389.89 4.70127 29.4736 

vn 0 -1 0.0866142 
vn 0 -0.456693 -0.889764 
vn 0 -0.456693 -0.889764 
vn 0 -0.456693 -0.889764 
vn 0 -0.456693 -0.889764 
vn 0 -0.244094 -0.968504 
vn 0 -0.244094 -0.968504 
vn 0 -0.244094 -0.968504 
vn 0 -0.244094 -0.968504 
vn 0 -0.244094 -0.968504 
vn 0 -0.244094 -0.968504 
vn 0 -0.244094 -0.968504 
vn 0 -0.244094 -0.968504 
vn 0 -0.244094 -0.968504 
vn 0 -0.267717 -0.96063 
vn 0 -0.267717 -0.96063 
vn 0 -0.267717 -0.96063 
vn 0 -0.267717 -0.96063 
vn 0 -0.267717 -0.96063 
vn 0 -0.267717 -0.96063 
vn 0 -0.267717 -0.96063 
vn 0 -0.267717 -0.96063 
vn 0 -0.299213 0.952756 
vn 0 1 0 
vn 0 1 0 
vn 0 1 0 
vn 0 1 0 
vn 0 -0.456693 -0.889764 
vn 0 0.259843 0.968504 
vn 0 0.259843 0.968504 
vn 0 0.259843 0.968504 
vn 0 0.259843 0.968504 
vn 0 -0.244094 -0.968504 
vn 0 -0.244094 -0.968504 
vn 0 -0.244094 -0.968504 
vn -1 0 0 
vn 1 0 0 
vn 0 0.818898 0.566929 
vn 0 0.818898 0.566929 
vn 0 0.818898 0.566929 
vn 0 0.818898 0.566929 
vn 0 0.787402 -0.622047 
vn 0 0.787402 -0.622047 
vn 0 0.787402 -0.622047 
vn 0 0.787402 -0.622047 
vn 0 1 -0.0866142 
vn 0 1 -0.0866142 
vn 0 1 -0.0866142 
vn 0 1 -0.0866142 
vn 0 1 -0.0866142 
vn 0 1 -0.0866142 
vn 0 1 -0.0866142 
vn 0 1 -0.0866142 
vn 0 1 -0.0866142 
vn 0 1 -0.0866142 
vn 0 1 -0.0866142 
vn 0 1 -0.0866142 
vn 0 1 -0.0866142 
vn 0 1 -0.0866142 
vn 0 -0.299213 0.952756 
vn 0 -0.299213 0.952756 
vn 0 1 0 
vn 0 -1 0.0866142 
vn 0 -0.456693 -0.889764 
vn 0 0.259843 0.968504 
vn 0 0.259843 0.968504 
vn 0 0.259843 0.968504 
vn 0 -0.244094 -0.968504 
vn 0.984252 -0.188976 0.015748 
vn 0.984252 -0.188976 0.015748 
vn 0.984252 -0.188976 0.015748 
vn 0.984252 -0.188976 0.015748 
vn -1 0 0 
vn 1 0 0 
vn 1 0 0 
vn 1 0 0 
vn 1 0 0 
vn 1 0 0 
vn 1 0 0 
vn 1 0 0 
vn 1 0 0 
vn 0.84252 0.543307 -0.0472441 
vn 0.84252 0.543307 -0.0472441 
vn 0.84252 0.543307 -0.0472441 
vn 0.84252 0.543307 -0.0472441 
vn 1 0 0 
vn 1 0 0 
vn 1 0 0 
vn 1 0 0 
vn 1 0 0 
vn 1 0 0 
vn 1 0 0 
vn 1 0 0 
vn 0 -0.299213 0.952756 
vn 0 -0.299213 0.952756 
vn 0 -0.299213 0.952756 
vn 0 -0.299213 0.952756 
vn 0 0.259843 0.968504 
vn 0 0.259843 0.968504 
vn 0 0.259843 0.968504 
vn 0 0.259843 0.968504 
vn 0 0.259843 0.968504 
vn 0 0.259843 0.968504 
vn 0 0.259843 0.968504 
vn 0 0.259843 0.968504 
vn 0 0.251969 0.968504 
vn 0 0.251969 0.968504 
vn 0 0.251969 0.968504 
vn 0 0.251969 0.968504 
vn 0 0.251969 0.968504 
vn 0 0.251969 0.968504 
vn 0 0.251969 0.968504 
vn 0 0.251969 0.968504 
vn 0 -0.299213 0.952756 
vn 0 -0.299213 0.952756 
vn 0 -0.299213 0.952756 
vn 0 1 0 
vn 0 1 0 
vn 0 -1 0.0866142 
vn 0 -1 0.0866142 
vn 0 -1 0.0866142 
vn 0 -1 0.0866142 
vn 0 -0.456693 -0.889764 
vn 0 -0.456693 -0.889764 
vn 0 0.259843 0.968504 
vn 0 0.259843 0.968504 
vn 0 -0.244094 -0.968504 
vn 0 1 -0.0866142 
vn 0 -1 0 
vn 0 -1 0 
vn 0 -1 0 
vn 0 -1 0 
vn 0 -1 0 
vn 0 -1 0 
vn 0 -1 0 
vn 0 -1 0 
vn 0 -1 0 
vn 0 -1 0 
vn 0 -1 0 
vn 0 -1 0 
vn 0 -0.299213 0.952756 
vn 0 1 0 
vn 0 -0.456693 -0.889764 
vn 0 0.259843 0.968504 
vn 0 0.259843 0.968504 
vn 0 0.259843 0.968504 
vn 0 -0.244094 -0.968504 
vn -0.984252 -0.188976 0.015748 
vn -0.984252 -0.188976 0.015748 
vn -0.984252 -0.188976 0.015748 
vn -0.984252 -0.188976 0.015748 
vn -1 0 0 
vn -1 0 0 
vn -1 0 0 
vn -1 0 0 
vn -1 0 0 
vn -1 0 0 
vn -1 0 0 
vn -1 0 0 
vn 1 0 0 
vn -0.84252 0.543307 -0.0472441 
vn -0.84252 0.543307 -0.0472441 
vn -0.84252 0.543307 -0.0472441 
vn -0.84252 0.543307 -0.0472441 
vn -1 0 0 
vn -1 0 0 
vn -1 0 0 
vn -1 0 0 
vn -1 0 0 
vn -1 0 0 
vn -1 0 0 
vn -1 0 0 
vn -1 0 0 

vt 35.9817 -25.0554 
vt 36.0209 -25.043 
vt 35.9791 -25.043 
vt 36.0183 -25.0554 
vt 35.9817 -25.0554 
vt 36.0175 -25.0372 
vt 35.9871 -25.032 
vt 35.9825 -25.0372 
vt 35.9871 -24.9569 
vt 36.0129 -25.032 
vt 35.9825 -24.9446 
vt 36.0129 -24.9506 
vt 35.9871 -24.9506 
vt 36.0175 -24.9446 
vt 35.9825 -24.9507 
vt 35.9825 -25.0262 
vt 35.9871 -24.9507 
vt 35.9871 -25.0262 
vt 36.0175 -24.9507 
vt 36.0129 -25.0262 
vt 36.0175 -25.0262 
vt 36.0129 -24.9507 
vt 36.0518 -24.9791 
vt 35.9482 -25.0175 
vt 36.0218 -25.0175 
vt 36.0218 -24.9825 
vt 35.9482 -24.9825 
vt 35.9645 -24.9791 
vt 36.0235 -25.0129 
vt 36.0452 -25.0175 
vt 36.0438 -25.0129 
vt 36.0452 -24.9825 
vt 35.9705 -24.9871 
vt 35.9705 -25.0129 
vt 35.9497 -24.9871 
vt 36.0374 -25.0175 
vt 36.0374 -24.9825 
vt 36.0452 -24.9825 
vt 36.0452 -25.0175 
vt 36.0518 -25.0209 
vt 36.0518 -24.9791 
vt 35.9645 -25.0209 
vt 35.9718 -24.9825 
vt 35.9645 -24.9791 
vt 35.9718 -25.0175 
vt 36.0438 -25.0129 
vt 36.0374 -24.9894 
vt 36.0374 -25.0129 
vt 36.0438 -24.9871 
vt 36.0374 -24.9871 
vt 36.0374 -24.9825 
vt 35.9774 -24.9825 
vt 35.9774 -24.9871 
vt 35.9774 -25.0105 
vt 35.9705 -24.9871 
vt 35.9705 -25.0129 
vt 35.9774 -25.0129 
vt 36.0374 -25.0175 
vt 35.9774 -25.0175 
vt 35.9482 -25.0354 
vt 35.9523 -25.0487 
vt 35.9782 -24.9446 
vt 36.0291 -25.0554 
vt 36.0355 -25.043 
vt 35.9765 -24.9506 
vt 35.9548 -25.0308 
vt 35.9548 -25.0308 
vt 36.0295 -25.032 
vt 36.0355 -25.043 
vt 35.9523 -25.0487 
vt 36.0291 -25.0554 
vt 35.9482 -25.0354 
vt 35.9626 -25.0262 
vt 35.9548 -25.0308 
vt 36.0282 -25.0372 
vt 35.9626 -25.0262 
vt 35.9782 -24.9446 
vt 36.0226 -25.0314 
vt 35.9839 -24.9507 
vt 36.0433 -24.9509 
vt 36.0518 -24.9446 
vt 36.0282 -25.0372 
vt 35.9548 -25.0308 
vt 35.9482 -25.0354 
vt 36.0355 -25.043 
vt 35.9626 -25.0262 
vt 35.9839 -24.9507 
vt 35.9765 -24.9506 
vt 35.9562 -25.0256 
vt 36.0503 -24.9506 
vt 36.0433 -24.9509 
vt 36.0295 -25.032 
vt 36.0226 -25.0314 
vt 35.9817 -25.0487 
vt 36.0209 -25.0354 
vt 35.9791 -25.0354 
vt 36.0183 -25.0487 
vt 35.9871 -24.9506 
vt 35.9825 -25.0308 
vt 35.9871 -25.0256 
vt 36.0129 -25.0256 
vt 35.9825 -24.9446 
vt 36.0175 -25.0308 
vt 36.0175 -24.9446 
vt 36.0129 -24.9506 
vt 35.9825 -25.0314 
vt 35.9871 -24.9509 
vt 35.9825 -24.9509 
vt 35.9871 -25.0314 
vt 36.0129 -24.9509 
vt 36.0129 -25.0314 
vt 36.0175 -25.0314 
vt 36.0175 -24.9509 
vt 35.9523 -25.0183 
vt 35.9482 -24.9791 
vt 35.9523 -24.9817 
vt 36.0518 -25.0175 
vt 35.9782 -24.9825 
vt 35.9523 -25.0183 
vt 36.0291 -25.0183 
vt 36.0291 -24.9817 
vt 35.9523 -24.9817 
vt 36.0355 -25.0209 
vt 36.0355 -24.9791 
vt 35.9765 -25.0129 
vt 35.9562 -25.0129 
vt 36.0503 -24.9871 
vt 36.0226 -25.0105 
vt 35.9839 -24.9871 
vt 36.0433 -24.9871 
vt 36.0433 -24.9825 
vt 35.9839 -24.9825 
vt 35.9839 -25.0175 
vt 36.0433 -25.0175 
vt 36.0433 -25.0129 
vt 35.9839 -25.0129 
vt 35.9765 -25.0129 
vt 36.0503 -25.0129 
vt 36.0503 -24.9871 
vt 35.9765 -24.9871 
vt 36.0477 -25.0487 
vt 36.0218 -24.9446 
vt 35.9645 -25.043 
vt 36.0235 -24.9506 
vt 36.0452 -25.0308 
vt 36.0452 -25.0308 
vt 35.9705 -25.032 
vt 35.9645 -25.043 
vt 36.0477 -25.0487 
vt 36.0518 -25.0354 
vt 35.9709 -25.0554 
vt 35.9718 -25.0372 
vt 36.0452 -25.0308 
vt 36.0374 -25.0262 
vt 36.0218 -24.9446 
vt 35.9774 -25.0314 
vt 36.0161 -24.9507 
vt 35.9567 -24.9509 
vt 35.9482 -24.9446 
vt 36.0374 -25.0262 
vt 36.0518 -25.0354 
vt 35.9718 -25.0372 
vt 35.9645 -25.043 
vt 36.0452 -25.0308 
vt 36.0374 -25.0262 
vt 36.0235 -24.9506 
vt 36.0161 -24.9507 
vt 36.0438 -25.0256 
vt 35.9497 -24.9506 
vt 35.9567 -24.9509 
vt 35.9513 -24.9569 
vt 35.9774 -25.0314 
vt 35.9705 -25.032 

usemtl Meshpart2Mtl

f 77/77/77 78/78/78 79/79/79 
f 79/79/79 78/78/78 80/80/80 
f 81/81/81 82/82/82 83/83/83 
f 84/84/84 83/83/83 82/82/82 
f 82/82/82 81/81/81 85/85/85 
f 83/83/83 84/84/84 86/86/86 
f 81/81/81 87/87/87 85/85/85 
f 86/86/86 84/84/84 88/88/88 
f 87/87/87 86/86/86 88/88/88 
f 81/81/81 89/89/89 87/87/87 
f 86/86/86 87/87/87 89/89/89 
f 90/90/90 91/91/91 92/92/92 
f 93/93/93 92/92/92 91/91/91 
f 94/94/94 95/95/95 96/96/96 
f 95/95/95 94/94/94 97/97/97 
f 99/99/99 100/100/100 101/101/101 
f 99/99/99 101/101/101 102/102/102 
f 113/113/113 114/114/114 115/115/115 
f 115/115/115 116/116/116 113/113/113 
f 117/117/117 118/118/118 119/119/119 
f 118/118/118 117/117/117 120/120/120 
f 121/121/121 122/122/122 123/123/123 
f 121/121/121 124/124/124 122/122/122 
f 122/122/122 124/124/124 125/125/125 
f 126/126/126 127/127/127 125/125/125 
f 128/128/128 125/125/125 127/127/127 
f 125/125/125 128/128/128 122/122/122 
f 129/129/129 122/122/122 128/128/128 
f 129/129/129 123/123/123 122/122/122 
f 130/130/130 129/129/129 128/128/128 
f 131/131/131 129/129/129 130/130/130 
f 129/129/129 131/131/131 132/132/132 
f 123/123/123 129/129/129 132/132/132 
f 132/132/132 133/133/133 123/123/123 
f 133/133/133 132/132/132 134/134/134 
f 144/144/144 145/145/145 146/146/146 
f 145/145/145 144/144/144 147/147/147 
f 149/149/149 150/150/150 151/151/151 
f 152/152/152 149/149/149 151/151/151 
f 151/151/151 150/150/150 153/153/153 
f 151/151/151 154/154/154 152/152/152 
f 150/150/150 155/155/155 153/153/153 
f 155/155/155 152/152/152 154/154/154 
f 155/155/155 150/150/150 156/156/156 
f 152/152/152 155/155/155 156/156/156 
f 157/157/157 158/158/158 159/159/159 
f 159/159/159 160/160/160 157/157/157 
f 161/161/161 162/162/162 163/163/163 
f 163/163/163 164/164/164 161/161/161 
f 162/162/162 165/165/165 163/163/163 
f 165/165/165 162/162/162 166/166/166 
f 166/166/166 167/167/167 165/165/165 
f 167/167/167 166/166/166 168/168/168 
f 169/169/169 170/170/170 171/171/171 
f 170/170/170 169/169/169 172/172/172 
f 173/173/173 174/174/174 175/175/175 
f 174/174/174 176/176/176 175/175/175 
f 174/174/174 173/173/173 177/177/177 
f 174/174/174 178/178/178 176/176/176 
f 173/173/173 179/179/179 177/177/177 
f 180/180/180 176/176/176 178/178/178 
f 179/179/179 173/173/173 180/180/180 
f 180/180/180 178/178/178 179/179/179 
f 181/181/181 182/182/182 183/183/183 
f 182/182/182 181/181/181 184/184/184 
f 185/185/185 186/186/186 187/187/187 
f 185/185/185 187/187/187 188/188/188 
f 194/194/194 195/195/195 196/196/196 
f 194/194/194 196/196/196 197/197/197 
f 204/204/204 205/205/205 206/206/206 
f 204/204/204 206/206/206 207/207/207 
f 208/208/208 209/209/209 210/210/210 
f 208/208/208 210/210/210 211/211/211 
f 212/212/212 213/213/213 214/214/214 
f 212/212/212 214/214/214 215/215/215 
f 223/223/223 224/224/224 225/225/225 
f 224/224/224 223/223/223 226/226/226 
f 227/227/227 228/228/228 229/229/229 
f 230/230/230 229/229/229 228/228/228 
f 227/227/227 229/229/229 231/231/231 
f 229/229/229 230/230/230 232/232/232 
f 231/231/231 233/233/233 227/227/227 
f 230/230/230 233/233/233 232/232/232 
f 234/234/234 227/227/227 233/233/233 
f 230/230/230 234/234/234 233/233/233 
f 236/236/236 237/237/237 238/238/238 
f 237/237/237 236/236/236 239/239/239 
f 240/240/240 241/241/241 242/242/242 
f 241/241/241 240/240/240 243/243/243 
f 244/244/244 242/242/242 241/241/241 
f 242/242/242 244/244/244 245/245/245 
f 244/244/244 246/246/246 245/245/245 
f 247/247/247 245/245/245 246/246/246 
f 247/247/247 246/246/246 248/248/248 

g Meshpart3

v -390.09 5.2392 29.7683 
v -390.066 5.30016 29.7697 
v -390.087 5.17823 29.7449 
v -390.023 5.34482 29.7488 
v -390.037 5.25553 29.8037 
v -390.048 5.19457 29.7913 
v -389.991 5.16187 29.7861 
v -389.973 5.2675 29.8076 
v -389.972 5.36117 29.7111 
v -389.936 5.14991 29.7542 
v -389.914 5.27188 29.779 
v -390.092 5.31652 29.6685 
v -390.106 5.28382 29.7234 
v -390.066 5.30016 29.7697 
v -390.023 5.34482 29.7488 
v -389.973 5.2675 29.8076 
v -389.972 5.36117 29.7111 
v -390.052 5.32848 29.6184 
v -390.073 5.20651 29.5935 
v -389.914 5.27188 29.779 
v -389.877 5.2675 29.7256 
v -389.895 5.16187 29.704 
v -389.996 5.31652 29.5865 
v -389.927 5.34482 29.6668 
v -389.939 5.28382 29.5813 
v -389.9 5.30016 29.6277 
v -390.092 5.31652 29.6685 
v -390.116 5.22286 29.711 
v -390.106 5.28382 29.7234 
v -390.09 5.2392 29.7683 
v -390.066 5.30016 29.7697 
v -390.087 5.17823 29.7449 
v -390.037 5.25553 29.8037 
v -390.06 5.13357 29.7058 
v -390.11 5.21089 29.647 
v -390.052 5.32848 29.6184 
v -390.073 5.20651 29.5935 
v -390.052 5.32848 29.6184 
v -390.073 5.20651 29.5935 
v -390.015 5.11722 29.6614 
v -389.895 5.16187 29.704 
v -390.014 5.21089 29.565 
v -389.964 5.13357 29.6237 
v -389.996 5.31652 29.5865 
v -389.95 5.22286 29.5689 
v -389.921 5.17823 29.6028 
v -389.939 5.28382 29.5813 
v -389.898 5.2392 29.6043 
v -389.9 5.30016 29.6277 
v -390.066 5.30016 29.7697 
v -390.087 5.17823 29.7449 
v -390.048 5.19457 29.7913 
v -390.06 5.13357 29.7058 
v -390.11 5.21089 29.647 
v -389.991 5.16187 29.7861 
v -390.073 5.20651 29.5935 
v -390.015 5.11722 29.6614 
v -389.936 5.14991 29.7542 
v -389.895 5.16187 29.704 
v -390.014 5.21089 29.565 
v -389.964 5.13357 29.6237 
v -389.921 5.17823 29.6028 
v -389.881 5.19457 29.6492 
v -389.972 5.36117 29.7111 
v -389.936 5.14991 29.7542 
v -389.914 5.27188 29.779 
v -389.877 5.2675 29.7256 
v -389.895 5.16187 29.704 
v -389.95 5.22286 29.5689 
v -389.921 5.17823 29.6028 
v -389.927 5.34482 29.6668 
v -389.898 5.2392 29.6043 
v -389.881 5.19457 29.6492 
v -389.9 5.30016 29.6277 
v -389.871 5.25553 29.6616 

vn -0.76378 0 0.653543 
vn -0.535433 0.535433 0.645669 
vn -0.724409 -0.543307 0.433071 
vn -0.204724 0.850394 0.480315 
vn -0.283465 0.141732 0.952756 
vn -0.377953 -0.393701 0.84252 
vn 0.0551181 -0.622047 0.779528 
vn 0.19685 0.228346 0.952756 
vn 0.165354 0.968504 0.19685 
vn 0.456693 -0.708661 0.535433 
vn 0.629921 0.259843 0.732283 
vn -0.76378 0.622047 -0.173228 
vn -0.889764 0.393701 0.23622 
vn -0.535433 0.535433 0.645669 
vn -0.204724 0.850394 0.480315 
vn 0.19685 0.228346 0.952756 
vn 0.165354 0.968504 0.19685 
vn -0.456693 0.708661 -0.535433 
vn -0.629921 -0.259843 -0.732283 
vn 0.629921 0.259843 0.732283 
vn 0.913386 0.228346 0.346457 
vn 0.76378 -0.622047 0.173228 
vn -0.0551181 0.622047 -0.779528 
vn 0.503937 0.850394 -0.125984 
vn 0.377953 0.393701 -0.84252 
vn 0.724409 0.535433 -0.433071 
vn -0.76378 0.622047 -0.173228 
vn -0.984252 -0.141732 0.125984 
vn -0.889764 0.393701 0.23622 
vn -0.76378 0 0.653543 
vn -0.535433 0.535433 0.645669 
vn -0.724409 -0.543307 0.433071 
vn -0.283465 0.141732 0.952756 
vn -0.503937 -0.850394 0.125984 
vn -0.913386 -0.228346 -0.346457 
vn -0.456693 0.708661 -0.535433 
vn -0.629921 -0.259843 -0.732283 
vn -0.456693 0.708661 -0.535433 
vn -0.629921 -0.259843 -0.732283 
vn -0.165354 -0.968504 -0.19685 
vn 0.76378 -0.622047 0.173228 
vn -0.19685 -0.228346 -0.952756 
vn 0.204724 -0.850394 -0.480315 
vn -0.0551181 0.622047 -0.779528 
vn 0.283465 -0.141732 -0.952756 
vn 0.535433 -0.543307 -0.645669 
vn 0.377953 0.393701 -0.84252 
vn 0.76378 0 -0.645669 
vn 0.724409 0.535433 -0.433071 
vn -0.535433 0.535433 0.645669 
vn -0.724409 -0.543307 0.433071 
vn -0.377953 -0.393701 0.84252 
vn -0.503937 -0.850394 0.125984 
vn -0.913386 -0.228346 -0.346457 
vn 0.0551181 -0.622047 0.779528 
vn -0.629921 -0.259843 -0.732283 
vn -0.165354 -0.968504 -0.19685 
vn 0.456693 -0.708661 0.535433 
vn 0.76378 -0.622047 0.173228 
vn -0.19685 -0.228346 -0.952756 
vn 0.204724 -0.850394 -0.480315 
vn 0.535433 -0.543307 -0.645669 
vn 0.889764 -0.393701 -0.23622 
vn 0.165354 0.968504 0.19685 
vn 0.456693 -0.708661 0.535433 
vn 0.629921 0.259843 0.732283 
vn 0.913386 0.228346 0.346457 
vn 0.76378 -0.622047 0.173228 
vn 0.283465 -0.141732 -0.952756 
vn 0.535433 -0.543307 -0.645669 
vn 0.503937 0.850394 -0.125984 
vn 0.76378 0 -0.645669 
vn 0.889764 -0.393701 -0.23622 
vn 0.724409 0.535433 -0.433071 
vn 0.984252 0.141732 -0.125984 

vt 37.988 -21 
vt 37.9909 -20.9924 
vt 37.9883 -21.0076 
vt 37.9963 -20.9868 
vt 37.9946 -20.998 
vt 37.9932 -21.0056 
vt 38.0003 -21.0097 
vt 38.0026 -20.9965 
vt 38.0027 -20.9848 
vt 38.0073 -21.0112 
vt 38.0099 -20.9959 
vt 38.0022 -20.9877 
vt 37.9954 -20.986 
vt 37.9896 -20.9909 
vt 37.9922 -20.9963 
vt 37.9848 -21.0026 
vt 37.9969 -21.0027 
vt 38.0085 -20.9928 
vt 38.0116 -20.9901 
vt 37.9884 -21.0099 
vt 37.9951 -21.0146 
vt 37.9978 -21.0123 
vt 38.0125 -20.9997 
vt 38.0024 -21.0083 
vt 38.0131 -21.0068 
vt 38.0073 -21.0117 
vt 37.9978 -20.9903 
vt 38.0031 -21.002 
vt 38.0046 -20.9944 
vt 38.0103 -21 
vt 38.0104 -20.9924 
vt 38.0073 -21.0076 
vt 38.0147 -20.998 
vt 38.0024 -21.0132 
vt 37.9951 -21.0035 
vt 37.9915 -20.9888 
vt 37.9884 -21.0041 
vt 38.0073 -20.9888 
vt 38.0099 -21.0041 
vt 38.0027 -21.0152 
vt 37.9877 -21.0097 
vt 38.0026 -21.0035 
vt 37.9963 -21.0132 
vt 38.0003 -20.9903 
vt 37.9946 -21.002 
vt 37.9909 -21.0076 
vt 37.9932 -20.9944 
vt 37.988 -21 
vt 37.9883 -20.9924 
vt 38.0104 -20.9909 
vt 38.0073 -20.9883 
vt 38.0131 -20.9932 
vt 38.0024 -20.9917 
vt 37.9951 -20.9854 
vt 38.0125 -21.0003 
vt 37.9884 -20.9901 
vt 37.9969 -20.9973 
vt 38.0085 -21.0072 
vt 38.0022 -21.0123 
vt 37.9848 -20.9974 
vt 37.9922 -21.0037 
vt 37.9896 -21.0091 
vt 37.9954 -21.014 
vt 37.9969 -20.9848 
vt 37.9915 -21.0112 
vt 37.9884 -20.9959 
vt 37.9951 -20.9965 
vt 37.9978 -21.0097 
vt 38.0147 -21.002 
vt 38.0104 -21.0076 
vt 38.0024 -20.9868 
vt 38.0103 -21 
vt 38.0046 -21.0056 
vt 38.0073 -20.9924 
vt 38.0031 -20.998 

usemtl Meshpart3Mtl

f 249/249/249 253/253/253 250/250/250 
f 252/252/252 250/250/250 253/253/253 
f 249/249/249 251/251/251 254/254/254 
f 249/249/249 254/254/254 253/253/253 
f 255/255/255 253/253/253 254/254/254 
f 252/252/252 253/253/253 256/256/256 
f 253/253/253 255/255/255 256/256/256 
f 258/258/258 256/256/256 255/255/255 
f 256/256/256 258/258/258 259/259/259 
f 263/263/263 261/261/261 262/262/262 
f 261/261/261 263/263/263 260/260/260 
f 265/265/265 260/260/260 263/263/263 
f 265/265/265 263/263/263 264/264/264 
f 260/260/260 265/265/265 266/266/266 
f 264/264/264 268/268/268 265/265/265 
f 269/269/269 265/265/265 268/268/268 
f 266/266/266 265/265/265 271/271/271 
f 265/265/265 272/272/272 271/271/271 
f 265/265/265 269/269/269 272/272/272 
f 271/271/271 272/272/272 273/273/273 
f 272/272/272 274/274/274 273/273/273 
f 275/275/275 276/276/276 277/277/277 
f 278/278/278 277/277/277 276/276/276 
f 278/278/278 279/279/279 277/277/277 
f 278/278/278 276/276/276 280/280/280 
f 276/276/276 282/282/282 280/280/280 
f 276/276/276 275/275/275 283/283/283 
f 276/276/276 283/283/283 282/282/282 
f 284/284/284 283/283/283 275/275/275 
f 283/283/283 284/284/284 285/285/285 
f 286/286/286 290/290/290 287/287/287 
f 290/290/290 286/286/286 292/292/292 
f 293/293/293 291/291/291 290/290/290 
f 292/292/292 293/293/293 290/290/290 
f 291/291/291 293/293/293 294/294/294 
f 293/293/293 292/292/292 295/295/295 
f 293/293/293 296/296/296 294/294/294 
f 295/295/295 296/296/296 293/293/293 
f 297/297/297 296/296/296 295/295/295 
f 301/301/301 300/300/300 299/299/299 
f 300/300/300 301/301/301 303/303/303 
f 302/302/302 305/305/305 301/301/301 
f 305/305/305 303/303/303 301/301/301 
f 304/304/304 305/305/305 302/302/302 
f 303/303/303 305/305/305 306/306/306 
f 306/306/306 305/305/305 307/307/307 
f 308/308/308 305/305/305 304/304/304 
f 309/309/309 307/307/307 305/305/305 
f 305/305/305 308/308/308 309/309/309 
f 311/311/311 309/309/309 310/310/310 
f 307/307/307 309/309/309 311/311/311 
f 314/314/314 313/313/313 315/315/315 
f 313/313/313 316/316/316 315/315/315 
f 318/318/318 320/320/320 321/321/321 
f 321/321/321 320/320/320 323/323/323 
f 323/323/323 320/320/320 322/322/322 
f 316/316/316 321/321/321 323/323/323 
f 319/319/319 323/323/323 322/322/322 
f 315/315/315 316/316/316 323/323/323 
f 323/323/323 319/319/319 315/315/315 

g Meshpart4

v -389.912 5.04462 29.6585 
v -389.91 5.10558 29.635 
v -389.935 4.98365 29.6563 
v -389.931 5.15024 29.5921 
v -389.876 5.06095 29.6061 
v -389.889 4.99999 29.6167 
v -389.894 4.96729 29.5603 
v -389.872 5.07292 29.5419 
v -389.969 5.16659 29.5413 
v -389.926 4.95533 29.5045 
v -389.901 5.0773 29.4833 
v -390.011 5.12194 29.6607 
v -389.956 5.08924 29.6746 
v -389.91 5.10558 29.635 
v -389.931 5.15024 29.5921 
v -389.872 5.07292 29.5419 
v -389.969 5.16659 29.5413 
v -390.061 5.1339 29.6205 
v -390.086 5.01193 29.6417 
v -389.901 5.0773 29.4833 
v -389.954 5.07292 29.4459 
v -389.976 4.96729 29.4643 
v -390.093 5.12194 29.5647 
v -390.013 5.15024 29.4961 
v -390.099 5.08924 29.5083 
v -390.052 5.10558 29.4687 
v -390.011 5.12194 29.6607 
v -389.969 5.02828 29.6853 
v -389.956 5.08924 29.6746 
v -389.912 5.04462 29.6585 
v -389.91 5.10558 29.635 
v -389.935 4.98365 29.6563 
v -389.876 5.06095 29.6061 
v -389.974 4.93899 29.6289 
v -390.033 5.01631 29.6791 
v -390.061 5.1339 29.6205 
v -390.086 5.01193 29.6417 
v -390.061 5.1339 29.6205 
v -390.086 5.01193 29.6417 
v -390.018 4.92264 29.5837 
v -389.976 4.96729 29.4643 
v -390.115 5.01631 29.5831 
v -390.056 4.93899 29.5329 
v -390.093 5.12194 29.5647 
v -390.111 5.02828 29.5189 
v -390.077 4.98365 29.49 
v -390.099 5.08924 29.5083 
v -390.076 5.04462 29.4665 
v -390.052 5.10558 29.4687 
v -389.91 5.10558 29.635 
v -389.935 4.98365 29.6563 
v -389.889 4.99999 29.6167 
v -389.974 4.93899 29.6289 
v -390.033 5.01631 29.6791 
v -389.894 4.96729 29.5603 
v -390.086 5.01193 29.6417 
v -390.018 4.92264 29.5837 
v -389.926 4.95533 29.5045 
v -389.976 4.96729 29.4643 
v -390.115 5.01631 29.5831 
v -390.056 4.93899 29.5329 
v -390.077 4.98365 29.49 
v -390.031 4.99999 29.4504 
v -389.969 5.16659 29.5413 
v -389.926 4.95533 29.5045 
v -389.901 5.0773 29.4833 
v -389.954 5.07292 29.4459 
v -389.976 4.96729 29.4643 
v -390.111 5.02828 29.5189 
v -390.077 4.98365 29.49 
v -390.013 5.15024 29.4961 
v -390.076 5.04462 29.4665 
v -390.031 4.99999 29.4504 
v -390.052 5.10558 29.4687 
v -390.018 5.06095 29.4397 

vn 0.653543 0 0.76378 
vn 0.645669 0.535433 0.535433 
vn 0.433071 -0.543307 0.724409 
vn 0.480315 0.850394 0.204724 
vn 0.952756 0.141732 0.283465 
vn 0.84252 -0.393701 0.377953 
vn 0.779528 -0.622047 -0.0551181 
vn 0.952756 0.228346 -0.19685 
vn 0.19685 0.968504 -0.165354 
vn 0.535433 -0.708661 -0.456693 
vn 0.732283 0.259843 -0.629921 
vn -0.173228 0.622047 0.76378 
vn 0.23622 0.393701 0.889764 
vn 0.645669 0.535433 0.535433 
vn 0.480315 0.850394 0.204724 
vn 0.952756 0.228346 -0.19685 
vn 0.19685 0.968504 -0.165354 
vn -0.535433 0.708661 0.456693 
vn -0.732283 -0.259843 0.629921 
vn 0.732283 0.259843 -0.629921 
vn 0.346457 0.228346 -0.913386 
vn 0.173228 -0.622047 -0.76378 
vn -0.779528 0.622047 0.0551181 
vn -0.125984 0.850394 -0.503937 
vn -0.84252 0.393701 -0.377953 
vn -0.433071 0.535433 -0.724409 
vn -0.173228 0.622047 0.76378 
vn 0.125984 -0.141732 0.984252 
vn 0.23622 0.393701 0.889764 
vn 0.653543 0 0.76378 
vn 0.645669 0.535433 0.535433 
vn 0.433071 -0.543307 0.724409 
vn 0.952756 0.141732 0.283465 
vn 0.125984 -0.850394 0.503937 
vn -0.346457 -0.228346 0.913386 
vn -0.535433 0.708661 0.456693 
vn -0.732283 -0.259843 0.629921 
vn -0.535433 0.708661 0.456693 
vn -0.732283 -0.259843 0.629921 
vn -0.19685 -0.968504 0.165354 
vn 0.173228 -0.622047 -0.76378 
vn -0.952756 -0.228346 0.19685 
vn -0.480315 -0.850394 -0.204724 
vn -0.779528 0.622047 0.0551181 
vn -0.952756 -0.141732 -0.283465 
vn -0.645669 -0.543307 -0.535433 
vn -0.84252 0.393701 -0.377953 
vn -0.645669 0 -0.76378 
vn -0.433071 0.535433 -0.724409 
vn 0.645669 0.535433 0.535433 
vn 0.433071 -0.543307 0.724409 
vn 0.84252 -0.393701 0.377953 
vn 0.125984 -0.850394 0.503937 
vn -0.346457 -0.228346 0.913386 
vn 0.779528 -0.622047 -0.0551181 
vn -0.732283 -0.259843 0.629921 
vn -0.19685 -0.968504 0.165354 
vn 0.535433 -0.708661 -0.456693 
vn 0.173228 -0.622047 -0.76378 
vn -0.952756 -0.228346 0.19685 
vn -0.480315 -0.850394 -0.204724 
vn -0.645669 -0.543307 -0.535433 
vn -0.23622 -0.393701 -0.889764 
vn 0.19685 0.968504 -0.165354 
vn 0.535433 -0.708661 -0.456693 
vn 0.732283 0.259843 -0.629921 
vn 0.346457 0.228346 -0.913386 
vn 0.173228 -0.622047 -0.76378 
vn -0.952756 -0.141732 -0.283465 
vn -0.645669 -0.543307 -0.535433 
vn -0.125984 0.850394 -0.503937 
vn -0.645669 0 -0.76378 
vn -0.23622 -0.393701 -0.889764 
vn -0.433071 0.535433 -0.724409 
vn -0.125984 0.141732 -0.984252 

vt 1.988 -19 
vt 1.99093 -18.9924 
vt 1.98828 -19.0076 
vt 1.9963 -18.9868 
vt 1.99456 -18.998 
vt 1.99323 -19.0056 
vt 2.00028 -19.0097 
vt 2.00257 -18.9965 
vt 2.00265 -18.9848 
vt 2.00725 -19.0112 
vt 2.0099 -18.9959 
vt 2.00222 -18.9877 
vt 1.99536 -18.986 
vt 1.98957 -18.9909 
vt 1.99218 -18.9963 
vt 1.98483 -19.0026 
vt 1.99689 -19.0027 
vt 2.00849 -18.9928 
vt 2.01159 -18.9901 
vt 1.98841 -19.0099 
vt 1.99509 -19.0146 
vt 1.99778 -19.0123 
vt 2.01248 -18.9997 
vt 2.00244 -19.0083 
vt 2.01312 -19.0068 
vt 2.00733 -19.0117 
vt 1.99778 -18.9903 
vt 2.00309 -19.002 
vt 2.00464 -18.9944 
vt 2.01025 -19 
vt 2.01043 -18.9924 
vt 2.00733 -19.0076 
vt 2.01467 -18.998 
vt 2.00244 -19.0132 
vt 1.99509 -19.0035 
vt 1.99151 -18.9888 
vt 1.98841 -19.0041 
vt 2.00725 -18.9888 
vt 2.0099 -19.0041 
vt 2.00265 -19.0152 
vt 1.98772 -19.0097 
vt 2.00257 -19.0035 
vt 1.9963 -19.0132 
vt 2.00028 -18.9903 
vt 1.99456 -19.002 
vt 1.99093 -19.0076 
vt 1.99323 -18.9944 
vt 1.988 -19 
vt 1.98828 -18.9924 
vt 2.01043 -18.9909 
vt 2.00733 -18.9883 
vt 2.01312 -18.9932 
vt 2.00244 -18.9917 
vt 1.99509 -18.9854 
vt 2.01248 -19.0003 
vt 1.98841 -18.9901 
vt 1.99689 -18.9973 
vt 2.00849 -19.0072 
vt 2.00222 -19.0123 
vt 1.98483 -18.9974 
vt 1.99218 -19.0037 
vt 1.98957 -19.0091 
vt 1.99536 -19.014 
vt 1.99689 -18.9848 
vt 1.99151 -19.0112 
vt 1.98841 -18.9959 
vt 1.99509 -18.9965 
vt 1.99778 -19.0097 
vt 2.01467 -19.002 
vt 2.01043 -19.0076 
vt 2.00244 -18.9868 
vt 2.01025 -19 
vt 2.00464 -19.0056 
vt 2.00733 -18.9924 
vt 2.00309 -18.998 

usemtl Meshpart4Mtl

f 324/324/324 328/328/328 325/325/325 
f 327/327/327 325/325/325 328/328/328 
f 324/324/324 326/326/326 329/329/329 
f 324/324/324 329/329/329 328/328/328 
f 330/330/330 328/328/328 329/329/329 
f 327/327/327 328/328/328 331/331/331 
f 328/328/328 330/330/330 331/331/331 
f 333/333/333 331/331/331 330/330/330 
f 331/331/331 333/333/333 334/334/334 
f 338/338/338 336/336/336 337/337/337 
f 336/336/336 338/338/338 335/335/335 
f 340/340/340 335/335/335 338/338/338 
f 340/340/340 338/338/338 339/339/339 
f 335/335/335 340/340/340 341/341/341 
f 339/339/339 343/343/343 340/340/340 
f 344/344/344 340/340/340 343/343/343 
f 341/341/341 340/340/340 346/346/346 
f 340/340/340 347/347/347 346/346/346 
f 340/340/340 344/344/344 347/347/347 
f 346/346/346 347/347/347 348/348/348 
f 347/347/347 349/349/349 348/348/348 
f 350/350/350 351/351/351 352/352/352 
f 353/353/353 352/352/352 351/351/351 
f 353/353/353 354/354/354 352/352/352 
f 353/353/353 351/351/351 355/355/355 
f 351/351/351 357/357/357 355/355/355 
f 351/351/351 350/350/350 358/358/358 
f 351/351/351 358/358/358 357/357/357 
f 359/359/359 358/358/358 350/350/350 
f 358/358/358 359/359/359 360/360/360 
f 361/361/361 365/365/365 362/362/362 
f 365/365/365 361/361/361 367/367/367 
f 368/368/368 366/366/366 365/365/365 
f 367/367/367 368/368/368 365/365/365 
f 366/366/366 368/368/368 369/369/369 
f 368/368/368 367/367/367 370/370/370 
f 368/368/368 371/371/371 369/369/369 
f 370/370/370 371/371/371 368/368/368 
f 372/372/372 371/371/371 370/370/370 
f 376/376/376 375/375/375 374/374/374 
f 375/375/375 376/376/376 378/378/378 
f 377/377/377 380/380/380 376/376/376 
f 380/380/380 378/378/378 376/376/376 
f 379/379/379 380/380/380 377/377/377 
f 378/378/378 380/380/380 381/381/381 
f 381/381/381 380/380/380 382/382/382 
f 383/383/383 380/380/380 379/379/379 
f 384/384/384 382/382/382 380/380/380 
f 380/380/380 383/383/383 384/384/384 
f 386/386/386 384/384/384 385/385/385 
f 382/382/382 384/384/384 386/386/386 
f 389/389/389 388/388/388 390/390/390 
f 388/388/388 391/391/391 390/390/390 
f 393/393/393 395/395/395 396/396/396 
f 396/396/396 395/395/395 398/398/398 
f 398/398/398 395/395/395 397/397/397 
f 391/391/391 396/396/396 398/398/398 
f 394/394/394 398/398/398 397/397/397 
f 390/390/390 391/391/391 398/398/398 
f 398/398/398 394/394/394 390/390/390 

g Meshpart5

v -389.862 5.38081 29.3208 
v -390.124 4.68908 29.5014 
v -390.124 5.38081 29.3208 
v -389.862 4.68908 29.5014 
v -390.124 5.38081 29.3208 
v -390.124 5.38081 29.8707 
v -389.862 5.38081 29.8707 
v -389.862 5.38081 29.3208 
v -389.862 5.38081 29.8707 
v -389.862 4.73863 30.0478 
v -389.862 4.68908 29.5014 
v -389.862 5.38081 29.3208 
v -390.124 5.38081 29.8707 
v -390.124 4.73863 30.0478 
v -389.862 4.73863 30.0478 
v -389.862 5.38081 29.8707 
v -390.124 4.73863 30.0478 
v -390.124 4.68908 29.5014 
v -389.862 4.68908 29.5014 
v -389.862 4.73863 30.0478 
v -390.124 4.68908 29.5014 
v -390.124 5.38081 29.8707 
v -390.124 5.38081 29.3208 
v -390.124 4.73863 30.0478 

vn 0 -0.251969 -0.968504 
vn 0 -0.251969 -0.968504 
vn 0 -0.251969 -0.968504 
vn 0 -0.251969 -0.968504 
vn 0 1 0 
vn 0 1 0 
vn 0 1 0 
vn 0 1 0 
vn 1 0 0 
vn 1 0 0 
vn 1 0 0 
vn 1 0 0 
vn 0 0.267717 0.96063 
vn 0 0.267717 0.96063 
vn 0 0.267717 0.96063 
vn 0 0.267717 0.96063 
vn 0 -0.992126 0.0866142 
vn 0 -0.992126 0.0866142 
vn 0 -0.992126 0.0866142 
vn 0 -0.992126 0.0866142 
vn -1 0 0 
vn -1 0 0 
vn -1 0 0 
vn -1 0 0 

vt 59.9836 -16.9568 
vt 60.0164 -17.0432 
vt 60.0164 -16.9568 
vt 59.9836 -17.0432 
vt 59.9546 -17.0164 
vt 60.0233 -17.0164 
vt 60.0233 -16.9836 
vt 59.9546 -16.9836 
vt 59.9767 -16.9568 
vt 59.9546 -17.037 
vt 60.0229 -17.0432 
vt 60.0454 -16.9568 
vt 59.9836 -16.9568 
vt 59.9836 -17.037 
vt 60.0164 -17.037 
vt 60.0164 -16.9568 
vt 59.9546 -17.0164 
vt 60.0229 -17.0164 
vt 60.0229 -16.9836 
vt 59.9546 -16.9836 
vt 59.9771 -17.0432 
vt 60.0233 -16.9568 
vt 59.9546 -16.9568 
vt 60.0454 -17.037 

usemtl Meshpart5Mtl

f 399/399/399 400/400/400 401/401/401 
f 400/400/400 399/399/399 402/402/402 
f 403/403/403 404/404/404 405/405/405 
f 403/403/403 405/405/405 406/406/406 
f 407/407/407 408/408/408 409/409/409 
f 409/409/409 410/410/410 407/407/407 
f 411/411/411 412/412/412 413/413/413 
f 411/411/411 413/413/413 414/414/414 
f 415/415/415 416/416/416 417/417/417 
f 415/415/415 417/417/417 418/418/418 
f 419/419/419 420/420/420 421/421/421 
f 420/420/420 419/419/419 422/422/422 

g Meshpart6

v -389.898 4.81897 29.5403 
v -389.921 4.87993 29.5388 
v -389.9 4.75801 29.5637 
v -389.964 4.92459 29.5598 
v -389.95 4.8353 29.5049 
v -389.939 4.77434 29.5173 
v -389.996 4.74165 29.5225 
v -390.014 4.84727 29.501 
v -390.015 4.94094 29.5975 
v -390.052 4.72968 29.5544 
v -390.073 4.85165 29.5296 
v -389.895 4.89629 29.6401 
v -389.881 4.8636 29.5852 
v -389.921 4.87993 29.5388 
v -389.964 4.92459 29.5598 
v -390.014 4.84727 29.501 
v -390.015 4.94094 29.5975 
v -389.936 4.90826 29.6902 
v -389.914 4.78629 29.715 
v -390.073 4.85165 29.5296 
v -390.11 4.84727 29.583 
v -390.092 4.74165 29.6046 
v -389.991 4.89629 29.7221 
v -390.06 4.92459 29.6418 
v -390.048 4.8636 29.7273 
v -390.087 4.87993 29.6809 
v -389.895 4.89629 29.6401 
v -389.871 4.80263 29.5976 
v -389.881 4.8636 29.5852 
v -389.898 4.81897 29.5403 
v -389.921 4.87993 29.5388 
v -389.9 4.75801 29.5637 
v -389.95 4.8353 29.5049 
v -389.927 4.71335 29.6028 
v -389.877 4.79067 29.6616 
v -389.936 4.90826 29.6902 
v -389.914 4.78629 29.715 
v -389.936 4.90826 29.6902 
v -389.914 4.78629 29.715 
v -389.972 4.697 29.6472 
v -390.092 4.74165 29.6046 
v -389.973 4.79067 29.7436 
v -390.023 4.71335 29.6849 
v -389.991 4.89629 29.7221 
v -390.037 4.80263 29.7397 
v -390.066 4.75801 29.7058 
v -390.048 4.8636 29.7273 
v -390.09 4.81897 29.7043 
v -390.087 4.87993 29.6809 
v -389.921 4.87993 29.5388 
v -389.9 4.75801 29.5637 
v -389.939 4.77434 29.5173 
v -389.927 4.71335 29.6028 
v -389.877 4.79067 29.6616 
v -389.996 4.74165 29.5225 
v -389.914 4.78629 29.715 
v -389.972 4.697 29.6472 
v -390.052 4.72968 29.5544 
v -390.092 4.74165 29.6046 
v -389.973 4.79067 29.7436 
v -390.023 4.71335 29.6849 
v -390.066 4.75801 29.7058 
v -390.106 4.77434 29.6594 
v -390.015 4.94094 29.5975 
v -390.052 4.72968 29.5544 
v -390.073 4.85165 29.5296 
v -390.11 4.84727 29.583 
v -390.092 4.74165 29.6046 
v -390.037 4.80263 29.7397 
v -390.066 4.75801 29.7058 
v -390.06 4.92459 29.6418 
v -390.09 4.81897 29.7043 
v -390.106 4.77434 29.6594 
v -390.087 4.87993 29.6809 
v -390.116 4.8353 29.647 

vn 0.76378 0 -0.653543 
vn 0.535433 0.535433 -0.645669 
vn 0.724409 -0.543307 -0.433071 
vn 0.204724 0.850394 -0.480315 
vn 0.283465 0.141732 -0.952756 
vn 0.377953 -0.393701 -0.84252 
vn -0.0551181 -0.622047 -0.779528 
vn -0.19685 0.228346 -0.952756 
vn -0.165354 0.968504 -0.19685 
vn -0.456693 -0.708661 -0.535433 
vn -0.629921 0.259843 -0.732283 
vn 0.76378 0.622047 0.173228 
vn 0.889764 0.393701 -0.23622 
vn 0.535433 0.535433 -0.645669 
vn 0.204724 0.850394 -0.480315 
vn -0.19685 0.228346 -0.952756 
vn -0.165354 0.968504 -0.19685 
vn 0.456693 0.708661 0.535433 
vn 0.629921 -0.259843 0.732283 
vn -0.629921 0.259843 -0.732283 
vn -0.913386 0.228346 -0.346457 
vn -0.76378 -0.622047 -0.173228 
vn 0.0551181 0.622047 0.779528 
vn -0.503937 0.850394 0.125984 
vn -0.377953 0.393701 0.84252 
vn -0.724409 0.535433 0.433071 
vn 0.76378 0.622047 0.173228 
vn 0.984252 -0.141732 -0.125984 
vn 0.889764 0.393701 -0.23622 
vn 0.76378 0 -0.653543 
vn 0.535433 0.535433 -0.645669 
vn 0.724409 -0.543307 -0.433071 
vn 0.283465 0.141732 -0.952756 
vn 0.503937 -0.850394 -0.125984 
vn 0.913386 -0.228346 0.346457 
vn 0.456693 0.708661 0.535433 
vn 0.629921 -0.259843 0.732283 
vn 0.456693 0.708661 0.535433 
vn 0.629921 -0.259843 0.732283 
vn 0.165354 -0.968504 0.19685 
vn -0.76378 -0.622047 -0.173228 
vn 0.19685 -0.228346 0.952756 
vn -0.204724 -0.850394 0.480315 
vn 0.0551181 0.622047 0.779528 
vn -0.283465 -0.141732 0.952756 
vn -0.535433 -0.543307 0.645669 
vn -0.377953 0.393701 0.84252 
vn -0.76378 0 0.645669 
vn -0.724409 0.535433 0.433071 
vn 0.535433 0.535433 -0.645669 
vn 0.724409 -0.543307 -0.433071 
vn 0.377953 -0.393701 -0.84252 
vn 0.503937 -0.850394 -0.125984 
vn 0.913386 -0.228346 0.346457 
vn -0.0551181 -0.622047 -0.779528 
vn 0.629921 -0.259843 0.732283 
vn 0.165354 -0.968504 0.19685 
vn -0.456693 -0.708661 -0.535433 
vn -0.76378 -0.622047 -0.173228 
vn 0.19685 -0.228346 0.952756 
vn -0.204724 -0.850394 0.480315 
vn -0.535433 -0.543307 0.645669 
vn -0.889764 -0.393701 0.23622 
vn -0.165354 0.968504 -0.19685 
vn -0.456693 -0.708661 -0.535433 
vn -0.629921 0.259843 -0.732283 
vn -0.913386 0.228346 -0.346457 
vn -0.76378 -0.622047 -0.173228 
vn -0.283465 -0.141732 0.952756 
vn -0.535433 -0.543307 0.645669 
vn -0.503937 0.850394 0.125984 
vn -0.76378 0 0.645669 
vn -0.889764 -0.393701 0.23622 
vn -0.724409 0.535433 0.433071 
vn -0.984252 0.141732 0.125984 

vt 3.988 -21 
vt 3.99093 -20.9924 
vt 3.98828 -21.0076 
vt 3.9963 -20.9868 
vt 3.99456 -20.998 
vt 3.99323 -21.0056 
vt 4.00028 -21.0097 
vt 4.00257 -20.9965 
vt 4.00265 -20.9848 
vt 4.00725 -21.0112 
vt 4.0099 -20.9959 
vt 4.00222 -20.9877 
vt 3.99536 -20.986 
vt 3.98957 -20.9909 
vt 3.99218 -20.9963 
vt 3.98483 -21.0026 
vt 3.99689 -21.0027 
vt 4.00849 -20.9928 
vt 4.01159 -20.9901 
vt 3.98841 -21.0099 
vt 3.99509 -21.0146 
vt 3.99778 -21.0123 
vt 4.01248 -20.9997 
vt 4.00244 -21.0083 
vt 4.01312 -21.0068 
vt 4.00733 -21.0117 
vt 3.99778 -20.9903 
vt 4.00309 -21.002 
vt 4.00464 -20.9944 
vt 4.01025 -21 
vt 4.01043 -20.9924 
vt 4.00733 -21.0076 
vt 4.01467 -20.998 
vt 4.00244 -21.0132 
vt 3.99509 -21.0035 
vt 3.99151 -20.9888 
vt 3.98841 -21.0041 
vt 4.00725 -20.9888 
vt 4.0099 -21.0041 
vt 4.00265 -21.0152 
vt 3.98772 -21.0097 
vt 4.00257 -21.0035 
vt 3.9963 -21.0132 
vt 4.00028 -20.9903 
vt 3.99456 -21.002 
vt 3.99093 -21.0076 
vt 3.99323 -20.9944 
vt 3.988 -21 
vt 3.98828 -20.9924 
vt 4.01043 -20.9909 
vt 4.00733 -20.9883 
vt 4.01312 -20.9932 
vt 4.00244 -20.9917 
vt 3.99509 -20.9854 
vt 4.01248 -21.0003 
vt 3.98841 -20.9901 
vt 3.99689 -20.9973 
vt 4.00849 -21.0072 
vt 4.00222 -21.0123 
vt 3.98483 -20.9974 
vt 3.99218 -21.0037 
vt 3.98957 -21.0091 
vt 3.99536 -21.014 
vt 3.99689 -20.9848 
vt 3.99151 -21.0112 
vt 3.98841 -20.9959 
vt 3.99509 -20.9965 
vt 3.99778 -21.0097 
vt 4.01467 -21.002 
vt 4.01043 -21.0076 
vt 4.00244 -20.9868 
vt 4.01025 -21 
vt 4.00464 -21.0056 
vt 4.00733 -20.9924 
vt 4.00309 -20.998 

usemtl Meshpart6Mtl

f 423/423/423 427/427/427 424/424/424 
f 426/426/426 424/424/424 427/427/427 
f 423/423/423 425/425/425 428/428/428 
f 423/423/423 428/428/428 427/427/427 
f 429/429/429 427/427/427 428/428/428 
f 426/426/426 427/427/427 430/430/430 
f 427/427/427 429/429/429 430/430/430 
f 432/432/432 430/430/430 429/429/429 
f 430/430/430 432/432/432 433/433/433 
f 437/437/437 435/435/435 436/436/436 
f 435/435/435 437/437/437 434/434/434 
f 439/439/439 434/434/434 437/437/437 
f 439/439/439 437/437/437 438/438/438 
f 434/434/434 439/439/439 440/440/440 
f 438/438/438 442/442/442 439/439/439 
f 443/443/443 439/439/439 442/442/442 
f 440/440/440 439/439/439 445/445/445 
f 439/439/439 446/446/446 445/445/445 
f 439/439/439 443/443/443 446/446/446 
f 445/445/445 446/446/446 447/447/447 
f 446/446/446 448/448/448 447/447/447 
f 449/449/449 450/450/450 451/451/451 
f 452/452/452 451/451/451 450/450/450 
f 452/452/452 453/453/453 451/451/451 
f 452/452/452 450/450/450 454/454/454 
f 450/450/450 456/456/456 454/454/454 
f 450/450/450 449/449/449 457/457/457 
f 450/450/450 457/457/457 456/456/456 
f 458/458/458 457/457/457 449/449/449 
f 457/457/457 458/458/458 459/459/459 
f 460/460/460 464/464/464 461/461/461 
f 464/464/464 460/460/460 466/466/466 
f 467/467/467 465/465/465 464/464/464 
f 466/466/466 467/467/467 464/464/464 
f 465/465/465 467/467/467 468/468/468 
f 467/467/467 466/466/466 469/469/469 
f 467/467/467 470/470/470 468/468/468 
f 469/469/469 470/470/470 467/467/467 
f 471/471/471 470/470/470 469/469/469 
f 475/475/475 474/474/474 473/473/473 
f 474/474/474 475/475/475 477/477/477 
f 476/476/476 479/479/479 475/475/475 
f 479/479/479 477/477/477 475/475/475 
f 478/478/478 479/479/479 476/476/476 
f 477/477/477 479/479/479 480/480/480 
f 480/480/480 479/479/479 481/481/481 
f 482/482/482 479/479/479 478/478/478 
f 483/483/483 481/481/481 479/479/479 
f 479/479/479 482/482/482 483/483/483 
f 485/485/485 483/483/483 484/484/484 
f 481/481/481 483/483/483 485/485/485 
f 488/488/488 487/487/487 489/489/489 
f 487/487/487 490/490/490 489/489/489 
f 492/492/492 494/494/494 495/495/495 
f 495/495/495 494/494/494 497/497/497 
f 497/497/497 494/494/494 496/496/496 
f 490/490/490 495/495/495 497/497/497 
f 493/493/493 497/497/497 496/496/496 
f 489/489/489 490/490/490 497/497/497 
f 497/497/497 493/493/493 489/489/489 

g Meshpart7

v -390.09 5.03317 29.8811 
v -390.066 5.09413 29.8825 
v -390.087 4.97221 29.8577 
v -390.023 5.13879 29.8616 
v -390.037 5.04951 29.9165 
v -390.048 4.98854 29.904 
v -389.991 4.95585 29.8989 
v -389.973 5.06147 29.9204 
v -389.972 5.15514 29.8239 
v -389.936 4.94388 29.867 
v -389.914 5.06585 29.8918 
v -390.092 5.11049 29.7813 
v -390.106 5.0778 29.8362 
v -390.066 5.09413 29.8825 
v -390.023 5.13879 29.8616 
v -389.973 5.06147 29.9204 
v -389.972 5.15514 29.8239 
v -390.052 5.12246 29.7312 
v -390.073 5.00049 29.7063 
v -389.914 5.06585 29.8918 
v -389.877 5.06147 29.8384 
v -389.895 4.95585 29.8168 
v -389.996 5.11049 29.6993 
v -389.927 5.13879 29.7796 
v -389.939 5.0778 29.6941 
v -389.9 5.09413 29.7404 
v -390.092 5.11049 29.7813 
v -390.116 5.01684 29.8238 
v -390.106 5.0778 29.8362 
v -390.09 5.03317 29.8811 
v -390.066 5.09413 29.8825 
v -390.087 4.97221 29.8577 
v -390.037 5.04951 29.9165 
v -390.06 4.92755 29.8186 
v -390.11 5.00487 29.7598 
v -390.052 5.12246 29.7312 
v -390.073 5.00049 29.7063 
v -390.052 5.12246 29.7312 
v -390.073 5.00049 29.7063 
v -390.015 4.9112 29.7742 
v -389.895 4.95585 29.8168 
v -390.014 5.00487 29.6777 
v -389.964 4.92755 29.7365 
v -389.996 5.11049 29.6993 
v -389.95 5.01684 29.6817 
v -389.921 4.97221 29.7156 
v -389.939 5.0778 29.6941 
v -389.898 5.03317 29.717 
v -389.9 5.09413 29.7404 
v -390.066 5.09413 29.8825 
v -390.087 4.97221 29.8577 
v -390.048 4.98854 29.904 
v -390.06 4.92755 29.8186 
v -390.11 5.00487 29.7598 
v -389.991 4.95585 29.8989 
v -390.073 5.00049 29.7063 
v -390.015 4.9112 29.7742 
v -389.936 4.94388 29.867 
v -389.895 4.95585 29.8168 
v -390.014 5.00487 29.6777 
v -389.964 4.92755 29.7365 
v -389.921 4.97221 29.7156 
v -389.881 4.98854 29.762 
v -389.972 5.15514 29.8239 
v -389.936 4.94388 29.867 
v -389.914 5.06585 29.8918 
v -389.877 5.06147 29.8384 
v -389.895 4.95585 29.8168 
v -389.95 5.01684 29.6817 
v -389.921 4.97221 29.7156 
v -389.927 5.13879 29.7796 
v -389.898 5.03317 29.717 
v -389.881 4.98854 29.762 
v -389.9 5.09413 29.7404 
v -389.871 5.04951 29.7744 

vn -0.76378 0 0.653543 
vn -0.535433 0.535433 0.645669 
vn -0.724409 -0.543307 0.433071 
vn -0.204724 0.850394 0.480315 
vn -0.283465 0.141732 0.952756 
vn -0.377953 -0.393701 0.84252 
vn 0.0551181 -0.622047 0.779528 
vn 0.19685 0.228346 0.952756 
vn 0.165354 0.968504 0.19685 
vn 0.456693 -0.708661 0.535433 
vn 0.629921 0.259843 0.732283 
vn -0.76378 0.622047 -0.173228 
vn -0.889764 0.393701 0.23622 
vn -0.535433 0.535433 0.645669 
vn -0.204724 0.850394 0.480315 
vn 0.19685 0.228346 0.952756 
vn 0.165354 0.968504 0.19685 
vn -0.456693 0.708661 -0.535433 
vn -0.629921 -0.259843 -0.732283 
vn 0.629921 0.259843 0.732283 
vn 0.913386 0.228346 0.346457 
vn 0.76378 -0.622047 0.173228 
vn -0.0551181 0.622047 -0.779528 
vn 0.503937 0.850394 -0.125984 
vn 0.377953 0.393701 -0.84252 
vn 0.724409 0.535433 -0.433071 
vn -0.76378 0.622047 -0.173228 
vn -0.984252 -0.141732 0.125984 
vn -0.889764 0.393701 0.23622 
vn -0.76378 0 0.653543 
vn -0.535433 0.535433 0.645669 
vn -0.724409 -0.543307 0.433071 
vn -0.283465 0.141732 0.952756 
vn -0.503937 -0.850394 0.125984 
vn -0.913386 -0.228346 -0.346457 
vn -0.456693 0.708661 -0.535433 
vn -0.629921 -0.259843 -0.732283 
vn -0.456693 0.708661 -0.535433 
vn -0.629921 -0.259843 -0.732283 
vn -0.165354 -0.968504 -0.19685 
vn 0.76378 -0.622047 0.173228 
vn -0.19685 -0.228346 -0.952756 
vn 0.204724 -0.850394 -0.480315 
vn -0.0551181 0.622047 -0.779528 
vn 0.283465 -0.141732 -0.952756 
vn 0.535433 -0.543307 -0.645669 
vn 0.377953 0.393701 -0.84252 
vn 0.76378 0 -0.645669 
vn 0.724409 0.535433 -0.433071 
vn -0.535433 0.535433 0.645669 
vn -0.724409 -0.543307 0.433071 
vn -0.377953 -0.393701 0.84252 
vn -0.503937 -0.850394 0.125984 
vn -0.913386 -0.228346 -0.346457 
vn 0.0551181 -0.622047 0.779528 
vn -0.629921 -0.259843 -0.732283 
vn -0.165354 -0.968504 -0.19685 
vn 0.456693 -0.708661 0.535433 
vn 0.76378 -0.622047 0.173228 
vn -0.19685 -0.228346 -0.952756 
vn 0.204724 -0.850394 -0.480315 
vn 0.535433 -0.543307 -0.645669 
vn 0.889764 -0.393701 -0.23622 
vn 0.165354 0.968504 0.19685 
vn 0.456693 -0.708661 0.535433 
vn 0.629921 0.259843 0.732283 
vn 0.913386 0.228346 0.346457 
vn 0.76378 -0.622047 0.173228 
vn 0.283465 -0.141732 -0.952756 
vn 0.535433 -0.543307 -0.645669 
vn 0.503937 0.850394 -0.125984 
vn 0.76378 0 -0.645669 
vn 0.889764 -0.393701 -0.23622 
vn 0.724409 0.535433 -0.433071 
vn 0.984252 0.141732 -0.125984 

vt 27.988 -41 
vt 27.9909 -40.9924 
vt 27.9883 -41.0076 
vt 27.9963 -40.9868 
vt 27.9946 -40.998 
vt 27.9932 -41.0056 
vt 28.0003 -41.0097 
vt 28.0026 -40.9965 
vt 28.0027 -40.9848 
vt 28.0072 -41.0112 
vt 28.0099 -40.9959 
vt 28.0022 -40.9877 
vt 27.9954 -40.986 
vt 27.9896 -40.9909 
vt 27.9922 -40.9963 
vt 27.9848 -41.0026 
vt 27.9969 -41.0027 
vt 28.0085 -40.9927 
vt 28.0116 -40.9901 
vt 27.9884 -41.0099 
vt 27.9951 -41.0146 
vt 27.9978 -41.0123 
vt 28.0125 -40.9997 
vt 28.0024 -41.0083 
vt 28.0131 -41.0068 
vt 28.0073 -41.0117 
vt 27.9978 -40.9903 
vt 28.0031 -41.002 
vt 28.0046 -40.9944 
vt 28.0103 -41 
vt 28.0104 -40.9924 
vt 28.0073 -41.0076 
vt 28.0147 -40.998 
vt 28.0024 -41.0132 
vt 27.9951 -41.0035 
vt 27.9915 -40.9888 
vt 27.9884 -41.0041 
vt 28.0072 -40.9888 
vt 28.0099 -41.0041 
vt 28.0027 -41.0152 
vt 27.9877 -41.0097 
vt 28.0026 -41.0035 
vt 27.9963 -41.0132 
vt 28.0003 -40.9903 
vt 27.9946 -41.002 
vt 27.9909 -41.0076 
vt 27.9932 -40.9944 
vt 27.988 -41 
vt 27.9883 -40.9924 
vt 28.0104 -40.9909 
vt 28.0073 -40.9883 
vt 28.0131 -40.9932 
vt 28.0024 -40.9917 
vt 27.9951 -40.9854 
vt 28.0125 -41.0003 
vt 27.9884 -40.9901 
vt 27.9969 -40.9973 
vt 28.0085 -41.0073 
vt 28.0022 -41.0123 
vt 27.9848 -40.9974 
vt 27.9922 -41.0037 
vt 27.9896 -41.0091 
vt 27.9954 -41.014 
vt 27.9969 -40.9848 
vt 27.9915 -41.0112 
vt 27.9884 -40.9959 
vt 27.9951 -40.9965 
vt 27.9978 -41.0097 
vt 28.0147 -41.002 
vt 28.0104 -41.0076 
vt 28.0024 -40.9868 
vt 28.0103 -41 
vt 28.0046 -41.0056 
vt 28.0073 -40.9924 
vt 28.0031 -40.998 

usemtl Meshpart7Mtl

f 498/498/498 502/502/502 499/499/499 
f 501/501/501 499/499/499 502/502/502 
f 498/498/498 500/500/500 503/503/503 
f 498/498/498 503/503/503 502/502/502 
f 504/504/504 502/502/502 503/503/503 
f 501/501/501 502/502/502 505/505/505 
f 502/502/502 504/504/504 505/505/505 
f 507/507/507 505/505/505 504/504/504 
f 505/505/505 507/507/507 508/508/508 
f 512/512/512 510/510/510 511/511/511 
f 510/510/510 512/512/512 509/509/509 
f 514/514/514 509/509/509 512/512/512 
f 514/514/514 512/512/512 513/513/513 
f 509/509/509 514/514/514 515/515/515 
f 513/513/513 517/517/517 514/514/514 
f 518/518/518 514/514/514 517/517/517 
f 515/515/515 514/514/514 520/520/520 
f 514/514/514 521/521/521 520/520/520 
f 514/514/514 518/518/518 521/521/521 
f 520/520/520 521/521/521 522/522/522 
f 521/521/521 523/523/523 522/522/522 
f 524/524/524 525/525/525 526/526/526 
f 527/527/527 526/526/526 525/525/525 
f 527/527/527 528/528/528 526/526/526 
f 527/527/527 525/525/525 529/529/529 
f 525/525/525 531/531/531 529/529/529 
f 525/525/525 524/524/524 532/532/532 
f 525/525/525 532/532/532 531/531/531 
f 533/533/533 532/532/532 524/524/524 
f 532/532/532 533/533/533 534/534/534 
f 535/535/535 539/539/539 536/536/536 
f 539/539/539 535/535/535 541/541/541 
f 542/542/542 540/540/540 539/539/539 
f 541/541/541 542/542/542 539/539/539 
f 540/540/540 542/542/542 543/543/543 
f 542/542/542 541/541/541 544/544/544 
f 542/542/542 545/545/545 543/543/543 
f 544/544/544 545/545/545 542/542/542 
f 546/546/546 545/545/545 544/544/544 
f 550/550/550 549/549/549 548/548/548 
f 549/549/549 550/550/550 552/552/552 
f 551/551/551 554/554/554 550/550/550 
f 554/554/554 552/552/552 550/550/550 
f 553/553/553 554/554/554 551/551/551 
f 552/552/552 554/554/554 555/555/555 
f 555/555/555 554/554/554 556/556/556 
f 557/557/557 554/554/554 553/553/553 
f 558/558/558 556/556/556 554/554/554 
f 554/554/554 557/557/557 558/558/558 
f 560/560/560 558/558/558 559/559/559 
f 556/556/556 558/558/558 560/560/560 
f 563/563/563 562/562/562 564/564/564 
f 562/562/562 565/565/565 564/564/564 
f 567/567/567 569/569/569 570/570/570 
f 570/570/570 569/569/569 572/572/572 
f 572/572/572 569/569/569 571/571/571 
f 565/565/565 570/570/570 572/572/572 
f 568/568/568 572/572/572 571/571/571 
f 564/564/564 565/565/565 572/572/572 
f 572/572/572 568/568/568 564/564/564 

