# Blender 5.2.0 LTS
# www.blender.org
mtllib Bubble HandgunBody.mtl
o Bubble_Handgun_Body
v -0.073425 -0.755470 0.771767
v -0.073425 -0.554140 0.752865
v 0.255585 -0.755470 0.771767
v 0.255585 -0.554140 0.752865
v -0.073425 -0.441100 0.713066
v 0.255585 -0.441100 0.713066
v -0.073425 -0.333340 0.641167
v 0.255585 -0.333340 0.641167
v -0.073425 -0.223300 0.584066
v 0.255585 -0.223300 0.584066
v -0.073425 -0.163630 0.565966
v 0.255585 -0.163630 0.565966
v -0.073425 -0.115380 0.567966
v 0.255585 -0.115380 0.567966
v -0.073425 -0.115380 0.567966
v 0.255585 -0.115380 0.567966
v -0.073425 -0.051510 0.655867
v 0.255585 -0.051510 0.655867
v 0.255585 -0.051510 0.987566
v -0.073425 -0.051510 0.987566
v -0.073425 -0.119590 1.060266
v 0.255585 -0.119590 1.060266
v 0.255585 -0.755470 0.771767
v 0.255585 -0.517820 1.221565
v 0.255585 -0.704030 1.242867
v 0.255585 -0.554140 0.752865
v 0.255585 -0.415400 1.183466
v 0.255585 -0.441100 0.713066
v 0.255585 -0.316160 1.115767
v 0.255585 -0.333340 0.641167
v 0.255585 -0.214220 1.060465
v 0.255585 -0.223300 0.584066
v 0.255585 -0.159100 1.060165
v 0.255585 -0.163630 0.565966
v 0.255585 -0.051510 0.655867
v 0.255585 -0.115380 0.567966
v 0.255585 -0.051510 0.987566
v 0.255585 -0.119590 1.060266
v -0.073425 -0.119590 1.060266
v 0.255585 -0.119590 1.060266
v -0.073425 -0.159100 1.060165
v 0.255585 -0.159100 1.060165
v -0.073425 -0.214220 1.060465
v 0.255585 -0.214220 1.060465
v -0.073425 -0.316160 1.115767
v 0.255585 -0.316160 1.115767
v -0.073425 -0.415400 1.183466
v 0.255585 -0.415400 1.183466
v -0.073425 -0.517820 1.221565
v 0.255585 -0.517820 1.221565
v -0.073425 -0.704030 1.242867
v 0.255585 -0.704030 1.242867
v -0.073425 -0.755470 0.771767
v 0.255585 -0.704030 1.242867
v -0.073425 -0.704030 1.242867
v 0.255585 -0.755470 0.771767
v -0.073425 -0.755470 0.771767
v -0.073425 -0.517820 1.221565
v -0.073425 -0.554140 0.752865
v -0.073425 -0.704030 1.242867
v -0.073425 -0.415400 1.183466
v -0.073425 -0.441100 0.713066
v -0.073425 -0.316160 1.115767
v -0.073425 -0.333340 0.641167
v -0.073425 -0.214220 1.060465
v -0.073425 -0.223300 0.584066
v -0.073425 -0.159100 1.060165
v -0.073425 -0.163630 0.565966
v -0.073425 -0.051510 0.655867
v -0.073425 -0.115380 0.567966
v -0.073425 -0.051510 0.987566
v -0.073425 -0.119590 1.060266
v 0.242584 0.183480 -0.115835
v -0.060425 0.110150 -0.115835
v -0.060425 0.183480 -0.115835
v 0.242584 0.110150 -0.115835
v -0.060425 0.036820 -0.115835
v 0.242584 0.036820 -0.115835
v -0.060425 -0.040500 -0.115835
v 0.242584 -0.040500 -0.115835
v -0.060425 -0.817540 0.678967
v -0.060425 -0.577260 0.654066
v 0.242584 -0.817540 0.678967
v 0.242584 -0.577260 0.654066
v -0.060425 -0.442340 0.601465
v 0.242584 -0.442340 0.601465
v -0.060425 -0.313730 0.539165
v 0.242584 -0.313730 0.539165
v -0.060425 -0.182400 0.486366
v 0.242584 -0.182400 0.486366
v -0.060425 -0.111190 0.475065
v 0.242584 -0.111190 0.475065
v -0.060425 -0.039970 0.478167
v 0.242584 -0.039970 0.478167
v 0.242584 0.183480 1.240665
v -0.060425 0.183480 0.484566
v -0.060425 0.183480 1.240665
v 0.242584 0.183480 0.484566
v 0.242584 0.183480 -0.115835
v -0.060425 0.183480 -0.115835
v 0.242584 0.183480 0.484566
v 0.242584 0.110150 1.230566
v 0.242584 0.110150 0.468466
v 0.242584 0.183480 1.240665
v 0.242584 0.183480 -0.115835
v 0.242584 0.036820 1.215567
v 0.242584 0.110150 -0.115835
v 0.242584 0.036820 0.454065
v 0.242584 0.036820 -0.115835
v 0.242584 -0.040500 -0.115835
v 0.242584 -0.039980 1.128466
v 0.242584 -0.039970 0.478167
v 0.242584 -0.105770 1.128166
v 0.242584 -0.111190 0.475065
v 0.242584 -0.182400 0.486366
v 0.242584 -0.171560 1.142466
v 0.242584 -0.313730 0.539165
v 0.242584 -0.293220 1.192865
v 0.242584 -0.442340 0.601465
v 0.242584 -0.411670 1.249466
v 0.242584 -0.577260 0.654066
v 0.242584 -0.533900 1.299767
v 0.242584 -0.817540 0.678967
v 0.242584 -0.756150 1.327967
v -0.060425 0.110150 1.230566
v 0.242584 0.110150 1.230566
v -0.060425 0.183480 1.240665
v 0.242584 0.183480 1.240665
v 0.242584 0.036820 1.215567
v -0.060425 0.036820 1.215567
v 0.242584 -0.039980 1.128466
v -0.060425 -0.039980 1.128466
v -0.060425 -0.105770 1.128166
v 0.242584 -0.105770 1.128166
v -0.060425 -0.171560 1.142466
v 0.242584 -0.171560 1.142466
v -0.060425 -0.293220 1.192865
v 0.242584 -0.293220 1.192865
v -0.060425 -0.411670 1.249466
v 0.242584 -0.411670 1.249466
v -0.060425 -0.533900 1.299767
v 0.242584 -0.533900 1.299767
v -0.060425 -0.756150 1.327967
v 0.242584 -0.756150 1.327967
v -0.060425 -0.817540 0.678967
v 0.242584 -0.756150 1.327967
v -0.060425 -0.756150 1.327967
v 0.242584 -0.817540 0.678967
v 0.242584 0.036820 1.215567
v -0.060425 0.036820 1.215567
v 0.242584 -0.039980 1.128466
v -0.060425 -0.039980 1.128466
v -0.060425 -0.039970 0.478167
v -0.060425 -0.040500 -0.115835
v 0.242584 -0.040500 -0.115835
v 0.242584 -0.039970 0.478167
v -0.060425 0.183480 -0.115835
v -0.060425 0.110150 0.475866
v -0.060425 0.183480 0.484566
v -0.060425 0.110150 -0.115835
v -0.060425 0.110150 1.230566
v -0.060425 0.183480 1.240665
v -0.060425 0.036820 1.215567
v -0.060425 0.036820 0.454065
v -0.060425 0.036820 -0.115835
v -0.060425 -0.040500 -0.115835
v -0.060425 -0.039980 1.128466
v -0.060425 -0.039970 0.478167
v -0.060425 -0.105770 1.128166
v -0.060425 -0.111190 0.475065
v -0.060425 -0.182400 0.486366
v -0.060425 -0.171560 1.142466
v -0.060425 -0.313730 0.539165
v -0.060425 -0.293220 1.192865
v -0.060425 -0.442340 0.601465
v -0.060425 -0.411670 1.249466
v -0.060425 -0.577260 0.654066
v -0.060425 -0.533900 1.299767
v -0.060425 -0.817540 0.678967
v -0.060425 -0.756150 1.327967
v 0.090576 0.385400 -0.933535
v 0.039581 0.364260 -0.933535
v 0.141602 0.364260 -0.933535
v 0.163574 0.313220 -0.933535
v 0.141602 0.262170 -0.933535
v 0.018585 0.313220 -0.933535
v 0.090576 0.241030 -0.933535
v 0.039581 0.262170 -0.933535
v 0.141602 0.262170 -1.003735
v 0.141602 0.262170 -0.933535
v 0.090576 0.241030 -1.003735
v 0.090576 0.241030 -0.933535
v 0.039581 0.262170 -1.003735
v 0.039581 0.262170 -0.933535
v 0.039581 0.364260 -0.933535
v 0.039581 0.364260 -1.003735
v 0.018585 0.313220 -0.933535
v 0.018585 0.313220 -1.003735
v 0.039581 0.262170 -1.003735
v 0.039581 0.262170 -0.933535
v 0.090576 0.385400 -0.933535
v 0.090576 0.385400 -1.003735
v 0.141602 0.364260 -1.003735
v 0.039581 0.364260 -0.933535
v 0.141602 0.364260 -0.933535
v 0.039581 0.364260 -1.003735
v 0.141602 0.364260 -1.003735
v 0.141602 0.364260 -0.933535
v 0.163574 0.313220 -1.003735
v 0.163574 0.313220 -0.933535
v 0.141602 0.262170 -1.003735
v 0.141602 0.262170 -0.933535
v 0.141602 0.262170 -1.003735
v 0.090576 0.202830 -1.003735
v 0.090576 0.241030 -1.003735
v 0.039581 0.262170 -1.003735
v 0.168579 0.235160 -1.003735
v 0.012573 0.235160 -1.003735
v 0.163574 0.313220 -1.003735
v 0.018585 0.313220 -1.003735
v 0.201599 0.313220 -1.003735
v -0.019409 0.313220 -1.003735
v 0.168579 0.391280 -1.003735
v 0.012573 0.391280 -1.003735
v 0.141602 0.364260 -1.003735
v 0.039581 0.364260 -1.003735
v 0.090576 0.423610 -1.003735
v 0.090576 0.385400 -1.003735
v 0.168579 0.391280 -1.003735
v 0.183594 0.406160 -0.975433
v 0.090576 0.444660 -0.975433
v 0.090576 0.423610 -1.003735
v 0.012573 0.391280 -1.003735
v -0.002411 0.406160 -0.975433
v -0.002411 0.406160 -0.975433
v -0.002411 0.406160 -0.152235
v 0.090576 0.444660 -0.975433
v 0.090576 0.444660 -0.152235
v 0.183594 0.406160 -0.975433
v 0.183594 0.406160 -0.152235
v 0.168579 0.391280 -1.003735
v 0.222595 0.313220 -0.975433
v 0.201599 0.313220 -1.003735
v 0.168579 0.235160 -1.003735
v 0.183594 0.406160 -0.975433
v 0.183594 0.220270 -0.975433
v 0.183594 0.406160 -0.975433
v 0.183594 0.406160 -0.152235
v 0.222595 0.313220 -0.975433
v 0.183594 0.220270 -0.152235
v 0.222595 0.313220 -0.152235
v 0.183594 0.220270 -0.975433
v 0.090576 0.444660 -0.152235
v 0.222595 0.313220 -0.152235
v 0.183594 0.406160 -0.152235
v 0.090576 0.181780 -0.152235
v 0.183594 0.220270 -0.152235
v -0.040405 0.313220 -0.152235
v -0.002411 0.220270 -0.152235
v -0.002411 0.406160 -0.152235
v 0.168579 0.235160 -1.003735
v 0.183594 0.220270 -0.975433
v 0.090576 0.181780 -0.975433
v 0.090576 0.202830 -1.003735
v 0.012573 0.235160 -1.003735
v -0.002411 0.220270 -0.975433
v -0.002411 0.220270 -0.152235
v -0.002411 0.220270 -0.975433
v 0.090576 0.181780 -0.152235
v 0.090576 0.181780 -0.975433
v 0.183594 0.220270 -0.152235
v 0.183594 0.220270 -0.975433
v 0.012573 0.391280 -1.003735
v 0.012573 0.235160 -1.003735
v -0.002411 0.406160 -0.975433
v -0.002411 0.220270 -0.975433
v -0.040405 0.313220 -0.975433
v -0.019409 0.313220 -1.003735
v -0.002411 0.406160 -0.975433
v -0.040405 0.313220 -0.152235
v -0.002411 0.406160 -0.152235
v -0.040405 0.313220 -0.975433
v -0.002411 0.220270 -0.152235
v -0.002411 0.220270 -0.975433
v -0.211426 0.096310 -0.378534
v -0.178406 0.110070 -0.378633
v -0.178406 0.104150 -0.380835
v -0.207397 0.092170 -0.380835
v -0.179413 0.098450 -0.378334
v -0.225403 0.063250 -0.378534
v -0.203400 0.088180 -0.378334
v -0.219421 0.063250 -0.380835
v -0.214417 0.063250 -0.378334
v -0.203400 0.038320 -0.378334
v -0.207397 0.034330 -0.380835
v -0.179413 0.028040 -0.378334
v -0.178406 0.022350 -0.380835
v -0.211426 0.030190 -0.378534
v -0.178406 0.016430 -0.378633
v -0.211426 0.096310 -0.366835
v -0.178406 0.112630 -0.372734
v -0.213409 0.098050 -0.372734
v -0.178406 0.110070 -0.366835
v -0.211426 0.096310 -0.378534
v -0.178406 0.110070 -0.378633
v -0.202423 0.039920 -0.372734
v -0.203400 0.038320 -0.378334
v -0.179413 0.028040 -0.378334
v -0.179413 0.030420 -0.372734
v -0.179413 0.028040 -0.367035
v -0.203400 0.038320 -0.367035
v -0.203400 0.088180 -0.367035
v -0.203400 0.088180 -0.378334
v -0.202423 0.086580 -0.372734
v -0.214417 0.063250 -0.378334
v -0.211426 0.063250 -0.372734
v -0.214417 0.063250 -0.367035
v -0.202423 0.039920 -0.372734
v -0.203400 0.038320 -0.378334
v -0.203400 0.038320 -0.367035
v -0.211426 0.096310 -0.366835
v -0.178406 0.110070 -0.366835
v -0.178406 0.104150 -0.364534
v -0.207397 0.092170 -0.364534
v -0.179413 0.098450 -0.367035
v -0.225403 0.063250 -0.366835
v -0.203400 0.088180 -0.367035
v -0.214417 0.063250 -0.367035
v -0.179413 0.028040 -0.367035
v -0.211426 0.030190 -0.366835
v -0.178406 0.016430 -0.366835
v -0.178406 0.022350 -0.364534
v -0.207397 0.034330 -0.364534
v -0.219421 0.063250 -0.364534
v -0.203400 0.038320 -0.367035
v -0.179413 0.098450 -0.367035
v -0.203400 0.088180 -0.367035
v -0.179413 0.098450 -0.378334
v -0.203400 0.088180 -0.378334
v -0.202423 0.086580 -0.372734
v -0.179413 0.096080 -0.372734
v -0.211426 0.030190 -0.378534
v -0.178406 0.016430 -0.378633
v -0.178406 0.013870 -0.372734
v -0.213409 0.028450 -0.372734
v -0.211426 0.030190 -0.366835
v -0.178406 0.016430 -0.366835
v -0.211426 0.096310 -0.366835
v -0.213409 0.098050 -0.372734
v -0.211426 0.096310 -0.378534
v -0.228424 0.063250 -0.372734
v -0.225403 0.063250 -0.366835
v -0.225403 0.063250 -0.378534
v -0.211426 0.030190 -0.378534
v -0.213409 0.028450 -0.372734
v -0.211426 0.030190 -0.366835
v -0.151398 0.110850 -0.420334
v -0.151398 0.015650 -0.420334
v -0.131409 0.113670 -0.423134
v -0.131409 0.012830 -0.423134
v -0.131409 0.063250 -0.444035
v -0.151398 0.063250 -0.440035
v -0.151398 0.110850 -0.325134
v -0.131409 0.113670 -0.322235
v -0.131409 0.134560 -0.372734
v -0.151398 0.130570 -0.372734
v -0.151398 0.110850 -0.420334
v -0.131409 0.113670 -0.423134
v -0.151398 0.110850 -0.325134
v -0.151398 0.063250 -0.305334
v -0.131409 0.063250 -0.301434
v -0.151398 0.015650 -0.325134
v -0.131409 0.113670 -0.322235
v -0.131409 0.012830 -0.322235
v -0.151398 0.015650 -0.325134
v -0.131409 0.012830 -0.322235
v -0.131409 -0.008060 -0.372734
v -0.151398 -0.004070 -0.372734
v -0.151398 0.015650 -0.420334
v -0.131409 0.012830 -0.423134
v -0.180420 0.026150 -0.409834
v -0.180420 0.063250 -0.425135
v -0.150421 0.063250 -0.440035
v -0.180420 0.100350 -0.409834
v -0.150421 0.015650 -0.420334
v -0.150421 0.110850 -0.420334
v -0.130402 0.113670 -0.423134
v -0.075409 0.119270 -0.428734
v -0.075409 0.063250 -0.451935
v -0.130402 0.063250 -0.444035
v -0.130402 0.012830 -0.423134
v -0.075409 0.007220 -0.428734
v -0.180420 0.100350 -0.409834
v -0.150421 0.110850 -0.420334
v -0.150421 0.130570 -0.372734
v -0.180420 0.115720 -0.372734
v -0.180420 0.100350 -0.335634
v -0.150421 0.110850 -0.325134
v -0.130402 0.113670 -0.322235
v -0.075409 0.142480 -0.372734
v -0.130402 0.134560 -0.372734
v -0.130402 0.113670 -0.423134
v -0.075409 0.119270 -0.316635
v -0.075409 0.119270 -0.428734
v -0.180420 0.026150 -0.335634
v -0.180420 0.100350 -0.335634
v -0.150421 0.015650 -0.325134
v -0.150421 0.110850 -0.325134
v -0.150421 0.063250 -0.305334
v -0.180420 0.063250 -0.320234
v -0.130402 0.113670 -0.322235
v -0.075409 0.119270 -0.316635
v -0.075409 0.063250 -0.293434
v -0.130402 0.063250 -0.301434
v -0.130402 0.012830 -0.322235
v -0.075409 0.007220 -0.316635
v -0.180420 0.026150 -0.409834
v -0.150421 0.015650 -0.420334
v -0.150421 -0.004070 -0.372734
v -0.180420 0.010780 -0.372734
v -0.180420 0.026150 -0.335634
v -0.150421 0.015650 -0.325134
v -0.130402 0.012830 -0.322235
v -0.130402 0.012830 -0.423134
v -0.075409 0.007220 -0.316635
v -0.075409 0.007220 -0.428734
v -0.075409 -0.015980 -0.372734
v -0.130402 -0.008060 -0.372734
v -0.180420 0.026150 -0.409834
v -0.180420 0.100350 -0.335634
v -0.180420 0.100350 -0.409834
v -0.180420 0.115720 -0.372734
v -0.180420 0.063250 -0.425135
v -0.180420 0.026150 -0.335634
v -0.180420 0.063250 -0.320234
v -0.180420 0.010780 -0.372734
vn -0.0000 -0.0949 -0.9955
vn -0.0000 -0.2203 -0.9754
vn -0.0000 -0.0948 -0.9955
vn -0.0000 -0.4566 -0.8897
vn -0.0000 -0.5122 -0.8589
vn -0.0000 -0.3795 -0.9252
vn -0.0000 -0.3796 -0.9252
vn -0.0000 -0.1262 -0.9920
vn -0.0000 0.5745 -0.8185
vn -0.0000 0.5746 -0.8185
vn -0.0000 0.9910 -0.1337
vn -0.0000 0.9910 -0.1338
vn -0.0000 0.9899 0.1414
vn -0.0000 0.9899 0.1415
vn -0.0000 0.4661 0.8847
vn 1.0000 -0.0001 -0.0000
vn 1.0000 0.0002 -0.0000
vn 1.0000 -0.0000 -0.0000
vn 1.0000 0.0001 -0.0000
vn 1.0000 0.0003 -0.0000
vn 1.0000 -0.0002 -0.0000
vn -0.0000 -0.0000 1.0000
vn -0.0000 0.4661 0.8848
vn -0.0000 0.2685 0.9633
vn -0.0000 0.5214 0.8533
vn -0.0000 0.4660 0.8848
vn -0.0000 0.2369 0.9715
vn -0.0000 0.1104 0.9939
vn -0.0000 -0.9939 0.1104
vn -1.0000 0.0001 -0.0000
vn -1.0000 -0.0000 -0.0000
vn -1.0000 0.0003 -0.0000
vn -1.0000 -0.0002 -0.0000
vn -1.0000 0.0002 -0.0000
vn -1.0000 -0.0001 -0.0000
vn -1.0000 -0.0003 -0.0000
vn -0.0000 -0.0000 -1.0000
vn -0.0000 -0.1031 -0.9947
vn -0.0000 -0.2369 -0.9715
vn -0.0000 -0.1026 -0.9947
vn -0.0000 -0.4025 -0.9154
vn -0.0000 -0.4024 -0.9154
vn -0.0000 -0.2684 -0.9633
vn -0.0000 -0.0551 -0.9985
vn -0.0000 0.0472 -0.9989
vn -0.0000 1.0000 -0.0000
vn -0.0000 -0.1657 0.9862
vn -0.0000 -0.1337 0.9910
vn -0.0001 -0.5510 0.8345
vn -0.0000 -0.5510 0.8345
vn -0.0000 0.1027 0.9947
vn -0.0000 -0.4876 0.8730
vn -0.0000 0.1026 0.9947
vn -0.0000 0.2996 0.9541
vn -0.0000 0.4091 0.9125
vn -0.0000 0.4090 0.9125
vn -0.0000 0.2592 0.9658
vn -0.0000 0.2591 0.9658
vn -0.0000 0.1259 0.9920
vn -0.0000 -0.9955 0.0947
vn -0.0000 -0.9955 0.0945
vn -0.0000 -0.9955 0.0948
vn -0.0000 -0.5511 0.8344
vn -0.0000 -0.4877 0.8730
vn -0.0000 -1.0000 -0.0000
vn -0.5500 -0.5500 -0.6285
vn 0.5500 -0.5500 -0.6285
vn -0.0000 -0.7778 -0.6285
vn -0.5500 0.5500 -0.6285
vn -0.7778 -0.0000 -0.6285
vn 0.5500 0.5500 -0.6285
vn 0.7778 -0.0000 -0.6285
vn -0.0000 0.7778 -0.6285
vn 0.0002 1.0000 -0.0000
vn -0.5500 0.5499 -0.6286
vn -0.7071 0.7071 -0.0000
vn 0.7071 0.7071 -0.0000
vn 0.5500 0.5499 -0.6286
vn 0.7071 -0.7071 -0.0000
vn 0.5499 -0.5500 -0.6285
vn 0.5499 0.5500 -0.6286
vn -0.0000 -0.7778 -0.6286
vn 0.0001 -1.0000 -0.0000
vn -0.7071 -0.7071 -0.0000
vn 0.5500 -0.5499 -0.6286
vn -0.5500 -0.5499 -0.6286
vn -0.5500 -0.5500 -0.6286
vn -0.7778 -0.0000 -0.6286
vn -0.5499 0.5500 -0.6285
vn -0.0001 -0.0000 -1.0000
vn 0.0001 -0.0000 -1.0000
vn 0.5899 0.5428 -0.5978
vn -0.0000 0.8020 -0.5974
vn 0.5264 0.6051 -0.5972
vn -0.0000 0.8019 -0.5975
vn -0.5899 0.5428 -0.5978
vn -0.5265 0.6051 -0.5972
vn -0.6831 0.7303 -0.0000
vn -0.6831 0.7303 -0.0001
vn -0.0001 1.0000 -0.0000
vn 0.6831 0.7303 -0.0000
vn 0.5900 0.5427 -0.5978
vn 0.8019 -0.0000 -0.5974
vn 0.8019 -0.0000 -0.5975
vn 0.5900 -0.5427 -0.5978
vn 0.5265 0.6051 -0.5972
vn 0.5265 -0.6050 -0.5972
vn 0.6832 0.7302 -0.0000
vn 0.6832 -0.7303 -0.0000
vn 0.5265 -0.6051 -0.5972
vn -0.0000 -0.8019 -0.5974
vn 0.5899 -0.5428 -0.5978
vn -0.0000 -0.8019 -0.5975
vn -0.5899 -0.5428 -0.5978
vn -0.5265 -0.6051 -0.5972
vn -0.6831 -0.7303 -0.0000
vn -0.0001 -1.0000 -0.0000
vn 0.6831 -0.7303 -0.0000
vn -0.5900 0.5427 -0.5978
vn -0.8019 -0.0000 -0.5975
vn -0.5265 0.6050 -0.5972
vn -0.5266 -0.6051 -0.5972
vn -0.5900 -0.5427 -0.5978
vn -0.6832 0.7302 -0.0000
vn -0.6832 0.7303 -0.0000
vn -0.6832 -0.7303 -0.0000
vn -0.0394 0.1026 -0.9939
vn -0.5206 0.5285 -0.6705
vn -0.2992 0.7166 -0.6300
vn -0.0549 0.0549 -0.9970
vn 0.2686 -0.6320 -0.7269
vn -0.7417 -0.0000 -0.6707
vn 0.4738 -0.4738 -0.7423
vn -0.0707 -0.0000 -0.9975
vn 0.6668 -0.0000 -0.7453
vn 0.4738 0.4738 -0.7423
vn -0.0548 -0.0549 -0.9970
vn 0.2671 0.6284 -0.7306
vn -0.0394 -0.1025 -0.9939
vn -0.5206 -0.5285 -0.6705
vn -0.2993 -0.7166 -0.6300
vn -0.5206 0.5286 0.6705
vn -0.3768 0.9263 -0.0000
vn -0.2993 0.7166 0.6300
vn -0.5207 0.5285 -0.6705
vn -0.2993 0.7166 -0.6300
vn 0.2671 0.6285 -0.7305
vn 0.3863 0.9224 -0.0000
vn 0.2671 0.6284 0.7306
vn 0.4738 0.4738 0.7423
vn 0.7111 -0.7031 -0.0000
vn 0.6668 -0.0000 -0.7452
vn 0.6668 -0.0000 0.7452
vn 0.4738 -0.4739 0.7423
vn -0.5206 0.5285 0.6705
vn -0.0394 0.1025 0.9939
vn -0.2992 0.7166 0.6300
vn -0.0549 0.0549 0.9970
vn 0.2671 -0.6284 0.7306
vn -0.7417 -0.0000 0.6707
vn 0.4738 -0.4738 0.7423
vn -0.5206 -0.5285 0.6705
vn -0.2992 -0.7166 0.6300
vn -0.0394 -0.1025 0.9939
vn -0.0549 -0.0549 0.9970
vn -0.0707 -0.0000 0.9975
vn 0.6668 -0.0000 0.7453
vn 0.7110 -0.7032 -0.0000
vn 0.2671 -0.6285 0.7305
vn 0.2687 -0.6321 -0.7269
vn 0.3863 -0.9224 -0.0000
vn -0.3768 -0.9263 -0.0000
vn -0.5207 -0.5286 0.6705
vn -0.2993 -0.7167 0.6300
vn -0.7418 -0.0000 0.6707
vn -0.5207 -0.5285 -0.6705
vn -0.5207 -0.5285 0.6705
vn -0.1976 -0.0000 -0.9803
vn -0.1970 0.6932 -0.6933
vn -0.1969 0.6932 -0.6933
vn -0.1969 -0.6932 -0.6933
vn -0.1970 -0.6932 -0.6933
vn -0.1976 0.9803 -0.0000
vn -0.1969 0.6933 0.6932
vn -0.1969 0.6933 0.6933
vn -0.1969 0.6933 -0.6932
vn -0.1970 0.6933 -0.6932
vn -0.1970 0.6932 0.6933
vn -0.1976 -0.0000 0.9803
vn -0.1969 -0.6932 0.6933
vn -0.1969 0.6932 0.6933
vn -0.1969 -0.6933 0.6933
vn -0.1970 -0.6933 0.6932
vn -0.1975 -0.9803 -0.0000
vn -0.1969 -0.6933 0.6932
vn -0.1976 -0.9803 -0.0000
vn -0.1970 -0.6933 -0.6932
vn -0.4436 -0.6337 -0.6337
vn -0.4409 -0.0000 -0.8975
vn -0.4409 -0.0000 -0.8976
vn -0.4436 0.6337 -0.6338
vn -0.4436 -0.6337 -0.6338
vn -0.1415 -0.0000 -0.9899
vn -0.1416 0.7000 -0.7000
vn -0.1414 -0.0000 -0.9900
vn -0.1416 -0.7000 -0.7000
vn -0.4409 0.8975 -0.0000
vn -0.4436 0.6337 -0.6337
vn -0.4436 0.6338 -0.6337
vn -0.4409 0.8976 -0.0000
vn -0.4436 0.6338 0.6337
vn -0.4436 0.6337 0.6337
vn -0.1416 0.7000 0.7000
vn -0.1415 0.9899 -0.0000
vn -0.4409 -0.0000 0.8975
vn -0.4436 -0.6337 0.6338
vn -0.4436 0.6337 0.6338
vn -0.4409 -0.0000 0.8976
vn -0.1414 -0.0000 0.9900
vn -0.1414 -0.0000 0.9899
vn -0.1416 -0.7000 0.7000
vn -0.4409 -0.8976 -0.0000
vn -0.4436 -0.6338 -0.6337
vn -0.4436 -0.6337 0.6337
vn -0.1415 -0.9899 -0.0000
vt 50.020599 -37.043999
vt 50.020599 -37.018799
vt 49.979401 -37.043999
vt 49.979401 -37.018799
vt 50.020599 -37.004700
vt 49.979401 -37.004700
vt 50.020599 -36.991199
vt 49.979401 -36.991199
vt 50.020599 -36.977501
vt 49.979401 -36.977501
vt 50.020599 -36.970001
vt 49.979401 -36.970001
vt 50.020599 -36.964001
vt 49.979401 -36.964001
vt 49.958000 -36.979401
vt 49.958000 -37.020599
vt 49.968899 -37.020599
vt 49.968899 -36.979401
vt 50.010399 -36.979401
vt 50.010399 -37.020599
vt 50.019501 -37.020599
vt 50.019501 -36.979401
vt 50.016602 -37.043999
vt 49.960400 -37.014301
vt 49.957699 -37.037601
vt 50.018902 -37.018799
vt 49.965099 -37.001499
vt 50.023899 -37.004700
vt 49.973598 -36.989101
vt 50.032902 -36.991199
vt 49.980499 -36.976299
vt 50.040001 -36.977501
vt 49.980499 -36.969501
vt 50.042301 -36.970001
vt 50.031101 -36.956001
vt 50.042000 -36.964001
vt 49.989601 -36.956001
vt 49.980499 -36.964500
vt 49.979401 -36.969501
vt 50.020599 -36.964500
vt 49.979401 -36.964500
vt 50.020599 -36.969501
vt 49.979401 -36.976299
vt 50.020599 -36.976299
vt 49.979401 -36.989101
vt 50.020599 -36.989101
vt 49.979401 -37.001499
vt 50.020599 -37.001499
vt 49.979401 -37.014301
vt 50.020599 -37.014301
vt 49.979401 -37.037601
vt 50.020599 -37.037601
vt 50.016602 -37.020599
vt 49.957699 -36.979401
vt 49.957699 -37.020599
vt 50.016602 -36.979401
vt 49.983398 -37.043999
vt 50.039600 -37.014301
vt 49.981098 -37.018799
vt 50.042301 -37.037601
vt 50.034901 -37.001499
vt 49.976101 -37.004700
vt 50.026402 -36.989101
vt 49.967098 -36.991199
vt 50.019501 -36.976299
vt 49.959999 -36.977501
vt 50.019501 -36.969501
vt 49.957699 -36.970001
vt 49.968899 -36.956001
vt 49.958000 -36.964001
vt 50.010399 -36.956001
vt 50.019501 -36.964500
vt 1.981080 -0.937436
vt 2.018920 -0.946602
vt 2.018920 -0.937436
vt 1.981080 -0.946602
vt 2.018920 -0.955768
vt 1.981080 -0.955768
vt 2.018920 -0.965434
vt 1.981080 -0.965434
vt 2.018920 -1.062560
vt 2.018920 -1.032530
vt 1.981080 -1.062560
vt 1.981080 -1.032530
vt 2.018920 -1.015660
vt 1.981080 -1.015660
vt 2.018920 -0.999587
vt 1.981080 -0.999587
vt 2.018920 -0.983171
vt 1.981080 -0.983171
vt 2.018920 -0.974269
vt 1.981080 -0.974269
vt 2.018920 -0.965368
vt 1.981080 -0.965368
vt 2.079330 -0.981081
vt 1.984810 -1.018920
vt 2.079330 -1.018920
vt 1.984810 -0.981081
vt 1.909760 -0.981081
vt 1.909760 -1.018920
vt 2.015190 -0.937436
vt 1.921930 -0.946602
vt 2.017200 -0.946602
vt 1.920670 -0.937436
vt 2.090240 -0.937436
vt 1.923820 -0.955768
vt 2.090240 -0.946602
vt 2.019000 -0.955768
vt 2.090240 -0.955768
vt 2.090240 -0.965434
vt 1.934700 -0.965369
vt 2.015980 -0.965368
vt 1.934730 -0.973593
vt 2.016380 -0.974269
vt 2.014960 -0.983171
vt 1.932950 -0.981816
vt 2.008360 -0.999587
vt 1.926650 -0.997024
vt 2.000580 -1.015660
vt 1.919570 -1.011830
vt 1.994000 -1.032530
vt 1.913280 -1.027110
vt 1.990890 -1.062560
vt 1.909760 -1.054890
vt 1.981080 -0.973593
vt 2.018920 -0.965369
vt 1.981080 -0.965369
vt 2.018920 -0.973593
vt 1.981080 -0.981816
vt 2.018920 -0.981816
vt 1.981080 -0.997024
vt 2.018920 -0.997024
vt 1.981080 -1.011830
vt 2.018920 -1.011830
vt 1.981080 -1.027110
vt 2.018920 -1.027110
vt 1.981080 -1.054890
vt 2.018920 -1.054890
vt 1.990890 -1.018920
vt 1.990890 -0.981081
vt 1.923820 -1.018920
vt 1.934700 -0.981081
vt 1.923820 -0.981081
vt 1.934700 -1.018920
vt 2.015980 -1.018920
vt 2.090240 -1.018920
vt 2.090240 -0.981081
vt 2.015980 -0.981081
vt 1.909760 -0.937436
vt 1.983720 -0.946602
vt 1.984810 -0.937436
vt 1.909760 -0.946602
vt 2.078070 -0.946602
vt 2.079330 -0.937436
vt 2.076180 -0.955768
vt 1.981000 -0.955768
vt 1.909760 -0.955768
vt 1.909760 -0.965434
vt 2.065300 -0.965369
vt 1.984020 -0.965368
vt 2.065270 -0.973593
vt 1.983620 -0.974269
vt 1.985040 -0.983171
vt 2.067050 -0.981816
vt 1.991640 -0.999587
vt 2.073350 -0.997024
vt 1.999420 -1.015660
vt 2.080430 -1.011830
vt 2.006000 -1.032530
vt 2.086720 -1.027110
vt 2.009110 -1.062560
vt 2.090240 -1.054890
vt 5.993620 -10.993600
vt 6.006380 -10.993600
vt 6.000000 -10.991000
vt 5.993620 -11.006400
vt 5.990980 -11.000000
vt 6.006380 -11.006400
vt 6.009020 -11.000000
vt 6.000000 -11.009000
vt 5.995620 -11.000000
vt 6.004380 -10.993600
vt 5.995620 -10.993600
vt 6.004380 -11.000000
vt 5.995620 -11.006400
vt 6.004380 -11.006400
vt 11.993600 -37.006401
vt 12.000000 -37.013802
vt 12.000000 -37.008999
vt 12.006400 -37.006401
vt 11.990200 -37.009800
vt 12.009800 -37.009800
vt 11.991000 -37.000000
vt 12.009000 -37.000000
vt 11.986200 -37.000000
vt 12.013800 -37.000000
vt 11.990200 -36.990200
vt 12.009800 -36.990200
vt 11.993600 -36.993599
vt 12.006400 -36.993599
vt 12.000000 -36.986198
vt 12.000000 -36.991001
vt 11.946800 -36.990200
vt 11.950300 -37.000000
vt 11.950300 -36.988400
vt 11.946800 -37.000000
vt 11.946800 -37.009800
vt 11.950300 -37.011600
vt 12.053200 -37.011600
vt 12.053200 -37.000000
vt 12.053200 -36.988400
vt 12.053200 -36.990200
vt 12.049700 -37.000000
vt 12.053200 -37.009800
vt 12.049700 -36.988400
vt 12.049700 -37.011600
vt 11.946800 -36.988400
vt 11.946800 -37.011600
vt 12.000000 -36.983601
vt 12.016400 -37.000000
vt 12.011600 -36.988400
vt 12.000000 -37.016399
vt 12.011600 -37.011600
vt 11.983600 -37.000000
vt 11.988400 -37.011600
vt 11.988400 -36.988400
vt 43.997002 -48.994900
vt 44.001099 -48.995899
vt 43.996899 -48.994099
vt 44.000599 -48.996399
vt 43.997002 -48.995602
vt 44.002800 -49.000000
vt 44.000099 -48.996899
vt 44.002102 -49.000000
vt 44.001400 -49.000000
vt 44.000099 -49.003101
vt 44.000599 -49.003601
vt 43.997002 -49.004398
vt 43.997002 -49.005100
vt 44.001099 -49.004101
vt 43.996899 -49.005901
vt 44.000702 -49.001099
vt 44.000000 -48.996899
vt 44.000000 -49.001301
vt 44.000702 -48.996899
vt 43.999298 -49.001099
vt 43.999298 -48.996899
vt 43.999298 -48.997002
vt 43.999298 -49.000099
vt 44.000000 -48.999901
vt 44.000000 -48.997101
vt 44.000702 -48.997002
vt 44.000702 -49.000099
vt 44.000702 -49.000000
vt 44.000000 -49.000000
vt 43.999298 -49.000000
vt 44.000000 -49.002899
vt 44.000702 -49.003101
vt 43.999298 -49.003101
vt 43.998901 -48.995899
vt 44.002998 -48.994900
vt 44.003101 -48.994099
vt 43.999401 -48.996399
vt 44.002998 -48.995602
vt 43.997200 -49.000000
vt 43.999901 -48.996899
vt 43.998901 -49.004101
vt 44.003101 -49.005901
vt 44.002998 -49.005100
vt 43.999401 -49.003601
vt 44.002998 -49.004398
vt 43.997898 -49.000000
vt 43.998600 -49.000000
vt 43.999901 -49.003101
vt 44.000702 -48.995899
vt 44.000000 -48.995701
vt 43.999298 -48.995899
vt 43.999298 -49.004101
vt 44.000000 -49.004299
vt 44.000702 -49.004101
vt 3.998780 -17.000000
vt 4.001220 -16.993999
vt 3.998780 -16.993700
vt 4.001220 -17.006001
vt 3.998780 -17.006300
vt 4.001220 -17.000000
vt 4.000000 -16.998800
vt 4.005950 -17.001200
vt 4.006300 -16.998800
vt 4.000000 -17.001200
vt 3.994050 -17.001200
vt 3.993700 -16.998800
vt 3.998780 -16.993999
vt 3.998780 -17.006001
vt 4.001220 -16.993700
vt 4.001220 -17.006300
vt 42.006599 0.995362
vt 42.006599 1.000000
vt 42.002800 1.000000
vt 42.006599 1.004640
vt 42.002800 0.994050
vt 42.002800 1.005950
vt 41.993401 1.000000
vt 42.000401 1.006300
vt 41.993401 1.007000
vt 42.000401 1.000000
vt 42.000401 0.993697
vt 41.993401 0.992997
vt 42.000000 0.997189
vt 41.993999 0.997189
vt 41.995399 0.993445
vt 42.000000 0.993445
vt 42.004601 0.993445
vt 42.006001 0.997189
vt 42.006302 0.999622
vt 42.000000 1.006550
vt 42.000000 0.999622
vt 41.993698 0.999622
vt 42.007000 1.006550
vt 41.993000 1.006550
vt 41.997200 1.000000
vt 41.993401 0.995362
vt 41.997200 0.994050
vt 41.997200 1.005950
vt 41.993401 1.004640
vt 41.999599 1.006300
vt 42.006599 1.007000
vt 41.999599 1.000000
vt 41.999599 0.993697
vt 42.006599 0.992997
vt 41.995399 0.995362
vt 42.004601 1.004640
vt 41.995399 1.004640
vt 42.000000 1.006560
vt 42.004601 0.995362
vt 42.000000 0.993441
s 1
usemtl Meshpart1Mtl
f 1/1/1 2/2/2 3/3/3
f 2/2/2 4/4/2 3/3/3
f 4/4/2 2/2/2 5/5/4
f 5/5/4 6/6/4 4/4/2
f 6/6/4 5/5/4 7/7/5
f 7/7/5 8/8/5 6/6/4
f 8/8/5 7/7/5 9/9/6
f 9/9/6 10/10/7 8/8/5
f 10/10/7 9/9/6 11/11/8
f 11/11/8 12/12/8 10/10/7
f 12/12/8 11/11/8 13/13/9
f 13/13/9 14/14/9 12/12/8
f 16/15/10 15/16/9 17/17/11
f 17/17/11 18/18/12 16/15/10
f 17/17/11 19/19/13 18/18/12
f 17/17/11 20/20/14 19/19/13
f 19/19/13 20/20/14 21/21/15
f 21/21/15 22/22/15 19/19/13
f 23/23/16 24/24/17 25/25/18
f 24/24/17 23/23/16 26/26/19
f 26/26/19 27/27/20 24/24/17
f 27/27/20 26/26/19 28/28/18
f 28/28/18 29/29/18 27/27/20
f 29/29/18 28/28/18 30/30/18
f 30/30/18 31/31/16 29/29/18
f 31/31/16 30/30/18 32/32/19
f 32/32/19 33/33/21 31/31/16
f 33/33/21 32/32/19 34/34/18
f 35/35/19 33/33/21 34/34/18
f 35/35/19 34/34/18 36/36/16
f 33/33/21 35/35/19 37/37/18
f 33/33/21 37/37/18 38/38/18
f 41/39/22 40/40/23 39/41/23
f 40/40/23 41/39/22 42/42/22
f 43/43/24 42/42/22 41/39/22
f 42/42/22 43/43/24 44/44/24
f 45/45/25 44/44/24 43/43/24
f 44/44/24 45/45/25 46/46/25
f 47/47/23 46/46/25 45/45/25
f 46/46/25 47/47/23 48/48/26
f 49/49/27 48/48/26 47/47/23
f 48/48/26 49/49/27 50/50/27
f 51/51/28 50/50/27 49/49/27
f 50/50/27 51/51/28 52/52/28
f 53/53/29 54/54/29 55/55/29
f 54/54/29 53/53/29 56/56/29
f 57/57/30 58/58/30 59/59/31
f 58/58/30 57/57/30 60/60/32
f 61/61/31 59/59/31 58/58/30
f 59/59/31 61/61/31 62/62/31
f 63/63/31 62/62/31 61/61/31
f 62/62/31 63/63/31 64/64/30
f 65/65/31 64/64/30 63/63/31
f 65/65/31 66/66/33 64/64/30
f 67/67/33 66/66/33 65/65/31
f 66/66/33 67/67/33 68/68/34
f 69/69/35 68/68/34 67/67/33
f 68/68/34 69/69/35 70/70/31
f 69/69/35 67/67/33 71/71/36
f 71/71/36 67/67/33 72/72/31
f 213/187/90 214/188/37 215/189/37
f 214/188/37 216/190/91 215/189/37
f 217/191/37 214/188/37 213/187/90
f 216/190/91 214/188/37 218/192/37
f 219/193/37 217/191/37 213/187/90
f 218/192/37 220/194/37 216/190/91
f 217/191/37 219/193/37 221/195/37
f 220/194/37 218/192/37 222/196/37
f 219/193/37 223/197/37 221/195/37
f 222/196/37 224/198/37 220/194/37
f 223/197/37 219/193/37 225/199/90
f 220/194/37 224/198/37 226/200/91
f 225/199/90 227/201/37 223/197/37
f 227/201/37 226/200/91 224/198/37
f 227/201/37 225/199/90 228/202/37
f 226/200/91 227/201/37 228/202/37
f 229/203/92 231/204/93 230/205/94
f 231/204/93 229/203/92 232/206/95
f 233/207/96 231/204/93 232/206/95
f 234/208/97 231/204/93 233/207/96
f 235/208/98 236/209/99 237/204/100
f 238/210/46 237/204/100 236/209/99
f 237/204/100 238/210/46 239/205/101
f 240/211/101 239/205/101 238/210/46
f 241/212/102 242/213/103 243/210/104
f 242/213/103 244/214/105 243/210/104
f 245/215/106 242/213/103 241/212/102
f 244/214/105 242/213/103 246/216/107
f 248/217/108 249/213/18 247/215/108
f 249/213/18 248/217/108 251/206/18
f 251/206/18 252/216/109 249/213/18
f 252/216/109 251/206/18 250/218/109
f 253/219/22 254/220/22 255/221/22
f 256/222/22 254/220/22 253/219/22
f 254/220/22 256/222/22 257/223/22
f 253/219/22 258/224/22 256/222/22
f 256/222/22 258/224/22 259/225/22
f 258/224/22 253/219/22 260/226/22
f 262/215/110 263/213/111 261/212/112
f 264/210/113 261/212/112 263/213/111
f 263/213/111 265/214/114 264/210/113
f 265/214/114 263/213/111 266/216/115
f 268/216/116 269/206/117 267/218/116
f 269/206/117 268/216/116 270/213/65
f 270/213/65 271/217/118 269/206/117
f 271/217/118 270/213/65 272/215/118
f 273/203/119 277/204/120 275/205/121
f 276/208/122 277/204/120 274/207/123
f 277/204/120 273/203/119 278/206/120
f 278/206/120 274/207/123 277/204/120
f 279/205/124 280/210/31 281/211/125
f 280/210/31 279/205/124 282/204/31
f 282/204/31 283/209/126 280/210/31
f 283/209/126 282/204/31 284/208/126
f 287/227/127 285/228/128 286/229/129
f 285/228/128 287/227/127 288/230/130
f 289/231/131 288/230/130 287/227/127
f 290/232/132 285/228/128 288/230/130
f 288/230/130 289/231/131 291/233/133
f 292/234/134 288/230/130 291/233/133
f 290/232/132 288/230/130 292/234/134
f 292/234/134 291/233/133 293/235/135
f 294/236/136 292/234/134 293/235/135
f 295/237/137 290/232/132 292/234/134
f 292/234/134 294/236/136 295/237/137
f 296/238/138 295/237/137 294/236/136
f 295/237/137 296/238/138 297/239/139
f 290/232/132 295/237/137 298/240/140
f 297/239/139 298/240/140 295/237/137
f 298/240/140 297/239/139 299/241/141
f 300/242/142 301/243/143 302/244/76
f 301/243/143 300/242/142 303/245/144
f 301/243/143 304/246/145 302/244/76
f 304/246/145 301/243/143 305/247/146
f 308/248/147 307/249/136 306/250/77
f 306/250/77 309/251/148 308/248/147
f 306/250/77 310/252/149 309/251/148
f 310/252/149 306/250/77 311/253/150
f 314/251/151 315/254/152 313/245/133
f 315/254/152 314/251/151 316/255/18
f 317/256/153 314/251/151 312/247/154
f 314/251/151 317/256/153 316/255/18
f 318/257/77 315/254/152 316/255/18
f 317/256/153 318/257/77 316/255/18
f 315/254/152 318/257/77 319/258/136
f 318/257/77 317/256/153 320/259/150
f 321/260/155 323/261/156 322/262/157
f 323/261/156 321/260/155 324/263/158
f 324/263/158 325/264/159 323/261/156
f 326/265/160 324/263/158 321/260/155
f 325/264/159 324/263/158 327/266/161
f 330/267/162 331/268/163 332/269/164
f 330/267/162 332/269/164 333/270/165
f 333/270/165 326/265/160 330/267/162
f 333/270/165 332/269/164 329/271/149
f 326/265/160 333/270/165 334/272/166
f 324/263/158 326/265/160 334/272/166
f 334/272/166 327/266/161 324/263/158
f 327/266/161 334/272/166 328/273/167
f 335/274/150 334/272/166 333/270/165
f 333/270/165 329/271/149 335/274/150
f 334/272/166 335/274/150 328/273/167
f 340/250/168 336/248/169 337/249/161
f 338/252/170 340/250/168 339/253/133
f 336/248/169 340/250/168 341/251/171
f 340/250/168 338/252/170 341/251/171
f 342/242/140 343/245/141 344/243/172
f 344/243/172 345/244/84 342/242/140
f 344/243/172 346/246/173 345/244/84
f 346/246/173 344/243/172 347/247/174
f 351/255/31 348/275/155 349/276/76
f 351/255/31 349/276/76 350/277/145
f 348/275/155 351/255/31 352/254/175
f 350/277/145 353/256/132 351/255/31
f 354/278/176 351/255/31 353/256/132
f 351/255/31 354/278/176 355/279/84
f 351/255/31 355/279/84 356/280/177
f 356/280/177 352/254/175 351/255/31
f 361/281/178 357/282/179 359/283/180
f 358/284/181 361/281/178 360/285/182
f 357/282/179 361/281/178 362/286/178
f 358/284/181 362/286/178 361/281/178
f 365/287/183 363/288/184 364/289/185
f 363/288/184 365/287/183 366/290/183
f 367/291/186 366/290/183 365/287/183
f 367/291/186 365/287/183 368/292/187
f 369/293/188 370/281/189 371/286/189
f 372/294/190 371/286/189 370/281/189
f 369/293/188 371/286/189 373/295/191
f 371/286/189 372/294/190 374/296/192
f 375/291/193 377/287/194 376/292/195
f 375/291/193 378/290/196 377/287/194
f 379/288/197 377/287/194 378/290/196
f 377/287/194 379/288/197 380/289/197
usemtl Meshpart2Mtl
f 73/73/37 74/74/37 75/75/37
f 74/74/37 73/73/37 76/76/37
f 74/74/37 76/76/37 77/77/37
f 77/77/37 76/76/37 78/78/37
f 77/77/37 78/78/37 79/79/37
f 79/79/37 78/78/37 80/80/37
f 81/81/38 82/82/39 83/83/40
f 82/82/39 84/84/39 83/83/40
f 84/84/39 82/82/39 85/85/41
f 85/85/41 86/86/42 84/84/39
f 86/86/42 85/85/41 87/87/41
f 87/87/41 88/88/41 86/86/42
f 88/88/41 87/87/41 89/89/43
f 89/89/43 90/90/43 88/88/41
f 90/90/43 89/89/43 91/91/44
f 91/91/44 92/92/44 90/90/43
f 92/92/44 91/91/44 93/93/45
f 93/93/45 94/94/45 92/92/44
f 95/95/46 96/96/46 97/97/46
f 96/96/46 95/95/46 98/98/46
f 99/99/46 96/96/46 98/98/46
f 96/96/46 99/99/46 100/100/46
f 101/101/18 102/102/21 103/103/18
f 102/102/21 101/101/18 104/104/18
f 103/103/18 105/105/18 101/101/18
f 106/106/18 103/103/18 102/102/21
f 105/105/18 103/103/18 107/107/18
f 103/103/18 106/106/18 108/108/18
f 108/108/18 107/107/18 103/103/18
f 107/107/18 108/108/18 109/109/18
f 109/109/18 108/108/18 110/110/18
f 111/111/18 108/108/18 106/106/18
f 112/112/18 110/110/18 108/108/18
f 108/108/18 111/111/18 112/112/18
f 113/113/16 112/112/18 111/111/18
f 113/113/16 114/114/19 112/112/18
f 113/113/16 115/115/16 114/114/19
f 115/115/16 113/113/16 116/116/16
f 116/116/16 117/117/16 115/115/16
f 117/117/16 116/116/16 118/118/19
f 118/118/19 119/119/16 117/117/16
f 119/119/16 118/118/19 120/120/18
f 120/120/18 121/121/18 119/119/16
f 121/121/18 120/120/18 122/122/18
f 122/122/18 123/123/18 121/121/18
f 123/123/18 122/122/18 124/124/18
f 125/76/47 126/74/47 127/73/48
f 127/73/48 126/74/47 128/75/48
f 125/76/47 129/77/49 126/74/47
f 130/78/50 129/77/49 125/76/47
f 133/125/51 131/126/52 132/127/52
f 131/126/52 133/125/51 134/128/53
f 135/129/54 134/128/53 133/125/51
f 134/128/53 135/129/54 136/130/54
f 137/131/55 136/130/54 135/129/54
f 136/130/54 137/131/55 138/132/56
f 139/133/55 138/132/56 137/131/55
f 138/132/56 139/133/55 140/134/56
f 141/135/57 140/134/56 139/133/55
f 140/134/56 141/135/57 142/136/58
f 143/137/59 142/136/58 141/135/57
f 142/136/58 143/137/59 144/138/59
f 145/139/60 146/99/60 147/100/61
f 146/99/60 145/139/60 148/140/62
f 150/141/63 151/142/64 149/143/63
f 152/144/64 151/142/64 150/141/63
f 153/145/65 154/146/65 155/147/65
f 153/145/65 155/147/65 156/148/65
f 157/149/31 158/150/35 159/151/36
f 158/150/35 157/149/31 160/152/31
f 161/153/31 159/151/36 158/150/35
f 159/151/36 161/153/31 162/154/31
f 158/150/35 163/155/30 161/153/31
f 160/152/31 164/156/30 158/150/35
f 163/155/30 158/150/35 164/156/30
f 164/156/30 160/152/31 165/157/31
f 166/158/31 164/156/30 165/157/31
f 163/155/30 164/156/30 167/159/35
f 164/156/30 166/158/31 168/160/30
f 167/159/35 164/156/30 168/160/30
f 168/160/30 169/161/35 167/159/35
f 169/161/35 168/160/30 170/162/33
f 171/163/31 169/161/35 170/162/33
f 169/161/35 171/163/31 172/164/31
f 172/164/31 171/163/31 173/165/31
f 172/164/31 173/165/31 174/166/31
f 175/167/31 174/166/31 173/165/31
f 174/166/31 175/167/31 176/168/31
f 177/169/31 176/168/31 175/167/31
f 176/168/31 177/169/31 178/170/31
f 179/171/31 178/170/31 177/169/31
f 178/170/31 179/171/31 180/172/31
usemtl Meshpart3Mtl
f 183/173/66 182/174/67 181/175/68
f 185/176/69 183/173/66 184/177/70
f 185/176/69 182/174/67 183/173/66
f 185/176/69 188/178/71 182/174/67
f 182/174/67 188/178/71 186/179/72
f 188/178/71 185/176/69 187/180/73
f 191/181/74 190/182/75 189/183/76
f 192/184/73 190/182/75 191/181/74
f 193/185/77 192/184/73 191/181/74
f 194/186/78 192/184/73 193/185/77
f 197/181/72 196/182/79 195/183/80
f 197/181/72 198/184/18 196/182/79
f 200/185/81 198/184/18 197/181/72
f 200/185/81 199/186/77 198/184/18
f 201/181/82 202/184/83 203/182/84
f 204/185/85 202/184/83 201/181/82
f 201/181/82 203/182/84 205/183/86
f 204/185/85 206/186/79 202/184/83
f 208/182/87 207/183/84 209/181/31
f 208/182/87 209/181/31 210/184/88
f 210/184/88 209/181/31 211/185/76
f 210/184/88 211/185/76 212/186/89
usemtl Meshpart7Mtl
f 381/297/198 382/298/199 383/299/200
f 384/300/201 383/299/200 382/298/199
f 383/299/200 385/301/202 381/297/198
f 383/299/200 384/300/201 386/302/201
f 389/303/203 387/304/204 388/305/204
f 387/304/204 389/303/203 390/306/205
f 389/303/203 391/307/206 390/306/205
f 391/307/206 389/303/203 392/308/206
f 395/309/207 394/310/208 393/311/209
f 393/311/209 396/312/210 395/309/207
f 397/313/211 395/309/207 396/312/210
f 395/309/207 397/313/211 398/314/212
f 399/315/213 400/316/214 401/317/214
f 400/316/214 402/318/204 401/317/214
f 400/316/214 399/315/213 403/319/213
f 402/318/204 400/316/214 404/320/204
f 409/321/215 405/322/216 407/323/216
f 409/321/215 408/324/217 406/325/217
f 405/322/216 409/321/215 410/303/218
f 406/325/217 410/303/218 409/321/215
f 411/326/213 413/298/219 412/327/213
f 413/298/219 411/326/213 414/328/220
f 415/329/221 413/298/219 414/328/220
f 413/298/219 415/329/221 416/330/221
f 419/309/222 417/313/198 418/314/223
f 417/313/198 419/309/222 420/312/222
f 421/311/224 420/312/222 419/309/222
f 419/309/222 422/310/224 421/311/224
f 423/318/221 427/316/225 425/320/221
f 427/316/225 424/315/206 426/319/206
f 427/316/225 423/318/221 428/317/225
f 424/315/206 427/316/225 428/317/225
f 429/331/31 430/332/31 431/333/31
f 431/333/31 430/332/31 432/334/31
f 429/331/31 431/333/31 433/303/31
f 429/331/31 434/335/31 430/332/31
f 430/332/31 434/335/31 435/298/31
f 434/335/31 429/331/31 436/336/31
